M48
;Layer_Color=9474304
;FILE_FORMAT=4:4
METRIC,LZ
;TYPE=PLATED
T1F00S00C0.3500
T2F00S00C0.4000
T3F00S00C0.5000
T4F00S00C1.1000
T5F00S00C1.2000
T6F00S00C2.5000
%
T01
X00015Y002555
X00025
X00035
X0003Y002625
X0002
X00015Y002695
X00025
X00035
X-005665Y0022
X-005765
X-005865
X-005815Y00213
X-005715
X-005765Y00206
X-005665
X-005865
Y00156
X-005765
X-005665
X-005715Y00149
X-005815
X-005865Y00142
X-005765
X-005665
X-00382Y0043
Y0044
Y0045
X-00375Y00445
Y00435
X-00368Y0044
Y0043
Y0045
X-00318
Y0044
Y0043
X-00311Y00435
Y00445
X-00304Y0045
Y0044
Y0043
X-003055Y006457
X-002855
X-003355
X-003655
X-003955
X-004255
X-004655
X-00155Y006365
Y006265
Y006165
X-00148Y006215
Y006315
X-00141Y006365
Y006265
Y006165
X-000905
Y006265
Y006365
X-000835Y006315
Y006215
X-000765Y006265
Y006165
Y006365
X00015Y00334
X00025
X00035
X0003Y00327
X0002
X00015Y0032
X00025
X00035
X00081Y00359
T02
X-00019Y0025
X-003735Y003247
X-003975Y003102
X-003735Y003722
X-003565Y003897
X-00407Y003872
X-001025Y00503
Y005755
X-00059Y00629
X-00015Y005925
X000345Y00578
X000445Y005685
X000545Y00578
X000645Y005685
X000745Y00578
X000895Y005685
X000995Y00578
X00108Y005605
X0002Y00538
X00002Y00502
X-00015Y005025
X000825Y003485
T03
X-00021213Y-00021213
X-0003Y0
X0003
X00021213Y00021213
X0Y0003
Y-0003
X00021213Y-00021213
X000295Y-000525
X000395
X000595Y-000245
X000695
X-0061Y0042
X-00601213Y00398787
X-0058Y0039
X-0055Y0042
X-00558787Y00441213
X-0058Y0045
X-00601213Y00441213
X-00021213
X-0003Y0042
X-00021213Y00398787
X0Y0039
X00021213Y00398787
X0003Y0042
X00021213Y00441213
X0Y0045
T04
X-0055568Y0039568
T05
X-00024325Y00024325
T06
X0Y0
X-0058Y0042
X0
M30
