G04*
G04 #@! TF.GenerationSoftware,Altium Limited,Altium Designer,20.1.7 (139)*
G04*
G04 Layer_Color=8388736*
%FSLAX25Y25*%
%MOIN*%
G70*
G04*
G04 #@! TF.SameCoordinates,17503974-A5A2-4C32-8372-7ECB8DF3FFA4*
G04*
G04*
G04 #@! TF.FilePolarity,Negative*
G04*
G01*
G75*
%ADD14R,0.07296X0.03162*%
%ADD15R,0.08083X0.03162*%
%ADD16R,0.06706X0.06706*%
%ADD17C,0.06706*%
%ADD18C,0.06312*%
D14*
X0Y74803D02*
D03*
Y70866D02*
D03*
Y66929D02*
D03*
Y62992D02*
D03*
Y59055D02*
D03*
Y55118D02*
D03*
Y51181D02*
D03*
Y47244D02*
D03*
Y43307D02*
D03*
Y39370D02*
D03*
Y35433D02*
D03*
Y31496D02*
D03*
Y27559D02*
D03*
Y23622D02*
D03*
Y19685D02*
D03*
Y15748D02*
D03*
Y11811D02*
D03*
Y7874D02*
D03*
Y3937D02*
D03*
Y0D02*
D03*
D15*
X14764Y74803D02*
D03*
Y70866D02*
D03*
Y66929D02*
D03*
Y62992D02*
D03*
Y59055D02*
D03*
Y55118D02*
D03*
Y51181D02*
D03*
Y47244D02*
D03*
Y43307D02*
D03*
Y39370D02*
D03*
Y35433D02*
D03*
Y31496D02*
D03*
Y27559D02*
D03*
Y23622D02*
D03*
Y19685D02*
D03*
Y15748D02*
D03*
Y11811D02*
D03*
Y7874D02*
D03*
Y3937D02*
D03*
Y0D02*
D03*
D16*
X-28543Y-62992D02*
D03*
D17*
Y-52992D02*
D03*
Y-42992D02*
D03*
Y-32992D02*
D03*
Y-22992D02*
D03*
Y-12992D02*
D03*
Y-2992D02*
D03*
Y7008D02*
D03*
Y17008D02*
D03*
Y27008D02*
D03*
Y37008D02*
D03*
Y47008D02*
D03*
Y57008D02*
D03*
Y67008D02*
D03*
Y77008D02*
D03*
Y87008D02*
D03*
Y97008D02*
D03*
Y107008D02*
D03*
Y117008D02*
D03*
Y127008D02*
D03*
D18*
X27835Y74410D02*
D03*
X35709Y70473D02*
D03*
X27835Y66535D02*
D03*
X35709Y62598D02*
D03*
X27835Y58661D02*
D03*
X35709Y54724D02*
D03*
X27835Y50787D02*
D03*
X35709Y46850D02*
D03*
X27835Y42913D02*
D03*
X35709Y38976D02*
D03*
X27835Y35039D02*
D03*
X35709Y31102D02*
D03*
X27835Y27165D02*
D03*
X35709Y23228D02*
D03*
X27835Y19291D02*
D03*
X35709Y15354D02*
D03*
X27835Y11417D02*
D03*
X35709Y7480D02*
D03*
X27835Y3543D02*
D03*
X35709Y-394D02*
D03*
M02*
