G04*
G04 #@! TF.GenerationSoftware,Altium Limited,Altium Designer,20.1.7 (139)*
G04*
G04 Layer_Physical_Order=1*
G04 Layer_Color=255*
%FSLAX25Y25*%
%MOIN*%
G70*
G04*
G04 #@! TF.SameCoordinates,17503974-A5A2-4C32-8372-7ECB8DF3FFA4*
G04*
G04*
G04 #@! TF.FilePolarity,Positive*
G04*
G01*
G75*
%ADD10C,0.00984*%
%ADD19R,0.06496X0.02362*%
%ADD20R,0.07284X0.02362*%
%ADD21C,0.02756*%
%ADD22R,0.05906X0.05906*%
%ADD23C,0.05906*%
%ADD24C,0.05512*%
G36*
X35433Y-2953D02*
X12795D01*
X10827Y-984D01*
Y984D01*
X11535Y1693D01*
X24987D01*
X25420Y1128D01*
X26127Y586D01*
X26951Y245D01*
X27835Y128D01*
X28719Y245D01*
X29542Y586D01*
X30249Y1128D01*
X30792Y1836D01*
X30847Y1969D01*
X35433D01*
Y-2953D01*
D02*
G37*
G36*
Y4921D02*
X30929D01*
X30792Y5251D01*
X30249Y5958D01*
X29542Y6501D01*
X28719Y6842D01*
X27835Y6958D01*
X26951Y6842D01*
X26127Y6501D01*
X25420Y5958D01*
X25289Y5787D01*
X11929D01*
X10827Y6890D01*
X10827D01*
Y8858D01*
X11535Y9567D01*
X24987D01*
X25420Y9003D01*
X26127Y8460D01*
X26951Y8119D01*
X27835Y8002D01*
X28719Y8119D01*
X29542Y8460D01*
X30249Y9003D01*
X30792Y9710D01*
X30847Y9843D01*
X35433D01*
Y4921D01*
D02*
G37*
G36*
Y20669D02*
X30929D01*
X30792Y20999D01*
X30249Y21706D01*
X29542Y22249D01*
X28719Y22590D01*
X27835Y22706D01*
X26951Y22590D01*
X26127Y22249D01*
X25420Y21706D01*
X25289Y21535D01*
X11929D01*
X10827Y22638D01*
Y24606D01*
X11535Y25315D01*
X24987D01*
X25420Y24751D01*
X26127Y24208D01*
X26951Y23867D01*
X27835Y23750D01*
X28719Y23867D01*
X29542Y24208D01*
X30249Y24751D01*
X30792Y25458D01*
X30847Y25591D01*
X35433D01*
Y20669D01*
D02*
G37*
G36*
Y12795D02*
X30929D01*
X30792Y13125D01*
X30249Y13832D01*
X29542Y14375D01*
X28719Y14716D01*
X27835Y14832D01*
X26951Y14716D01*
X26127Y14375D01*
X25420Y13832D01*
X25289Y13661D01*
X11929D01*
X10827Y14764D01*
Y16732D01*
X11535Y17441D01*
X24987D01*
X25420Y16876D01*
X26127Y16334D01*
X26951Y15993D01*
X27835Y15876D01*
X28719Y15993D01*
X29542Y16334D01*
X30249Y16876D01*
X30792Y17584D01*
X30847Y17717D01*
X35433D01*
Y12795D01*
D02*
G37*
G36*
Y28543D02*
X30929D01*
X30792Y28873D01*
X30249Y29580D01*
X29542Y30123D01*
X28719Y30464D01*
X27835Y30580D01*
X26951Y30464D01*
X26127Y30123D01*
X25420Y29580D01*
X25289Y29409D01*
X11929D01*
X10827Y30512D01*
Y32480D01*
X11535Y33189D01*
X24987D01*
X25420Y32625D01*
X26127Y32082D01*
X26951Y31741D01*
X27835Y31624D01*
X28719Y31741D01*
X29542Y32082D01*
X30249Y32625D01*
X30792Y33332D01*
X30847Y33465D01*
X35433D01*
Y28543D01*
D02*
G37*
G36*
Y44291D02*
X30929D01*
X30792Y44621D01*
X30249Y45328D01*
X29542Y45871D01*
X28719Y46212D01*
X27835Y46328D01*
X26951Y46212D01*
X26127Y45871D01*
X25420Y45328D01*
X25289Y45158D01*
X11929D01*
X10827Y46260D01*
Y48228D01*
X11535Y48937D01*
X24987D01*
X25420Y48373D01*
X26127Y47830D01*
X26951Y47489D01*
X27835Y47372D01*
X28719Y47489D01*
X29542Y47830D01*
X30249Y48373D01*
X30792Y49080D01*
X30847Y49213D01*
X35433D01*
Y44291D01*
D02*
G37*
G36*
Y36417D02*
X30929D01*
X30792Y36747D01*
X30249Y37454D01*
X29542Y37997D01*
X28719Y38338D01*
X27835Y38454D01*
X26951Y38338D01*
X26127Y37997D01*
X25420Y37454D01*
X25289Y37283D01*
X11929D01*
X10827Y38386D01*
Y40354D01*
X11535Y41063D01*
X24987D01*
X25420Y40499D01*
X26127Y39956D01*
X26951Y39615D01*
X27835Y39498D01*
X28719Y39615D01*
X29542Y39956D01*
X30249Y40499D01*
X30792Y41206D01*
X30847Y41339D01*
X35433D01*
Y36417D01*
D02*
G37*
G36*
Y52165D02*
X30929D01*
X30792Y52495D01*
X30249Y53202D01*
X29542Y53745D01*
X28719Y54086D01*
X27835Y54202D01*
X26951Y54086D01*
X26127Y53745D01*
X25420Y53202D01*
X25289Y53031D01*
X11929D01*
X10827Y54134D01*
Y56102D01*
X11535Y56811D01*
X24987D01*
X25420Y56247D01*
X26127Y55704D01*
X26951Y55363D01*
X27835Y55246D01*
X28719Y55363D01*
X29542Y55704D01*
X30249Y56247D01*
X30792Y56954D01*
X30847Y57087D01*
X35433D01*
Y52165D01*
D02*
G37*
G36*
Y67913D02*
X30929D01*
X30792Y68243D01*
X30249Y68950D01*
X29542Y69493D01*
X28719Y69834D01*
X27835Y69950D01*
X26951Y69834D01*
X26127Y69493D01*
X25420Y68950D01*
X25289Y68779D01*
X11929D01*
X10827Y69882D01*
Y71850D01*
X11535Y72559D01*
X24987D01*
X25420Y71995D01*
X26127Y71452D01*
X26951Y71111D01*
X27835Y70994D01*
X28719Y71111D01*
X29542Y71452D01*
X30249Y71995D01*
X30792Y72702D01*
X30847Y72835D01*
X35433D01*
Y67913D01*
D02*
G37*
G36*
Y60039D02*
X30929D01*
X30792Y60369D01*
X30249Y61076D01*
X29542Y61619D01*
X28719Y61960D01*
X27835Y62076D01*
X26951Y61960D01*
X26127Y61619D01*
X25420Y61076D01*
X25289Y60905D01*
X11929D01*
X10827Y62008D01*
Y63976D01*
X11535Y64685D01*
X24987D01*
X25420Y64121D01*
X26127Y63578D01*
X26951Y63237D01*
X27835Y63120D01*
X28719Y63237D01*
X29542Y63578D01*
X30249Y64121D01*
X30792Y64828D01*
X30847Y64961D01*
X35433D01*
Y60039D01*
D02*
G37*
D10*
X14764Y7874D02*
X23622D01*
X24016Y7480D02*
X35709D01*
X23622Y7874D02*
X24016Y7480D01*
X14764Y15748D02*
X14764Y15748D01*
X22638D01*
X23031Y15354D02*
X35709D01*
X22638Y15748D02*
X23031Y15354D01*
X23622Y31496D02*
X24016Y31102D01*
X14764Y31496D02*
X23622D01*
X24016Y31102D02*
X35709D01*
X17264Y39370D02*
X21654D01*
X22047Y38976D02*
X35709D01*
X21654Y39370D02*
X22047Y38976D01*
X14764Y47244D02*
X23622D01*
X24016Y46850D02*
X35709D01*
X23622Y47244D02*
X24016Y46850D01*
X14764Y55118D02*
X14764Y55118D01*
X21654D01*
X22047Y54724D02*
X35709D01*
X21654Y55118D02*
X22047Y54724D01*
X14764Y62992D02*
X21654D01*
X22047Y62598D02*
X35709D01*
X21654Y62992D02*
X22047Y62598D01*
X17264Y70866D02*
X23622D01*
X24016Y70473D02*
X35709D01*
X23622Y70866D02*
X24016Y70473D01*
D19*
X0Y74803D02*
D03*
Y70866D02*
D03*
Y66929D02*
D03*
Y62992D02*
D03*
Y59055D02*
D03*
Y55118D02*
D03*
Y51181D02*
D03*
Y47244D02*
D03*
Y43307D02*
D03*
Y39370D02*
D03*
Y35433D02*
D03*
Y31496D02*
D03*
Y27559D02*
D03*
Y23622D02*
D03*
Y19685D02*
D03*
Y15748D02*
D03*
Y11811D02*
D03*
Y7874D02*
D03*
Y3937D02*
D03*
Y0D02*
D03*
D20*
X14764Y74803D02*
D03*
Y70866D02*
D03*
Y66929D02*
D03*
Y62992D02*
D03*
Y59055D02*
D03*
Y55118D02*
D03*
Y51181D02*
D03*
Y47244D02*
D03*
Y43307D02*
D03*
Y39370D02*
D03*
Y35433D02*
D03*
Y31496D02*
D03*
Y27559D02*
D03*
Y23622D02*
D03*
Y19685D02*
D03*
Y15748D02*
D03*
Y11811D02*
D03*
Y7874D02*
D03*
Y3937D02*
D03*
Y0D02*
D03*
D21*
X197Y35236D02*
X27638D01*
X197Y27362D02*
X27638D01*
X197Y19488D02*
X27638D01*
X197Y11614D02*
X27638D01*
X197Y3740D02*
X27638D01*
X197Y43110D02*
X27638D01*
X14764Y0D02*
X14764Y0D01*
X22638D01*
X35181Y-921D02*
X35709Y-394D01*
X30107Y-921D02*
X35181D01*
X29808Y-1221D02*
X30107Y-921D01*
X23858Y-1221D02*
X29808D01*
X22638Y0D02*
X23858Y-1221D01*
X0Y3937D02*
X197Y3740D01*
X27638D02*
X27835Y3543D01*
X0Y7874D02*
X14764D01*
X0Y11811D02*
X197Y11614D01*
X27638D02*
X27835Y11417D01*
X0Y15748D02*
X14764D01*
X0Y19685D02*
X197Y19488D01*
X27638D02*
X27835Y19291D01*
X0Y23622D02*
X14764D01*
X0Y27559D02*
X197Y27362D01*
X27638D02*
X27835Y27165D01*
X0Y31496D02*
X14764D01*
X0Y35433D02*
X197Y35236D01*
X27638D02*
X27835Y35039D01*
X-28543Y27008D02*
X-28335Y27217D01*
X-18358D01*
X-10142Y35433D02*
X0D01*
X-18358Y27217D02*
X-10142Y35433D01*
X-28543Y17008D02*
X-27941Y17610D01*
X-23176D01*
X-9291Y31496D02*
X0D01*
X-23176Y17610D02*
X-9291Y31496D01*
X-8439Y27559D02*
X0D01*
X-28543Y7455D02*
X-8439Y27559D01*
X-28543Y7008D02*
Y7455D01*
Y-2992D02*
X-27941Y-2389D01*
X-24575D01*
X-22185Y0D01*
X-7588Y23622D02*
X0D01*
X-22185Y9025D02*
X-7588Y23622D01*
X-22185Y0D02*
Y9025D01*
X-28543Y-12992D02*
X-18799Y-3248D01*
X-197Y19488D02*
X0Y19685D01*
X-6934Y19488D02*
X-197D01*
X-18799Y7623D02*
X-6934Y19488D01*
X-18799Y-3248D02*
Y7623D01*
X-28543Y-22992D02*
X-15413Y-9862D01*
X-197Y15551D02*
X0Y15748D01*
X-6082Y15551D02*
X-197D01*
X-15413Y6220D02*
X-6082Y15551D01*
X-15413Y-9862D02*
Y6220D01*
X-28543Y-32992D02*
X-12028Y-16476D01*
X-197Y11614D02*
X0Y11811D01*
X-5231Y11614D02*
X-197D01*
X-12028Y4818D02*
X-5231Y11614D01*
X-12028Y-16476D02*
Y4818D01*
X-28543Y-42992D02*
X-8642Y-23090D01*
X-197Y7677D02*
X0Y7874D01*
X-4380Y7677D02*
X-197D01*
X-8642Y3415D02*
X-4380Y7677D01*
X-8642Y-23090D02*
Y3415D01*
X-5256Y2013D02*
X-3528Y3740D01*
X-197D01*
X0Y3937D01*
X-5256Y-29705D02*
Y2013D01*
X-28543Y-52992D02*
X-5256Y-29705D01*
X7382Y0D02*
X14764D01*
X0D02*
X7382D01*
X-28543Y-62992D02*
X7382Y-27067D01*
Y0D01*
X-8858Y51181D02*
X0D01*
X-27941Y66405D02*
X-24082D01*
X-8858Y51181D01*
X-28543Y57008D02*
X-19606D01*
X-9843Y47244D01*
X0D01*
X14764D01*
X0Y51181D02*
X14764D01*
X0Y43307D02*
X197Y43110D01*
X27638D02*
X27835Y42913D01*
X14764Y51181D02*
X14961Y50984D01*
X27638D01*
X27835Y50787D01*
X14764Y59055D02*
X14961Y58858D01*
X27638D01*
X27835Y58661D01*
X-28543Y67008D02*
X-27941Y66405D01*
X0Y55118D02*
X14764D01*
X-19685Y67062D02*
X-7741Y55118D01*
X0D01*
Y59055D02*
X14764D01*
X-19685Y67062D02*
Y75157D01*
X-28307Y76772D02*
X-21299D01*
X-6890Y59055D02*
X0D01*
X-16299Y68465D02*
X-6890Y59055D01*
X-21457Y86417D02*
X-16299Y81260D01*
Y68465D02*
Y81260D01*
X-21299Y76772D02*
X-19685Y75157D01*
X-28543Y77008D02*
X-28307Y76772D01*
X-28543Y87008D02*
X-27953Y86417D01*
X-21457D01*
X-5994Y62992D02*
X0D01*
X-12795Y69794D02*
X-5994Y62992D01*
X14764Y74803D02*
X14961Y74606D01*
X27638D01*
X27835Y74410D01*
X0Y62992D02*
X14764D01*
X-12795Y69794D02*
Y88583D01*
X-5906Y72480D02*
Y94370D01*
Y72480D02*
X-4291Y70866D01*
X-9291Y71078D02*
Y92953D01*
X-4291Y70866D02*
X-0D01*
X-9291Y71078D02*
X-5339Y67126D01*
X-0Y70866D02*
X0Y70866D01*
X-21220Y97008D02*
X-12795Y88583D01*
X-23137Y106799D02*
X-9291Y92953D01*
X-28543Y117008D02*
X-5906Y94370D01*
X-28543Y97008D02*
X-21220D01*
X-28543Y107008D02*
X-28334Y106799D01*
X-23137D01*
X-21654Y115157D02*
X7382Y86122D01*
X-21654Y115157D02*
Y120118D01*
X7382Y78248D02*
Y86122D01*
Y74803D02*
X14764D01*
X0D02*
X7382D01*
X-28543Y127008D02*
X-21654Y120118D01*
X7382Y74803D02*
Y78248D01*
X-0Y70866D02*
X14764D01*
X14764Y66929D02*
X27441D01*
X-5142D02*
X14764D01*
X-5339Y67126D02*
X-5142Y66929D01*
X-28543Y47008D02*
X-24843Y43307D01*
X0D01*
X-26181Y39370D02*
X14764D01*
X-28543Y37008D02*
X-26181Y39370D01*
D22*
X-28543Y-62992D02*
D03*
D23*
Y-52992D02*
D03*
Y-42992D02*
D03*
Y-32992D02*
D03*
Y-22992D02*
D03*
Y-12992D02*
D03*
Y-2992D02*
D03*
Y7008D02*
D03*
Y17008D02*
D03*
Y27008D02*
D03*
Y37008D02*
D03*
Y47008D02*
D03*
Y57008D02*
D03*
Y67008D02*
D03*
Y77008D02*
D03*
Y87008D02*
D03*
Y97008D02*
D03*
Y107008D02*
D03*
Y117008D02*
D03*
Y127008D02*
D03*
D24*
X27835Y74410D02*
D03*
X35709Y70473D02*
D03*
X27835Y66535D02*
D03*
X35709Y62598D02*
D03*
X27835Y58661D02*
D03*
X35709Y54724D02*
D03*
X27835Y50787D02*
D03*
X35709Y46850D02*
D03*
X27835Y42913D02*
D03*
X35709Y38976D02*
D03*
X27835Y35039D02*
D03*
X35709Y31102D02*
D03*
X27835Y27165D02*
D03*
X35709Y23228D02*
D03*
X27835Y19291D02*
D03*
X35709Y15354D02*
D03*
X27835Y11417D02*
D03*
X35709Y7480D02*
D03*
X27835Y3543D02*
D03*
X35709Y-394D02*
D03*
M02*
