G04*
G04 #@! TF.GenerationSoftware,Altium Limited,Altium Designer,20.0.14 (345)*
G04*
G04 Layer_Color=65535*
%FSLAX43Y43*%
%MOMM*%
G71*
G01*
G75*
%ADD10C,0.254*%
D10*
X60754Y51473D02*
Y49950D01*
X61262Y50457D01*
X61770Y49950D01*
Y51473D01*
X62278Y49950D02*
X62785D01*
X62531D01*
Y50965D01*
X62278D01*
X63547Y49950D02*
X64055D01*
X63801D01*
Y50965D01*
X63547D01*
X64817D02*
Y49950D01*
Y50457D01*
X65071Y50711D01*
X65325Y50965D01*
X65578D01*
X67356Y51473D02*
Y49950D01*
X66594D01*
X66340Y50204D01*
Y50711D01*
X66594Y50965D01*
X67356D01*
X68879Y51473D02*
X67864D01*
Y50711D01*
X68372D01*
X67864D01*
Y49950D01*
X69387D02*
X69895D01*
X69641D01*
Y51473D01*
X69387D01*
X71419Y49950D02*
X70911D01*
X70657Y50204D01*
Y50711D01*
X70911Y50965D01*
X71419D01*
X71672Y50711D01*
Y50457D01*
X70657D01*
X72180Y50965D02*
X73196Y49950D01*
X72688Y50457D01*
X73196Y50965D01*
X72180Y49950D01*
X75481Y50965D02*
X75989D01*
X76243Y50711D01*
Y49950D01*
X75481D01*
X75227Y50204D01*
X75481Y50457D01*
X76243D01*
X76751Y49950D02*
X77259D01*
X77005D01*
Y51473D01*
X76751D01*
X78020Y49950D02*
X78528D01*
X78274D01*
Y50965D01*
X78020D01*
X79798Y49442D02*
X80052D01*
X80306Y49696D01*
Y50965D01*
X79544D01*
X79290Y50711D01*
Y50204D01*
X79544Y49950D01*
X80306D01*
X80814D02*
Y50965D01*
X81575D01*
X81829Y50711D01*
Y49950D01*
X82337D02*
Y50965D01*
X82591D01*
X82845Y50711D01*
Y49950D01*
Y50711D01*
X83099Y50965D01*
X83353Y50711D01*
Y49950D01*
X84622D02*
X84114D01*
X83861Y50204D01*
Y50711D01*
X84114Y50965D01*
X84622D01*
X84876Y50711D01*
Y50457D01*
X83861D01*
X85384Y49950D02*
Y50965D01*
X86146D01*
X86400Y50711D01*
Y49950D01*
X87161Y51219D02*
Y50965D01*
X86908D01*
X87415D01*
X87161D01*
Y50204D01*
X87415Y49950D01*
X60754Y48020D02*
Y47004D01*
Y47512D01*
X61008Y47766D01*
X61262Y48020D01*
X61516D01*
X63039Y47004D02*
X62531D01*
X62278Y47258D01*
Y47766D01*
X62531Y48020D01*
X63039D01*
X63293Y47766D01*
Y47512D01*
X62278D01*
X63801Y48020D02*
X64309Y47004D01*
X64817Y48020D01*
X66848Y48274D02*
X67102Y48528D01*
X67610D01*
X67864Y48274D01*
Y47258D01*
X67610Y47004D01*
X67102D01*
X66848Y47258D01*
Y48274D01*
M02*
