G04*
G04 #@! TF.GenerationSoftware,Altium Limited,Altium Designer,20.0.14 (345)*
G04*
G04 Layer_Color=2752767*
%FSLAX43Y43*%
%MOMM*%
G71*
G01*
G75*
%ADD16C,0.051*%
D16*
X85400Y57823D02*
X85485Y57908D01*
X85654D01*
X85739Y57823D01*
Y57485D01*
X85654Y57400D01*
X85485D01*
X85400Y57485D01*
Y57823D01*
X85908Y57400D02*
Y57485D01*
X85992D01*
Y57400D01*
X85908D01*
X86331Y57823D02*
X86416Y57908D01*
X86585D01*
X86670Y57823D01*
Y57739D01*
X86585Y57654D01*
X86500D01*
X86585D01*
X86670Y57569D01*
Y57485D01*
X86585Y57400D01*
X86416D01*
X86331Y57485D01*
X74600Y57823D02*
X74685Y57908D01*
X74854D01*
X74939Y57823D01*
Y57485D01*
X74854Y57400D01*
X74685D01*
X74600Y57485D01*
Y57823D01*
X75108Y57400D02*
Y57485D01*
X75192D01*
Y57400D01*
X75108D01*
X75531Y57823D02*
X75616Y57908D01*
X75785D01*
X75870Y57823D01*
Y57739D01*
X75785Y57654D01*
X75700D01*
X75785D01*
X75870Y57569D01*
Y57485D01*
X75785Y57400D01*
X75616D01*
X75531Y57485D01*
X85400Y55023D02*
X85485Y55108D01*
X85654D01*
X85739Y55023D01*
Y54685D01*
X85654Y54600D01*
X85485D01*
X85400Y54685D01*
Y55023D01*
X85908Y54600D02*
Y54685D01*
X85992D01*
Y54600D01*
X85908D01*
X86331Y55023D02*
X86416Y55108D01*
X86585D01*
X86670Y55023D01*
Y54939D01*
X86585Y54854D01*
X86500D01*
X86585D01*
X86670Y54769D01*
Y54685D01*
X86585Y54600D01*
X86416D01*
X86331Y54685D01*
X74600Y55023D02*
X74685Y55108D01*
X74854D01*
X74939Y55023D01*
Y54685D01*
X74854Y54600D01*
X74685D01*
X74600Y54685D01*
Y55023D01*
X75108Y54600D02*
Y54685D01*
X75192D01*
Y54600D01*
X75108D01*
X75531Y55023D02*
X75616Y55108D01*
X75785D01*
X75870Y55023D01*
Y54939D01*
X75785Y54854D01*
X75700D01*
X75785D01*
X75870Y54769D01*
Y54685D01*
X75785Y54600D01*
X75616D01*
X75531Y54685D01*
X84300Y53223D02*
X84385Y53308D01*
X84554D01*
X84639Y53223D01*
Y52885D01*
X84554Y52800D01*
X84385D01*
X84300Y52885D01*
Y53223D01*
X84808Y52800D02*
Y52885D01*
X84892D01*
Y52800D01*
X84808D01*
X85231Y53223D02*
X85316Y53308D01*
X85485D01*
X85570Y53223D01*
Y53139D01*
X85485Y53054D01*
X85400D01*
X85485D01*
X85570Y52969D01*
Y52885D01*
X85485Y52800D01*
X85316D01*
X85231Y52885D01*
X84300Y59723D02*
X84385Y59808D01*
X84554D01*
X84639Y59723D01*
Y59385D01*
X84554Y59300D01*
X84385D01*
X84300Y59385D01*
Y59723D01*
X84808Y59300D02*
Y59385D01*
X84892D01*
Y59300D01*
X84808D01*
X85231Y59723D02*
X85316Y59808D01*
X85485D01*
X85570Y59723D01*
Y59639D01*
X85485Y59554D01*
X85400D01*
X85485D01*
X85570Y59469D01*
Y59385D01*
X85485Y59300D01*
X85316D01*
X85231Y59385D01*
X82100Y53223D02*
X82185Y53308D01*
X82354D01*
X82439Y53223D01*
Y52885D01*
X82354Y52800D01*
X82185D01*
X82100Y52885D01*
Y53223D01*
X82608Y52800D02*
Y52885D01*
X82692D01*
Y52800D01*
X82608D01*
X83031Y53223D02*
X83116Y53308D01*
X83285D01*
X83370Y53223D01*
Y53139D01*
X83285Y53054D01*
X83200D01*
X83285D01*
X83370Y52969D01*
Y52885D01*
X83285Y52800D01*
X83116D01*
X83031Y52885D01*
X82100Y59723D02*
X82185Y59808D01*
X82354D01*
X82439Y59723D01*
Y59385D01*
X82354Y59300D01*
X82185D01*
X82100Y59385D01*
Y59723D01*
X82608Y59300D02*
Y59385D01*
X82692D01*
Y59300D01*
X82608D01*
X83031Y59723D02*
X83116Y59808D01*
X83285D01*
X83370Y59723D01*
Y59639D01*
X83285Y59554D01*
X83200D01*
X83285D01*
X83370Y59469D01*
Y59385D01*
X83285Y59300D01*
X83116D01*
X83031Y59385D01*
X77900Y53223D02*
X77985Y53308D01*
X78154D01*
X78239Y53223D01*
Y52885D01*
X78154Y52800D01*
X77985D01*
X77900Y52885D01*
Y53223D01*
X78408Y52800D02*
Y52885D01*
X78492D01*
Y52800D01*
X78408D01*
X78831Y53223D02*
X78916Y53308D01*
X79085D01*
X79170Y53223D01*
Y53139D01*
X79085Y53054D01*
X79000D01*
X79085D01*
X79170Y52969D01*
Y52885D01*
X79085Y52800D01*
X78916D01*
X78831Y52885D01*
X77900Y59723D02*
X77985Y59808D01*
X78154D01*
X78239Y59723D01*
Y59385D01*
X78154Y59300D01*
X77985D01*
X77900Y59385D01*
Y59723D01*
X78408Y59300D02*
Y59385D01*
X78492D01*
Y59300D01*
X78408D01*
X78831Y59723D02*
X78916Y59808D01*
X79085D01*
X79170Y59723D01*
Y59639D01*
X79085Y59554D01*
X79000D01*
X79085D01*
X79170Y59469D01*
Y59385D01*
X79085Y59300D01*
X78916D01*
X78831Y59385D01*
X75700Y53223D02*
X75785Y53308D01*
X75954D01*
X76039Y53223D01*
Y52885D01*
X75954Y52800D01*
X75785D01*
X75700Y52885D01*
Y53223D01*
X76208Y52800D02*
Y52885D01*
X76292D01*
Y52800D01*
X76208D01*
X76631Y53223D02*
X76716Y53308D01*
X76885D01*
X76970Y53223D01*
Y53139D01*
X76885Y53054D01*
X76800D01*
X76885D01*
X76970Y52969D01*
Y52885D01*
X76885Y52800D01*
X76716D01*
X76631Y52885D01*
X75700Y59723D02*
X75785Y59808D01*
X75954D01*
X76039Y59723D01*
Y59385D01*
X75954Y59300D01*
X75785D01*
X75700Y59385D01*
Y59723D01*
X76208Y59300D02*
Y59385D01*
X76292D01*
Y59300D01*
X76208D01*
X76631Y59723D02*
X76716Y59808D01*
X76885D01*
X76970Y59723D01*
Y59639D01*
X76885Y59554D01*
X76800D01*
X76885D01*
X76970Y59469D01*
Y59385D01*
X76885Y59300D01*
X76716D01*
X76631Y59385D01*
X71100Y95823D02*
X71185Y95908D01*
X71354D01*
X71439Y95823D01*
Y95485D01*
X71354Y95400D01*
X71185D01*
X71100Y95485D01*
Y95823D01*
X71608Y95400D02*
Y95485D01*
X71692D01*
Y95400D01*
X71608D01*
X72031Y95823D02*
X72116Y95908D01*
X72285D01*
X72370Y95823D01*
Y95739D01*
X72285Y95654D01*
X72200D01*
X72285D01*
X72370Y95569D01*
Y95485D01*
X72285Y95400D01*
X72116D01*
X72031Y95485D01*
X60300Y95823D02*
X60385Y95908D01*
X60554D01*
X60639Y95823D01*
Y95485D01*
X60554Y95400D01*
X60385D01*
X60300Y95485D01*
Y95823D01*
X60808Y95400D02*
Y95485D01*
X60892D01*
Y95400D01*
X60808D01*
X61231Y95823D02*
X61316Y95908D01*
X61485D01*
X61570Y95823D01*
Y95739D01*
X61485Y95654D01*
X61400D01*
X61485D01*
X61570Y95569D01*
Y95485D01*
X61485Y95400D01*
X61316D01*
X61231Y95485D01*
X71100Y93023D02*
X71185Y93108D01*
X71354D01*
X71439Y93023D01*
Y92685D01*
X71354Y92600D01*
X71185D01*
X71100Y92685D01*
Y93023D01*
X71608Y92600D02*
Y92685D01*
X71692D01*
Y92600D01*
X71608D01*
X72031Y93023D02*
X72116Y93108D01*
X72285D01*
X72370Y93023D01*
Y92939D01*
X72285Y92854D01*
X72200D01*
X72285D01*
X72370Y92769D01*
Y92685D01*
X72285Y92600D01*
X72116D01*
X72031Y92685D01*
X60300Y93023D02*
X60385Y93108D01*
X60554D01*
X60639Y93023D01*
Y92685D01*
X60554Y92600D01*
X60385D01*
X60300Y92685D01*
Y93023D01*
X60808Y92600D02*
Y92685D01*
X60892D01*
Y92600D01*
X60808D01*
X61231Y93023D02*
X61316Y93108D01*
X61485D01*
X61570Y93023D01*
Y92939D01*
X61485Y92854D01*
X61400D01*
X61485D01*
X61570Y92769D01*
Y92685D01*
X61485Y92600D01*
X61316D01*
X61231Y92685D01*
X70000Y91223D02*
X70085Y91308D01*
X70254D01*
X70339Y91223D01*
Y90885D01*
X70254Y90800D01*
X70085D01*
X70000Y90885D01*
Y91223D01*
X70508Y90800D02*
Y90885D01*
X70592D01*
Y90800D01*
X70508D01*
X70931Y91223D02*
X71016Y91308D01*
X71185D01*
X71270Y91223D01*
Y91139D01*
X71185Y91054D01*
X71100D01*
X71185D01*
X71270Y90969D01*
Y90885D01*
X71185Y90800D01*
X71016D01*
X70931Y90885D01*
X70000Y97723D02*
X70085Y97808D01*
X70254D01*
X70339Y97723D01*
Y97385D01*
X70254Y97300D01*
X70085D01*
X70000Y97385D01*
Y97723D01*
X70508Y97300D02*
Y97385D01*
X70592D01*
Y97300D01*
X70508D01*
X70931Y97723D02*
X71016Y97808D01*
X71185D01*
X71270Y97723D01*
Y97639D01*
X71185Y97554D01*
X71100D01*
X71185D01*
X71270Y97469D01*
Y97385D01*
X71185Y97300D01*
X71016D01*
X70931Y97385D01*
X67800Y91223D02*
X67885Y91308D01*
X68054D01*
X68139Y91223D01*
Y90885D01*
X68054Y90800D01*
X67885D01*
X67800Y90885D01*
Y91223D01*
X68308Y90800D02*
Y90885D01*
X68392D01*
Y90800D01*
X68308D01*
X68731Y91223D02*
X68816Y91308D01*
X68985D01*
X69070Y91223D01*
Y91139D01*
X68985Y91054D01*
X68900D01*
X68985D01*
X69070Y90969D01*
Y90885D01*
X68985Y90800D01*
X68816D01*
X68731Y90885D01*
X67800Y97723D02*
X67885Y97808D01*
X68054D01*
X68139Y97723D01*
Y97385D01*
X68054Y97300D01*
X67885D01*
X67800Y97385D01*
Y97723D01*
X68308Y97300D02*
Y97385D01*
X68392D01*
Y97300D01*
X68308D01*
X68731Y97723D02*
X68816Y97808D01*
X68985D01*
X69070Y97723D01*
Y97639D01*
X68985Y97554D01*
X68900D01*
X68985D01*
X69070Y97469D01*
Y97385D01*
X68985Y97300D01*
X68816D01*
X68731Y97385D01*
X63600Y91223D02*
X63685Y91308D01*
X63854D01*
X63939Y91223D01*
Y90885D01*
X63854Y90800D01*
X63685D01*
X63600Y90885D01*
Y91223D01*
X64108Y90800D02*
Y90885D01*
X64192D01*
Y90800D01*
X64108D01*
X64531Y91223D02*
X64616Y91308D01*
X64785D01*
X64870Y91223D01*
Y91139D01*
X64785Y91054D01*
X64700D01*
X64785D01*
X64870Y90969D01*
Y90885D01*
X64785Y90800D01*
X64616D01*
X64531Y90885D01*
X63600Y97723D02*
X63685Y97808D01*
X63854D01*
X63939Y97723D01*
Y97385D01*
X63854Y97300D01*
X63685D01*
X63600Y97385D01*
Y97723D01*
X64108Y97300D02*
Y97385D01*
X64192D01*
Y97300D01*
X64108D01*
X64531Y97723D02*
X64616Y97808D01*
X64785D01*
X64870Y97723D01*
Y97639D01*
X64785Y97554D01*
X64700D01*
X64785D01*
X64870Y97469D01*
Y97385D01*
X64785Y97300D01*
X64616D01*
X64531Y97385D01*
X61400Y91223D02*
X61485Y91308D01*
X61654D01*
X61739Y91223D01*
Y90885D01*
X61654Y90800D01*
X61485D01*
X61400Y90885D01*
Y91223D01*
X61908Y90800D02*
Y90885D01*
X61992D01*
Y90800D01*
X61908D01*
X62331Y91223D02*
X62416Y91308D01*
X62585D01*
X62670Y91223D01*
Y91139D01*
X62585Y91054D01*
X62500D01*
X62585D01*
X62670Y90969D01*
Y90885D01*
X62585Y90800D01*
X62416D01*
X62331Y90885D01*
X61400Y97723D02*
X61485Y97808D01*
X61654D01*
X61739Y97723D01*
Y97385D01*
X61654Y97300D01*
X61485D01*
X61400Y97385D01*
Y97723D01*
X61908Y97300D02*
Y97385D01*
X61992D01*
Y97300D01*
X61908D01*
X62331Y97723D02*
X62416Y97808D01*
X62585D01*
X62670Y97723D01*
Y97639D01*
X62585Y97554D01*
X62500D01*
X62585D01*
X62670Y97469D01*
Y97385D01*
X62585Y97300D01*
X62416D01*
X62331Y97385D01*
X39050Y64223D02*
X39135Y64308D01*
X39304D01*
X39389Y64223D01*
Y63885D01*
X39304Y63800D01*
X39135D01*
X39050Y63885D01*
Y64223D01*
X39558Y63800D02*
Y63885D01*
X39642D01*
Y63800D01*
X39558D01*
X39981Y64223D02*
X40066Y64308D01*
X40235D01*
X40320Y64223D01*
Y64139D01*
X40235Y64054D01*
X40150D01*
X40235D01*
X40320Y63969D01*
Y63885D01*
X40235Y63800D01*
X40066D01*
X39981Y63885D01*
X45550Y64223D02*
X45635Y64308D01*
X45804D01*
X45889Y64223D01*
Y63885D01*
X45804Y63800D01*
X45635D01*
X45550Y63885D01*
Y64223D01*
X46058Y63800D02*
Y63885D01*
X46142D01*
Y63800D01*
X46058D01*
X46481Y64223D02*
X46566Y64308D01*
X46735D01*
X46820Y64223D01*
Y64139D01*
X46735Y64054D01*
X46650D01*
X46735D01*
X46820Y63969D01*
Y63885D01*
X46735Y63800D01*
X46566D01*
X46481Y63885D01*
X39050Y66423D02*
X39135Y66508D01*
X39304D01*
X39389Y66423D01*
Y66085D01*
X39304Y66000D01*
X39135D01*
X39050Y66085D01*
Y66423D01*
X39558Y66000D02*
Y66085D01*
X39642D01*
Y66000D01*
X39558D01*
X39981Y66423D02*
X40066Y66508D01*
X40235D01*
X40320Y66423D01*
Y66339D01*
X40235Y66254D01*
X40150D01*
X40235D01*
X40320Y66169D01*
Y66085D01*
X40235Y66000D01*
X40066D01*
X39981Y66085D01*
X45550Y66423D02*
X45635Y66508D01*
X45804D01*
X45889Y66423D01*
Y66085D01*
X45804Y66000D01*
X45635D01*
X45550Y66085D01*
Y66423D01*
X46058Y66000D02*
Y66085D01*
X46142D01*
Y66000D01*
X46058D01*
X46481Y66423D02*
X46566Y66508D01*
X46735D01*
X46820Y66423D01*
Y66339D01*
X46735Y66254D01*
X46650D01*
X46735D01*
X46820Y66169D01*
Y66085D01*
X46735Y66000D01*
X46566D01*
X46481Y66085D01*
X39050Y70623D02*
X39135Y70708D01*
X39304D01*
X39389Y70623D01*
Y70285D01*
X39304Y70200D01*
X39135D01*
X39050Y70285D01*
Y70623D01*
X39558Y70200D02*
Y70285D01*
X39642D01*
Y70200D01*
X39558D01*
X39981Y70623D02*
X40066Y70708D01*
X40235D01*
X40320Y70623D01*
Y70539D01*
X40235Y70454D01*
X40150D01*
X40235D01*
X40320Y70369D01*
Y70285D01*
X40235Y70200D01*
X40066D01*
X39981Y70285D01*
X45550Y70623D02*
X45635Y70708D01*
X45804D01*
X45889Y70623D01*
Y70285D01*
X45804Y70200D01*
X45635D01*
X45550Y70285D01*
Y70623D01*
X46058Y70200D02*
Y70285D01*
X46142D01*
Y70200D01*
X46058D01*
X46481Y70623D02*
X46566Y70708D01*
X46735D01*
X46820Y70623D01*
Y70539D01*
X46735Y70454D01*
X46650D01*
X46735D01*
X46820Y70369D01*
Y70285D01*
X46735Y70200D01*
X46566D01*
X46481Y70285D01*
X39050Y72823D02*
X39135Y72908D01*
X39304D01*
X39389Y72823D01*
Y72485D01*
X39304Y72400D01*
X39135D01*
X39050Y72485D01*
Y72823D01*
X39558Y72400D02*
Y72485D01*
X39642D01*
Y72400D01*
X39558D01*
X39981Y72823D02*
X40066Y72908D01*
X40235D01*
X40320Y72823D01*
Y72739D01*
X40235Y72654D01*
X40150D01*
X40235D01*
X40320Y72569D01*
Y72485D01*
X40235Y72400D01*
X40066D01*
X39981Y72485D01*
X45550Y72823D02*
X45635Y72908D01*
X45804D01*
X45889Y72823D01*
Y72485D01*
X45804Y72400D01*
X45635D01*
X45550Y72485D01*
Y72823D01*
X46058Y72400D02*
Y72485D01*
X46142D01*
Y72400D01*
X46058D01*
X46481Y72823D02*
X46566Y72908D01*
X46735D01*
X46820Y72823D01*
Y72739D01*
X46735Y72654D01*
X46650D01*
X46735D01*
X46820Y72569D01*
Y72485D01*
X46735Y72400D01*
X46566D01*
X46481Y72485D01*
X43750Y63123D02*
X43835Y63208D01*
X44004D01*
X44089Y63123D01*
Y62785D01*
X44004Y62700D01*
X43835D01*
X43750Y62785D01*
Y63123D01*
X44258Y62700D02*
Y62785D01*
X44342D01*
Y62700D01*
X44258D01*
X44681Y63123D02*
X44766Y63208D01*
X44935D01*
X45020Y63123D01*
Y63039D01*
X44935Y62954D01*
X44850D01*
X44935D01*
X45020Y62869D01*
Y62785D01*
X44935Y62700D01*
X44766D01*
X44681Y62785D01*
X43750Y73923D02*
X43835Y74008D01*
X44004D01*
X44089Y73923D01*
Y73585D01*
X44004Y73500D01*
X43835D01*
X43750Y73585D01*
Y73923D01*
X44258Y73500D02*
Y73585D01*
X44342D01*
Y73500D01*
X44258D01*
X44681Y73923D02*
X44766Y74008D01*
X44935D01*
X45020Y73923D01*
Y73839D01*
X44935Y73754D01*
X44850D01*
X44935D01*
X45020Y73669D01*
Y73585D01*
X44935Y73500D01*
X44766D01*
X44681Y73585D01*
X40950Y63123D02*
X41035Y63208D01*
X41204D01*
X41289Y63123D01*
Y62785D01*
X41204Y62700D01*
X41035D01*
X40950Y62785D01*
Y63123D01*
X41458Y62700D02*
Y62785D01*
X41542D01*
Y62700D01*
X41458D01*
X41881Y63123D02*
X41966Y63208D01*
X42135D01*
X42220Y63123D01*
Y63039D01*
X42135Y62954D01*
X42050D01*
X42135D01*
X42220Y62869D01*
Y62785D01*
X42135Y62700D01*
X41966D01*
X41881Y62785D01*
X40950Y73923D02*
X41035Y74008D01*
X41204D01*
X41289Y73923D01*
Y73585D01*
X41204Y73500D01*
X41035D01*
X40950Y73585D01*
Y73923D01*
X41458Y73500D02*
Y73585D01*
X41542D01*
Y73500D01*
X41458D01*
X41881Y73923D02*
X41966Y74008D01*
X42135D01*
X42220Y73923D01*
Y73839D01*
X42135Y73754D01*
X42050D01*
X42135D01*
X42220Y73669D01*
Y73585D01*
X42135Y73500D01*
X41966D01*
X41881Y73585D01*
X96500Y75623D02*
X96585Y75708D01*
X96754D01*
X96839Y75623D01*
Y75285D01*
X96754Y75200D01*
X96585D01*
X96500Y75285D01*
Y75623D01*
X97008Y75200D02*
Y75285D01*
X97092D01*
Y75200D01*
X97008D01*
X97431Y75623D02*
X97516Y75708D01*
X97685D01*
X97770Y75623D01*
Y75539D01*
X97685Y75454D01*
X97600D01*
X97685D01*
X97770Y75369D01*
Y75285D01*
X97685Y75200D01*
X97516D01*
X97431Y75285D01*
X105700Y75623D02*
X105785Y75708D01*
X105954D01*
X106039Y75623D01*
Y75285D01*
X105954Y75200D01*
X105785D01*
X105700Y75285D01*
Y75623D01*
X106208Y75200D02*
Y75285D01*
X106292D01*
Y75200D01*
X106208D01*
X106631Y75623D02*
X106716Y75708D01*
X106885D01*
X106970Y75623D01*
Y75539D01*
X106885Y75454D01*
X106800D01*
X106885D01*
X106970Y75369D01*
Y75285D01*
X106885Y75200D01*
X106716D01*
X106631Y75285D01*
X96250Y77823D02*
X96335Y77908D01*
X96504D01*
X96589Y77823D01*
Y77485D01*
X96504Y77400D01*
X96335D01*
X96250Y77485D01*
Y77823D01*
X96758Y77400D02*
Y77485D01*
X96842D01*
Y77400D01*
X96758D01*
X97181Y77823D02*
X97266Y77908D01*
X97435D01*
X97520Y77823D01*
Y77739D01*
X97435Y77654D01*
X97350D01*
X97435D01*
X97520Y77569D01*
Y77485D01*
X97435Y77400D01*
X97266D01*
X97181Y77485D01*
X105700Y77823D02*
X105785Y77908D01*
X105954D01*
X106039Y77823D01*
Y77485D01*
X105954Y77400D01*
X105785D01*
X105700Y77485D01*
Y77823D01*
X106208Y77400D02*
Y77485D01*
X106292D01*
Y77400D01*
X106208D01*
X106631Y77823D02*
X106716Y77908D01*
X106885D01*
X106970Y77823D01*
Y77739D01*
X106885Y77654D01*
X106800D01*
X106885D01*
X106970Y77569D01*
Y77485D01*
X106885Y77400D01*
X106716D01*
X106631Y77485D01*
X103900Y74523D02*
X103985Y74608D01*
X104154D01*
X104239Y74523D01*
Y74185D01*
X104154Y74100D01*
X103985D01*
X103900Y74185D01*
Y74523D01*
X104408Y74100D02*
Y74185D01*
X104492D01*
Y74100D01*
X104408D01*
X104831Y74523D02*
X104916Y74608D01*
X105085D01*
X105170Y74523D01*
Y74439D01*
X105085Y74354D01*
X105000D01*
X105085D01*
X105170Y74269D01*
Y74185D01*
X105085Y74100D01*
X104916D01*
X104831Y74185D01*
X103900Y85323D02*
X103985Y85408D01*
X104154D01*
X104239Y85323D01*
Y84985D01*
X104154Y84900D01*
X103985D01*
X103900Y84985D01*
Y85323D01*
X104408Y84900D02*
Y84985D01*
X104492D01*
Y84900D01*
X104408D01*
X104831Y85323D02*
X104916Y85408D01*
X105085D01*
X105170Y85323D01*
Y85239D01*
X105085Y85154D01*
X105000D01*
X105085D01*
X105170Y85069D01*
Y84985D01*
X105085Y84900D01*
X104916D01*
X104831Y84985D01*
X101100Y73923D02*
X101185Y74008D01*
X101354D01*
X101439Y73923D01*
Y73585D01*
X101354Y73500D01*
X101185D01*
X101100Y73585D01*
Y73923D01*
X101608Y73500D02*
Y73585D01*
X101692D01*
Y73500D01*
X101608D01*
X102031Y73923D02*
X102116Y74008D01*
X102285D01*
X102370Y73923D01*
Y73839D01*
X102285Y73754D01*
X102200D01*
X102285D01*
X102370Y73669D01*
Y73585D01*
X102285Y73500D01*
X102116D01*
X102031Y73585D01*
X101100Y85323D02*
X101185Y85408D01*
X101354D01*
X101439Y85323D01*
Y84985D01*
X101354Y84900D01*
X101185D01*
X101100Y84985D01*
Y85323D01*
X101608Y84900D02*
Y84985D01*
X101692D01*
Y84900D01*
X101608D01*
X102031Y85323D02*
X102116Y85408D01*
X102285D01*
X102370Y85323D01*
Y85239D01*
X102285Y85154D01*
X102200D01*
X102285D01*
X102370Y85069D01*
Y84985D01*
X102285Y84900D01*
X102116D01*
X102031Y84985D01*
X93400Y98523D02*
X93485Y98608D01*
X93654D01*
X93739Y98523D01*
Y98185D01*
X93654Y98100D01*
X93485D01*
X93400Y98185D01*
Y98523D01*
X93908Y98100D02*
Y98185D01*
X93992D01*
Y98100D01*
X93908D01*
X94331Y98523D02*
X94416Y98608D01*
X94585D01*
X94670Y98523D01*
Y98439D01*
X94585Y98354D01*
X94500D01*
X94585D01*
X94670Y98269D01*
Y98185D01*
X94585Y98100D01*
X94416D01*
X94331Y98185D01*
X99900Y98523D02*
X99985Y98608D01*
X100154D01*
X100239Y98523D01*
Y98185D01*
X100154Y98100D01*
X99985D01*
X99900Y98185D01*
Y98523D01*
X100408Y98100D02*
Y98185D01*
X100492D01*
Y98100D01*
X100408D01*
X100831Y98523D02*
X100916Y98608D01*
X101085D01*
X101170Y98523D01*
Y98439D01*
X101085Y98354D01*
X101000D01*
X101085D01*
X101170Y98269D01*
Y98185D01*
X101085Y98100D01*
X100916D01*
X100831Y98185D01*
X93400Y102123D02*
X93485Y102208D01*
X93654D01*
X93739Y102123D01*
Y101785D01*
X93654Y101700D01*
X93485D01*
X93400Y101785D01*
Y102123D01*
X93908Y101700D02*
Y101785D01*
X93992D01*
Y101700D01*
X93908D01*
X94331Y102123D02*
X94416Y102208D01*
X94585D01*
X94670Y102123D01*
Y102039D01*
X94585Y101954D01*
X94500D01*
X94585D01*
X94670Y101869D01*
Y101785D01*
X94585Y101700D01*
X94416D01*
X94331Y101785D01*
X99900Y102123D02*
X99985Y102208D01*
X100154D01*
X100239Y102123D01*
Y101785D01*
X100154Y101700D01*
X99985D01*
X99900Y101785D01*
Y102123D01*
X100408Y101700D02*
Y101785D01*
X100492D01*
Y101700D01*
X100408D01*
X100831Y102123D02*
X100916Y102208D01*
X101085D01*
X101170Y102123D01*
Y102039D01*
X101085Y101954D01*
X101000D01*
X101085D01*
X101170Y101869D01*
Y101785D01*
X101085Y101700D01*
X100916D01*
X100831Y101785D01*
X98500Y97423D02*
X98585Y97508D01*
X98754D01*
X98839Y97423D01*
Y97085D01*
X98754Y97000D01*
X98585D01*
X98500Y97085D01*
Y97423D01*
X99008Y97000D02*
Y97085D01*
X99092D01*
Y97000D01*
X99008D01*
X99431Y97423D02*
X99516Y97508D01*
X99685D01*
X99770Y97423D01*
Y97339D01*
X99685Y97254D01*
X99600D01*
X99685D01*
X99770Y97169D01*
Y97085D01*
X99685Y97000D01*
X99516D01*
X99431Y97085D01*
X94900Y97423D02*
X94985Y97508D01*
X95154D01*
X95239Y97423D01*
Y97085D01*
X95154Y97000D01*
X94985D01*
X94900Y97085D01*
Y97423D01*
X95408Y97000D02*
Y97085D01*
X95492D01*
Y97000D01*
X95408D01*
X95831Y97423D02*
X95916Y97508D01*
X96085D01*
X96170Y97423D01*
Y97339D01*
X96085Y97254D01*
X96000D01*
X96085D01*
X96170Y97169D01*
Y97085D01*
X96085Y97000D01*
X95916D01*
X95831Y97085D01*
X98500Y103223D02*
X98585Y103308D01*
X98754D01*
X98839Y103223D01*
Y102885D01*
X98754Y102800D01*
X98585D01*
X98500Y102885D01*
Y103223D01*
X99008Y102800D02*
Y102885D01*
X99092D01*
Y102800D01*
X99008D01*
X99431Y103223D02*
X99516Y103308D01*
X99685D01*
X99770Y103223D01*
Y103139D01*
X99685Y103054D01*
X99600D01*
X99685D01*
X99770Y102969D01*
Y102885D01*
X99685Y102800D01*
X99516D01*
X99431Y102885D01*
X94900Y103223D02*
X94985Y103308D01*
X95154D01*
X95239Y103223D01*
Y102885D01*
X95154Y102800D01*
X94985D01*
X94900Y102885D01*
Y103223D01*
X95408Y102800D02*
Y102885D01*
X95492D01*
Y102800D01*
X95408D01*
X95831Y103223D02*
X95916Y103308D01*
X96085D01*
X96170Y103223D01*
Y103139D01*
X96085Y103054D01*
X96000D01*
X96085D01*
X96170Y102969D01*
Y102885D01*
X96085Y102800D01*
X95916D01*
X95831Y102885D01*
X106900Y45223D02*
X106985Y45308D01*
X107154D01*
X107239Y45223D01*
Y44885D01*
X107154Y44800D01*
X106985D01*
X106900Y44885D01*
Y45223D01*
X107408Y44800D02*
Y44885D01*
X107492D01*
Y44800D01*
X107408D01*
X107831Y45223D02*
X107916Y45308D01*
X108085D01*
X108170Y45223D01*
Y45139D01*
X108085Y45054D01*
X108000D01*
X108085D01*
X108170Y44969D01*
Y44885D01*
X108085Y44800D01*
X107916D01*
X107831Y44885D01*
X106900Y49973D02*
X106985Y50058D01*
X107154D01*
X107239Y49973D01*
Y49635D01*
X107154Y49550D01*
X106985D01*
X106900Y49635D01*
Y49973D01*
X107408Y49550D02*
Y49635D01*
X107492D01*
Y49550D01*
X107408D01*
X107831Y49973D02*
X107916Y50058D01*
X108085D01*
X108170Y49973D01*
Y49889D01*
X108085Y49804D01*
X108000D01*
X108085D01*
X108170Y49719D01*
Y49635D01*
X108085Y49550D01*
X107916D01*
X107831Y49635D01*
X103900Y48023D02*
X103985Y48108D01*
X104154D01*
X104239Y48023D01*
Y47685D01*
X104154Y47600D01*
X103985D01*
X103900Y47685D01*
Y48023D01*
X104408Y47600D02*
Y47685D01*
X104492D01*
Y47600D01*
X104408D01*
X104831Y48023D02*
X104916Y48108D01*
X105085D01*
X105170Y48023D01*
Y47939D01*
X105085Y47854D01*
X105000D01*
X105085D01*
X105170Y47769D01*
Y47685D01*
X105085Y47600D01*
X104916D01*
X104831Y47685D01*
X108450Y48023D02*
X108535Y48108D01*
X108704D01*
X108789Y48023D01*
Y47685D01*
X108704Y47600D01*
X108535D01*
X108450Y47685D01*
Y48023D01*
X108958Y47600D02*
Y47685D01*
X109042D01*
Y47600D01*
X108958D01*
X109381Y48023D02*
X109466Y48108D01*
X109635D01*
X109720Y48023D01*
Y47939D01*
X109635Y47854D01*
X109550D01*
X109635D01*
X109720Y47769D01*
Y47685D01*
X109635Y47600D01*
X109466D01*
X109381Y47685D01*
X105900Y44723D02*
X105985Y44808D01*
X106154D01*
X106239Y44723D01*
Y44385D01*
X106154Y44300D01*
X105985D01*
X105900Y44385D01*
Y44723D01*
X106408Y44300D02*
Y44385D01*
X106492D01*
Y44300D01*
X106408D01*
X106831Y44723D02*
X106916Y44808D01*
X107085D01*
X107170Y44723D01*
Y44639D01*
X107085Y44554D01*
X107000D01*
X107085D01*
X107170Y44469D01*
Y44385D01*
X107085Y44300D01*
X106916D01*
X106831Y44385D01*
X105900Y49973D02*
X105985Y50058D01*
X106154D01*
X106239Y49973D01*
Y49635D01*
X106154Y49550D01*
X105985D01*
X105900Y49635D01*
Y49973D01*
X106408Y49550D02*
Y49635D01*
X106492D01*
Y49550D01*
X106408D01*
X106831Y49973D02*
X106916Y50058D01*
X107085D01*
X107170Y49973D01*
Y49889D01*
X107085Y49804D01*
X107000D01*
X107085D01*
X107170Y49719D01*
Y49635D01*
X107085Y49550D01*
X106916D01*
X106831Y49635D01*
X103900Y43473D02*
X103985Y43558D01*
X104154D01*
X104239Y43473D01*
Y43135D01*
X104154Y43050D01*
X103985D01*
X103900Y43135D01*
Y43473D01*
X104408Y43050D02*
Y43135D01*
X104492D01*
Y43050D01*
X104408D01*
X104831Y43473D02*
X104916Y43558D01*
X105085D01*
X105170Y43473D01*
Y43389D01*
X105085Y43304D01*
X105000D01*
X105085D01*
X105170Y43219D01*
Y43135D01*
X105085Y43050D01*
X104916D01*
X104831Y43135D01*
X101450Y45223D02*
X101535Y45308D01*
X101704D01*
X101789Y45223D01*
Y44885D01*
X101704Y44800D01*
X101535D01*
X101450Y44885D01*
Y45223D01*
X101958Y44800D02*
Y44885D01*
X102042D01*
Y44800D01*
X101958D01*
X102381Y45223D02*
X102466Y45308D01*
X102635D01*
X102720Y45223D01*
Y45139D01*
X102635Y45054D01*
X102550D01*
X102635D01*
X102720Y44969D01*
Y44885D01*
X102635Y44800D01*
X102466D01*
X102381Y44885D01*
X102900Y43473D02*
X102985Y43558D01*
X103154D01*
X103239Y43473D01*
Y43135D01*
X103154Y43050D01*
X102985D01*
X102900Y43135D01*
Y43473D01*
X103408Y43050D02*
Y43135D01*
X103492D01*
Y43050D01*
X103408D01*
X103831Y43473D02*
X103916Y43558D01*
X104085D01*
X104170Y43473D01*
Y43389D01*
X104085Y43304D01*
X104000D01*
X104085D01*
X104170Y43219D01*
Y43135D01*
X104085Y43050D01*
X103916D01*
X103831Y43135D01*
X102900Y46973D02*
X102985Y47058D01*
X103154D01*
X103239Y46973D01*
Y46635D01*
X103154Y46550D01*
X102985D01*
X102900Y46635D01*
Y46973D01*
X103408Y46550D02*
Y46635D01*
X103492D01*
Y46550D01*
X103408D01*
X103831Y46973D02*
X103916Y47058D01*
X104085D01*
X104170Y46973D01*
Y46889D01*
X104085Y46804D01*
X104000D01*
X104085D01*
X104170Y46719D01*
Y46635D01*
X104085Y46550D01*
X103916D01*
X103831Y46635D01*
X103250Y86923D02*
X103335Y87008D01*
X103504D01*
X103589Y86923D01*
Y86585D01*
X103504Y86500D01*
X103335D01*
X103250Y86585D01*
Y86923D01*
X103758Y86500D02*
Y86585D01*
X103842D01*
Y86500D01*
X103758D01*
X104181Y86923D02*
X104266Y87008D01*
X104435D01*
X104520Y86923D01*
Y86839D01*
X104435Y86754D01*
X104350D01*
X104435D01*
X104520Y86669D01*
Y86585D01*
X104435Y86500D01*
X104266D01*
X104181Y86585D01*
X99250Y86923D02*
X99335Y87008D01*
X99504D01*
X99589Y86923D01*
Y86585D01*
X99504Y86500D01*
X99335D01*
X99250Y86585D01*
Y86923D01*
X99758Y86500D02*
Y86585D01*
X99842D01*
Y86500D01*
X99758D01*
X100181Y86923D02*
X100266Y87008D01*
X100435D01*
X100520Y86923D01*
Y86839D01*
X100435Y86754D01*
X100350D01*
X100435D01*
X100520Y86669D01*
Y86585D01*
X100435Y86500D01*
X100266D01*
X100181Y86585D01*
X104250Y87173D02*
X104335Y87258D01*
X104504D01*
X104589Y87173D01*
Y86835D01*
X104504Y86750D01*
X104335D01*
X104250Y86835D01*
Y87173D01*
X104758Y86750D02*
Y86835D01*
X104842D01*
Y86750D01*
X104758D01*
X105181Y87173D02*
X105266Y87258D01*
X105435D01*
X105520Y87173D01*
Y87089D01*
X105435Y87004D01*
X105350D01*
X105435D01*
X105520Y86919D01*
Y86835D01*
X105435Y86750D01*
X105266D01*
X105181Y86835D01*
X98250Y87173D02*
X98335Y87258D01*
X98504D01*
X98589Y87173D01*
Y86835D01*
X98504Y86750D01*
X98335D01*
X98250Y86835D01*
Y87173D01*
X98758Y86750D02*
Y86835D01*
X98842D01*
Y86750D01*
X98758D01*
X99181Y87173D02*
X99266Y87258D01*
X99435D01*
X99520Y87173D01*
Y87089D01*
X99435Y87004D01*
X99350D01*
X99435D01*
X99520Y86919D01*
Y86835D01*
X99435Y86750D01*
X99266D01*
X99181Y86835D01*
X98100Y72923D02*
X98185Y73008D01*
X98354D01*
X98439Y72923D01*
Y72585D01*
X98354Y72500D01*
X98185D01*
X98100Y72585D01*
Y72923D01*
X98608Y72500D02*
Y72585D01*
X98692D01*
Y72500D01*
X98608D01*
X99031Y72923D02*
X99116Y73008D01*
X99285D01*
X99370Y72923D01*
Y72839D01*
X99285Y72754D01*
X99200D01*
X99285D01*
X99370Y72669D01*
Y72585D01*
X99285Y72500D01*
X99116D01*
X99031Y72585D01*
X98100Y85923D02*
X98185Y86008D01*
X98354D01*
X98439Y85923D01*
Y85585D01*
X98354Y85500D01*
X98185D01*
X98100Y85585D01*
Y85923D01*
X98608Y85500D02*
Y85585D01*
X98692D01*
Y85500D01*
X98608D01*
X99031Y85923D02*
X99116Y86008D01*
X99285D01*
X99370Y85923D01*
Y85839D01*
X99285Y85754D01*
X99200D01*
X99285D01*
X99370Y85669D01*
Y85585D01*
X99285Y85500D01*
X99116D01*
X99031Y85585D01*
X96500Y77023D02*
X96585Y77108D01*
X96754D01*
X96839Y77023D01*
Y76685D01*
X96754Y76600D01*
X96585D01*
X96500Y76685D01*
Y77023D01*
X97008Y76600D02*
Y76685D01*
X97092D01*
Y76600D01*
X97008D01*
X97431Y77023D02*
X97516Y77108D01*
X97685D01*
X97770Y77023D01*
Y76939D01*
X97685Y76854D01*
X97600D01*
X97685D01*
X97770Y76769D01*
Y76685D01*
X97685Y76600D01*
X97516D01*
X97431Y76685D01*
X100500Y73023D02*
X100585Y73108D01*
X100754D01*
X100839Y73023D01*
Y72685D01*
X100754Y72600D01*
X100585D01*
X100500Y72685D01*
Y73023D01*
X101008Y72600D02*
Y72685D01*
X101092D01*
Y72600D01*
X101008D01*
X101431Y73023D02*
X101516Y73108D01*
X101685D01*
X101770Y73023D01*
Y72939D01*
X101685Y72854D01*
X101600D01*
X101685D01*
X101770Y72769D01*
Y72685D01*
X101685Y72600D01*
X101516D01*
X101431Y72685D01*
X109650Y90673D02*
X109735Y90758D01*
X109904D01*
X109989Y90673D01*
Y90335D01*
X109904Y90250D01*
X109735D01*
X109650Y90335D01*
Y90673D01*
X110158Y90250D02*
Y90335D01*
X110242D01*
Y90250D01*
X110158D01*
X110581Y90673D02*
X110666Y90758D01*
X110835D01*
X110920Y90673D01*
Y90589D01*
X110835Y90504D01*
X110750D01*
X110835D01*
X110920Y90419D01*
Y90335D01*
X110835Y90250D01*
X110666D01*
X110581Y90335D01*
X109650Y80923D02*
X109735Y81008D01*
X109904D01*
X109989Y80923D01*
Y80585D01*
X109904Y80500D01*
X109735D01*
X109650Y80585D01*
Y80923D01*
X110158Y80500D02*
Y80585D01*
X110242D01*
Y80500D01*
X110158D01*
X110581Y80923D02*
X110666Y81008D01*
X110835D01*
X110920Y80923D01*
Y80839D01*
X110835Y80754D01*
X110750D01*
X110835D01*
X110920Y80669D01*
Y80585D01*
X110835Y80500D01*
X110666D01*
X110581Y80585D01*
X110750Y90673D02*
X110835Y90758D01*
X111004D01*
X111089Y90673D01*
Y90335D01*
X111004Y90250D01*
X110835D01*
X110750Y90335D01*
Y90673D01*
X111258Y90250D02*
Y90335D01*
X111342D01*
Y90250D01*
X111258D01*
X111681Y90673D02*
X111766Y90758D01*
X111935D01*
X112020Y90673D01*
Y90589D01*
X111935Y90504D01*
X111850D01*
X111935D01*
X112020Y90419D01*
Y90335D01*
X111935Y90250D01*
X111766D01*
X111681Y90335D01*
X110750Y80923D02*
X110835Y81008D01*
X111004D01*
X111089Y80923D01*
Y80585D01*
X111004Y80500D01*
X110835D01*
X110750Y80585D01*
Y80923D01*
X111258Y80500D02*
Y80585D01*
X111342D01*
Y80500D01*
X111258D01*
X111681Y80923D02*
X111766Y81008D01*
X111935D01*
X112020Y80923D01*
Y80839D01*
X111935Y80754D01*
X111850D01*
X111935D01*
X112020Y80669D01*
Y80585D01*
X111935Y80500D01*
X111766D01*
X111681Y80585D01*
X110150Y89923D02*
X110235Y90008D01*
X110404D01*
X110489Y89923D01*
Y89585D01*
X110404Y89500D01*
X110235D01*
X110150Y89585D01*
Y89923D01*
X110658Y89500D02*
Y89585D01*
X110742D01*
Y89500D01*
X110658D01*
X111081Y89923D02*
X111166Y90008D01*
X111335D01*
X111420Y89923D01*
Y89839D01*
X111335Y89754D01*
X111250D01*
X111335D01*
X111420Y89669D01*
Y89585D01*
X111335Y89500D01*
X111166D01*
X111081Y89585D01*
X110150Y81673D02*
X110235Y81758D01*
X110404D01*
X110489Y81673D01*
Y81335D01*
X110404Y81250D01*
X110235D01*
X110150Y81335D01*
Y81673D01*
X110658Y81250D02*
Y81335D01*
X110742D01*
Y81250D01*
X110658D01*
X111081Y81673D02*
X111166Y81758D01*
X111335D01*
X111420Y81673D01*
Y81589D01*
X111335Y81504D01*
X111250D01*
X111335D01*
X111420Y81419D01*
Y81335D01*
X111335Y81250D01*
X111166D01*
X111081Y81335D01*
X106650Y90673D02*
X106735Y90758D01*
X106904D01*
X106989Y90673D01*
Y90335D01*
X106904Y90250D01*
X106735D01*
X106650Y90335D01*
Y90673D01*
X107158Y90250D02*
Y90335D01*
X107242D01*
Y90250D01*
X107158D01*
X107581Y90673D02*
X107666Y90758D01*
X107835D01*
X107920Y90673D01*
Y90589D01*
X107835Y90504D01*
X107750D01*
X107835D01*
X107920Y90419D01*
Y90335D01*
X107835Y90250D01*
X107666D01*
X107581Y90335D01*
X106650Y80923D02*
X106735Y81008D01*
X106904D01*
X106989Y80923D01*
Y80585D01*
X106904Y80500D01*
X106735D01*
X106650Y80585D01*
Y80923D01*
X107158Y80500D02*
Y80585D01*
X107242D01*
Y80500D01*
X107158D01*
X107581Y80923D02*
X107666Y81008D01*
X107835D01*
X107920Y80923D01*
Y80839D01*
X107835Y80754D01*
X107750D01*
X107835D01*
X107920Y80669D01*
Y80585D01*
X107835Y80500D01*
X107666D01*
X107581Y80585D01*
X107150Y89923D02*
X107235Y90008D01*
X107404D01*
X107489Y89923D01*
Y89585D01*
X107404Y89500D01*
X107235D01*
X107150Y89585D01*
Y89923D01*
X107658Y89500D02*
Y89585D01*
X107742D01*
Y89500D01*
X107658D01*
X108081Y89923D02*
X108166Y90008D01*
X108335D01*
X108420Y89923D01*
Y89839D01*
X108335Y89754D01*
X108250D01*
X108335D01*
X108420Y89669D01*
Y89585D01*
X108335Y89500D01*
X108166D01*
X108081Y89585D01*
X107150Y81673D02*
X107235Y81758D01*
X107404D01*
X107489Y81673D01*
Y81335D01*
X107404Y81250D01*
X107235D01*
X107150Y81335D01*
Y81673D01*
X107658Y81250D02*
Y81335D01*
X107742D01*
Y81250D01*
X107658D01*
X108081Y81673D02*
X108166Y81758D01*
X108335D01*
X108420Y81673D01*
Y81589D01*
X108335Y81504D01*
X108250D01*
X108335D01*
X108420Y81419D01*
Y81335D01*
X108335Y81250D01*
X108166D01*
X108081Y81335D01*
X106100Y89923D02*
X106185Y90008D01*
X106354D01*
X106439Y89923D01*
Y89585D01*
X106354Y89500D01*
X106185D01*
X106100Y89585D01*
Y89923D01*
X106608Y89500D02*
Y89585D01*
X106692D01*
Y89500D01*
X106608D01*
X107031Y89923D02*
X107116Y90008D01*
X107285D01*
X107370Y89923D01*
Y89839D01*
X107285Y89754D01*
X107200D01*
X107285D01*
X107370Y89669D01*
Y89585D01*
X107285Y89500D01*
X107116D01*
X107031Y89585D01*
X106100Y81673D02*
X106185Y81758D01*
X106354D01*
X106439Y81673D01*
Y81335D01*
X106354Y81250D01*
X106185D01*
X106100Y81335D01*
Y81673D01*
X106608Y81250D02*
Y81335D01*
X106692D01*
Y81250D01*
X106608D01*
X107031Y81673D02*
X107116Y81758D01*
X107285D01*
X107370Y81673D01*
Y81589D01*
X107285Y81504D01*
X107200D01*
X107285D01*
X107370Y81419D01*
Y81335D01*
X107285Y81250D01*
X107116D01*
X107031Y81335D01*
X96500Y83523D02*
X96585Y83608D01*
X96754D01*
X96839Y83523D01*
Y83185D01*
X96754Y83100D01*
X96585D01*
X96500Y83185D01*
Y83523D01*
X97008Y83100D02*
Y83185D01*
X97092D01*
Y83100D01*
X97008D01*
X97431Y83523D02*
X97516Y83608D01*
X97685D01*
X97770Y83523D01*
Y83439D01*
X97685Y83354D01*
X97600D01*
X97685D01*
X97770Y83269D01*
Y83185D01*
X97685Y83100D01*
X97516D01*
X97431Y83185D01*
X112500Y83523D02*
X112585Y83608D01*
X112754D01*
X112839Y83523D01*
Y83185D01*
X112754Y83100D01*
X112585D01*
X112500Y83185D01*
Y83523D01*
X113008Y83100D02*
Y83185D01*
X113092D01*
Y83100D01*
X113008D01*
X113431Y83523D02*
X113516Y83608D01*
X113685D01*
X113770Y83523D01*
Y83439D01*
X113685Y83354D01*
X113600D01*
X113685D01*
X113770Y83269D01*
Y83185D01*
X113685Y83100D01*
X113516D01*
X113431Y83185D01*
X104500Y86323D02*
X104585Y86408D01*
X104754D01*
X104839Y86323D01*
Y85985D01*
X104754Y85900D01*
X104585D01*
X104500Y85985D01*
Y86323D01*
X105008Y85900D02*
Y85985D01*
X105092D01*
Y85900D01*
X105008D01*
X105431Y86323D02*
X105516Y86408D01*
X105685D01*
X105770Y86323D01*
Y86239D01*
X105685Y86154D01*
X105600D01*
X105685D01*
X105770Y86069D01*
Y85985D01*
X105685Y85900D01*
X105516D01*
X105431Y85985D01*
X112500Y86323D02*
X112585Y86408D01*
X112754D01*
X112839Y86323D01*
Y85985D01*
X112754Y85900D01*
X112585D01*
X112500Y85985D01*
Y86323D01*
X113008Y85900D02*
Y85985D01*
X113092D01*
Y85900D01*
X113008D01*
X113431Y86323D02*
X113516Y86408D01*
X113685D01*
X113770Y86323D01*
Y86239D01*
X113685Y86154D01*
X113600D01*
X113685D01*
X113770Y86069D01*
Y85985D01*
X113685Y85900D01*
X113516D01*
X113431Y85985D01*
X108100Y90673D02*
X108185Y90758D01*
X108354D01*
X108439Y90673D01*
Y90335D01*
X108354Y90250D01*
X108185D01*
X108100Y90335D01*
Y90673D01*
X108608Y90250D02*
Y90335D01*
X108692D01*
Y90250D01*
X108608D01*
X109031Y90673D02*
X109116Y90758D01*
X109285D01*
X109370Y90673D01*
Y90589D01*
X109285Y90504D01*
X109200D01*
X109285D01*
X109370Y90419D01*
Y90335D01*
X109285Y90250D01*
X109116D01*
X109031Y90335D01*
X108100Y80923D02*
X108185Y81008D01*
X108354D01*
X108439Y80923D01*
Y80585D01*
X108354Y80500D01*
X108185D01*
X108100Y80585D01*
Y80923D01*
X108608Y80500D02*
Y80585D01*
X108692D01*
Y80500D01*
X108608D01*
X109031Y80923D02*
X109116Y81008D01*
X109285D01*
X109370Y80923D01*
Y80839D01*
X109285Y80754D01*
X109200D01*
X109285D01*
X109370Y80669D01*
Y80585D01*
X109285Y80500D01*
X109116D01*
X109031Y80585D01*
X109100Y89923D02*
X109185Y90008D01*
X109354D01*
X109439Y89923D01*
Y89585D01*
X109354Y89500D01*
X109185D01*
X109100Y89585D01*
Y89923D01*
X109608Y89500D02*
Y89585D01*
X109692D01*
Y89500D01*
X109608D01*
X110031Y89923D02*
X110116Y90008D01*
X110285D01*
X110370Y89923D01*
Y89839D01*
X110285Y89754D01*
X110200D01*
X110285D01*
X110370Y89669D01*
Y89585D01*
X110285Y89500D01*
X110116D01*
X110031Y89585D01*
X109100Y81673D02*
X109185Y81758D01*
X109354D01*
X109439Y81673D01*
Y81335D01*
X109354Y81250D01*
X109185D01*
X109100Y81335D01*
Y81673D01*
X109608Y81250D02*
Y81335D01*
X109692D01*
Y81250D01*
X109608D01*
X110031Y81673D02*
X110116Y81758D01*
X110285D01*
X110370Y81673D01*
Y81589D01*
X110285Y81504D01*
X110200D01*
X110285D01*
X110370Y81419D01*
Y81335D01*
X110285Y81250D01*
X110116D01*
X110031Y81335D01*
X71160Y114583D02*
X71245Y114668D01*
X71414D01*
X71499Y114583D01*
Y114245D01*
X71414Y114160D01*
X71245D01*
X71160Y114245D01*
Y114583D01*
X71668Y114160D02*
Y114245D01*
X71752D01*
Y114160D01*
X71668D01*
X72430Y114668D02*
X72091D01*
Y114414D01*
X72260Y114499D01*
X72345D01*
X72430Y114414D01*
Y114245D01*
X72345Y114160D01*
X72176D01*
X72091Y114245D01*
X71160Y118263D02*
X71245Y118348D01*
X71414D01*
X71499Y118263D01*
Y117925D01*
X71414Y117840D01*
X71245D01*
X71160Y117925D01*
Y118263D01*
X71668Y117840D02*
Y117925D01*
X71752D01*
Y117840D01*
X71668D01*
X72430Y118348D02*
X72091D01*
Y118094D01*
X72260Y118179D01*
X72345D01*
X72430Y118094D01*
Y117925D01*
X72345Y117840D01*
X72176D01*
X72091Y117925D01*
X74840Y114583D02*
X74925Y114668D01*
X75094D01*
X75179Y114583D01*
Y114245D01*
X75094Y114160D01*
X74925D01*
X74840Y114245D01*
Y114583D01*
X75348Y114160D02*
Y114245D01*
X75432D01*
Y114160D01*
X75348D01*
X76110Y114668D02*
X75771D01*
Y114414D01*
X75940Y114499D01*
X76025D01*
X76110Y114414D01*
Y114245D01*
X76025Y114160D01*
X75856D01*
X75771Y114245D01*
X74840Y118263D02*
X74925Y118348D01*
X75094D01*
X75179Y118263D01*
Y117925D01*
X75094Y117840D01*
X74925D01*
X74840Y117925D01*
Y118263D01*
X75348Y117840D02*
Y117925D01*
X75432D01*
Y117840D01*
X75348D01*
X76110Y118348D02*
X75771D01*
Y118094D01*
X75940Y118179D01*
X76025D01*
X76110Y118094D01*
Y117925D01*
X76025Y117840D01*
X75856D01*
X75771Y117925D01*
X73000Y113823D02*
X73085Y113908D01*
X73254D01*
X73339Y113823D01*
Y113485D01*
X73254Y113400D01*
X73085D01*
X73000Y113485D01*
Y113823D01*
X73508Y113400D02*
Y113485D01*
X73592D01*
Y113400D01*
X73508D01*
X74270Y113908D02*
X73931D01*
Y113654D01*
X74100Y113739D01*
X74185D01*
X74270Y113654D01*
Y113485D01*
X74185Y113400D01*
X74016D01*
X73931Y113485D01*
X70400Y116423D02*
X70485Y116508D01*
X70654D01*
X70739Y116423D01*
Y116085D01*
X70654Y116000D01*
X70485D01*
X70400Y116085D01*
Y116423D01*
X70908Y116000D02*
Y116085D01*
X70992D01*
Y116000D01*
X70908D01*
X71670Y116508D02*
X71331D01*
Y116254D01*
X71500Y116339D01*
X71585D01*
X71670Y116254D01*
Y116085D01*
X71585Y116000D01*
X71416D01*
X71331Y116085D01*
X73000Y119023D02*
X73085Y119108D01*
X73254D01*
X73339Y119023D01*
Y118685D01*
X73254Y118600D01*
X73085D01*
X73000Y118685D01*
Y119023D01*
X73508Y118600D02*
Y118685D01*
X73592D01*
Y118600D01*
X73508D01*
X74270Y119108D02*
X73931D01*
Y118854D01*
X74100Y118939D01*
X74185D01*
X74270Y118854D01*
Y118685D01*
X74185Y118600D01*
X74016D01*
X73931Y118685D01*
X75600Y116423D02*
X75685Y116508D01*
X75854D01*
X75939Y116423D01*
Y116085D01*
X75854Y116000D01*
X75685D01*
X75600Y116085D01*
Y116423D01*
X76108Y116000D02*
Y116085D01*
X76192D01*
Y116000D01*
X76108D01*
X76870Y116508D02*
X76531D01*
Y116254D01*
X76700Y116339D01*
X76785D01*
X76870Y116254D01*
Y116085D01*
X76785Y116000D01*
X76616D01*
X76531Y116085D01*
X73339Y116000D02*
X73000D01*
X73339Y116339D01*
Y116423D01*
X73254Y116508D01*
X73085D01*
X73000Y116423D01*
X73508Y116000D02*
Y116085D01*
X73592D01*
Y116000D01*
X73508D01*
X73931Y116508D02*
X74270D01*
Y116423D01*
X73931Y116085D01*
Y116000D01*
X98160Y48583D02*
X98245Y48668D01*
X98414D01*
X98499Y48583D01*
Y48245D01*
X98414Y48160D01*
X98245D01*
X98160Y48245D01*
Y48583D01*
X98668Y48160D02*
Y48245D01*
X98752D01*
Y48160D01*
X98668D01*
X99430Y48668D02*
X99091D01*
Y48414D01*
X99260Y48499D01*
X99345D01*
X99430Y48414D01*
Y48245D01*
X99345Y48160D01*
X99176D01*
X99091Y48245D01*
X101840Y48583D02*
X101925Y48668D01*
X102094D01*
X102179Y48583D01*
Y48245D01*
X102094Y48160D01*
X101925D01*
X101840Y48245D01*
Y48583D01*
X102348Y48160D02*
Y48245D01*
X102432D01*
Y48160D01*
X102348D01*
X103110Y48668D02*
X102771D01*
Y48414D01*
X102940Y48499D01*
X103025D01*
X103110Y48414D01*
Y48245D01*
X103025Y48160D01*
X102856D01*
X102771Y48245D01*
X101840Y52263D02*
X101925Y52348D01*
X102094D01*
X102179Y52263D01*
Y51925D01*
X102094Y51840D01*
X101925D01*
X101840Y51925D01*
Y52263D01*
X102348Y51840D02*
Y51925D01*
X102432D01*
Y51840D01*
X102348D01*
X103110Y52348D02*
X102771D01*
Y52094D01*
X102940Y52179D01*
X103025D01*
X103110Y52094D01*
Y51925D01*
X103025Y51840D01*
X102856D01*
X102771Y51925D01*
X100000Y47823D02*
X100085Y47908D01*
X100254D01*
X100339Y47823D01*
Y47485D01*
X100254Y47400D01*
X100085D01*
X100000Y47485D01*
Y47823D01*
X100508Y47400D02*
Y47485D01*
X100592D01*
Y47400D01*
X100508D01*
X101270Y47908D02*
X100931D01*
Y47654D01*
X101100Y47739D01*
X101185D01*
X101270Y47654D01*
Y47485D01*
X101185Y47400D01*
X101016D01*
X100931Y47485D01*
X97400Y50423D02*
X97485Y50508D01*
X97654D01*
X97739Y50423D01*
Y50085D01*
X97654Y50000D01*
X97485D01*
X97400Y50085D01*
Y50423D01*
X97908Y50000D02*
Y50085D01*
X97992D01*
Y50000D01*
X97908D01*
X98670Y50508D02*
X98331D01*
Y50254D01*
X98500Y50339D01*
X98585D01*
X98670Y50254D01*
Y50085D01*
X98585Y50000D01*
X98416D01*
X98331Y50085D01*
X100000Y53023D02*
X100085Y53108D01*
X100254D01*
X100339Y53023D01*
Y52685D01*
X100254Y52600D01*
X100085D01*
X100000Y52685D01*
Y53023D01*
X100508Y52600D02*
Y52685D01*
X100592D01*
Y52600D01*
X100508D01*
X101270Y53108D02*
X100931D01*
Y52854D01*
X101100Y52939D01*
X101185D01*
X101270Y52854D01*
Y52685D01*
X101185Y52600D01*
X101016D01*
X100931Y52685D01*
X102600Y50423D02*
X102685Y50508D01*
X102854D01*
X102939Y50423D01*
Y50085D01*
X102854Y50000D01*
X102685D01*
X102600Y50085D01*
Y50423D01*
X103108Y50000D02*
Y50085D01*
X103192D01*
Y50000D01*
X103108D01*
X103870Y50508D02*
X103531D01*
Y50254D01*
X103700Y50339D01*
X103785D01*
X103870Y50254D01*
Y50085D01*
X103785Y50000D01*
X103616D01*
X103531Y50085D01*
X100339Y50000D02*
X100000D01*
X100339Y50339D01*
Y50423D01*
X100254Y50508D01*
X100085D01*
X100000Y50423D01*
X100508Y50000D02*
Y50085D01*
X100592D01*
Y50000D01*
X100508D01*
X100931Y50508D02*
X101270D01*
Y50423D01*
X100931Y50085D01*
Y50000D01*
X97568Y52432D02*
X97737D01*
X97652D01*
Y52940D01*
X97568Y52856D01*
X97991Y52432D02*
Y52517D01*
X98075D01*
Y52432D01*
X97991D01*
X98414Y52856D02*
X98499Y52940D01*
X98668D01*
X98753Y52856D01*
Y52771D01*
X98668Y52686D01*
X98583D01*
X98668D01*
X98753Y52602D01*
Y52517D01*
X98668Y52432D01*
X98499D01*
X98414Y52517D01*
X98160Y90583D02*
X98245Y90668D01*
X98414D01*
X98499Y90583D01*
Y90245D01*
X98414Y90160D01*
X98245D01*
X98160Y90245D01*
Y90583D01*
X98668Y90160D02*
Y90245D01*
X98752D01*
Y90160D01*
X98668D01*
X99430Y90668D02*
X99091D01*
Y90414D01*
X99260Y90499D01*
X99345D01*
X99430Y90414D01*
Y90245D01*
X99345Y90160D01*
X99176D01*
X99091Y90245D01*
X98160Y94263D02*
X98245Y94348D01*
X98414D01*
X98499Y94263D01*
Y93925D01*
X98414Y93840D01*
X98245D01*
X98160Y93925D01*
Y94263D01*
X98668Y93840D02*
Y93925D01*
X98752D01*
Y93840D01*
X98668D01*
X99430Y94348D02*
X99091D01*
Y94094D01*
X99260Y94179D01*
X99345D01*
X99430Y94094D01*
Y93925D01*
X99345Y93840D01*
X99176D01*
X99091Y93925D01*
X101840Y90583D02*
X101925Y90668D01*
X102094D01*
X102179Y90583D01*
Y90245D01*
X102094Y90160D01*
X101925D01*
X101840Y90245D01*
Y90583D01*
X102348Y90160D02*
Y90245D01*
X102432D01*
Y90160D01*
X102348D01*
X103110Y90668D02*
X102771D01*
Y90414D01*
X102940Y90499D01*
X103025D01*
X103110Y90414D01*
Y90245D01*
X103025Y90160D01*
X102856D01*
X102771Y90245D01*
X101840Y94263D02*
X101925Y94348D01*
X102094D01*
X102179Y94263D01*
Y93925D01*
X102094Y93840D01*
X101925D01*
X101840Y93925D01*
Y94263D01*
X102348Y93840D02*
Y93925D01*
X102432D01*
Y93840D01*
X102348D01*
X103110Y94348D02*
X102771D01*
Y94094D01*
X102940Y94179D01*
X103025D01*
X103110Y94094D01*
Y93925D01*
X103025Y93840D01*
X102856D01*
X102771Y93925D01*
X100000Y89823D02*
X100085Y89908D01*
X100254D01*
X100339Y89823D01*
Y89485D01*
X100254Y89400D01*
X100085D01*
X100000Y89485D01*
Y89823D01*
X100508Y89400D02*
Y89485D01*
X100592D01*
Y89400D01*
X100508D01*
X101270Y89908D02*
X100931D01*
Y89654D01*
X101100Y89739D01*
X101185D01*
X101270Y89654D01*
Y89485D01*
X101185Y89400D01*
X101016D01*
X100931Y89485D01*
X97400Y92423D02*
X97485Y92508D01*
X97654D01*
X97739Y92423D01*
Y92085D01*
X97654Y92000D01*
X97485D01*
X97400Y92085D01*
Y92423D01*
X97908Y92000D02*
Y92085D01*
X97992D01*
Y92000D01*
X97908D01*
X98670Y92508D02*
X98331D01*
Y92254D01*
X98500Y92339D01*
X98585D01*
X98670Y92254D01*
Y92085D01*
X98585Y92000D01*
X98416D01*
X98331Y92085D01*
X100000Y95023D02*
X100085Y95108D01*
X100254D01*
X100339Y95023D01*
Y94685D01*
X100254Y94600D01*
X100085D01*
X100000Y94685D01*
Y95023D01*
X100508Y94600D02*
Y94685D01*
X100592D01*
Y94600D01*
X100508D01*
X101270Y95108D02*
X100931D01*
Y94854D01*
X101100Y94939D01*
X101185D01*
X101270Y94854D01*
Y94685D01*
X101185Y94600D01*
X101016D01*
X100931Y94685D01*
X102600Y92423D02*
X102685Y92508D01*
X102854D01*
X102939Y92423D01*
Y92085D01*
X102854Y92000D01*
X102685D01*
X102600Y92085D01*
Y92423D01*
X103108Y92000D02*
Y92085D01*
X103192D01*
Y92000D01*
X103108D01*
X103870Y92508D02*
X103531D01*
Y92254D01*
X103700Y92339D01*
X103785D01*
X103870Y92254D01*
Y92085D01*
X103785Y92000D01*
X103616D01*
X103531Y92085D01*
X100339Y92000D02*
X100000D01*
X100339Y92339D01*
Y92423D01*
X100254Y92508D01*
X100085D01*
X100000Y92423D01*
X100508Y92000D02*
Y92085D01*
X100592D01*
Y92000D01*
X100508D01*
X100931Y92508D02*
X101270D01*
Y92423D01*
X100931Y92085D01*
Y92000D01*
X40160Y48583D02*
X40245Y48668D01*
X40414D01*
X40499Y48583D01*
Y48245D01*
X40414Y48160D01*
X40245D01*
X40160Y48245D01*
Y48583D01*
X40668Y48160D02*
Y48245D01*
X40752D01*
Y48160D01*
X40668D01*
X41430Y48668D02*
X41091D01*
Y48414D01*
X41260Y48499D01*
X41345D01*
X41430Y48414D01*
Y48245D01*
X41345Y48160D01*
X41176D01*
X41091Y48245D01*
X40160Y52263D02*
X40245Y52348D01*
X40414D01*
X40499Y52263D01*
Y51925D01*
X40414Y51840D01*
X40245D01*
X40160Y51925D01*
Y52263D01*
X40668Y51840D02*
Y51925D01*
X40752D01*
Y51840D01*
X40668D01*
X41430Y52348D02*
X41091D01*
Y52094D01*
X41260Y52179D01*
X41345D01*
X41430Y52094D01*
Y51925D01*
X41345Y51840D01*
X41176D01*
X41091Y51925D01*
X43840Y48583D02*
X43925Y48668D01*
X44094D01*
X44179Y48583D01*
Y48245D01*
X44094Y48160D01*
X43925D01*
X43840Y48245D01*
Y48583D01*
X44348Y48160D02*
Y48245D01*
X44432D01*
Y48160D01*
X44348D01*
X45110Y48668D02*
X44771D01*
Y48414D01*
X44940Y48499D01*
X45025D01*
X45110Y48414D01*
Y48245D01*
X45025Y48160D01*
X44856D01*
X44771Y48245D01*
X43840Y52263D02*
X43925Y52348D01*
X44094D01*
X44179Y52263D01*
Y51925D01*
X44094Y51840D01*
X43925D01*
X43840Y51925D01*
Y52263D01*
X44348Y51840D02*
Y51925D01*
X44432D01*
Y51840D01*
X44348D01*
X45110Y52348D02*
X44771D01*
Y52094D01*
X44940Y52179D01*
X45025D01*
X45110Y52094D01*
Y51925D01*
X45025Y51840D01*
X44856D01*
X44771Y51925D01*
X42000Y47823D02*
X42085Y47908D01*
X42254D01*
X42339Y47823D01*
Y47485D01*
X42254Y47400D01*
X42085D01*
X42000Y47485D01*
Y47823D01*
X42508Y47400D02*
Y47485D01*
X42592D01*
Y47400D01*
X42508D01*
X43270Y47908D02*
X42931D01*
Y47654D01*
X43100Y47739D01*
X43185D01*
X43270Y47654D01*
Y47485D01*
X43185Y47400D01*
X43016D01*
X42931Y47485D01*
X39400Y50423D02*
X39485Y50508D01*
X39654D01*
X39739Y50423D01*
Y50085D01*
X39654Y50000D01*
X39485D01*
X39400Y50085D01*
Y50423D01*
X39908Y50000D02*
Y50085D01*
X39992D01*
Y50000D01*
X39908D01*
X40670Y50508D02*
X40331D01*
Y50254D01*
X40500Y50339D01*
X40585D01*
X40670Y50254D01*
Y50085D01*
X40585Y50000D01*
X40416D01*
X40331Y50085D01*
X42000Y53023D02*
X42085Y53108D01*
X42254D01*
X42339Y53023D01*
Y52685D01*
X42254Y52600D01*
X42085D01*
X42000Y52685D01*
Y53023D01*
X42508Y52600D02*
Y52685D01*
X42592D01*
Y52600D01*
X42508D01*
X43270Y53108D02*
X42931D01*
Y52854D01*
X43100Y52939D01*
X43185D01*
X43270Y52854D01*
Y52685D01*
X43185Y52600D01*
X43016D01*
X42931Y52685D01*
X44600Y50423D02*
X44685Y50508D01*
X44854D01*
X44939Y50423D01*
Y50085D01*
X44854Y50000D01*
X44685D01*
X44600Y50085D01*
Y50423D01*
X45108Y50000D02*
Y50085D01*
X45192D01*
Y50000D01*
X45108D01*
X45870Y50508D02*
X45531D01*
Y50254D01*
X45700Y50339D01*
X45785D01*
X45870Y50254D01*
Y50085D01*
X45785Y50000D01*
X45616D01*
X45531Y50085D01*
X42339Y50000D02*
X42000D01*
X42339Y50339D01*
Y50423D01*
X42254Y50508D01*
X42085D01*
X42000Y50423D01*
X42508Y50000D02*
Y50085D01*
X42592D01*
Y50000D01*
X42508D01*
X42931Y50508D02*
X43270D01*
Y50423D01*
X42931Y50085D01*
Y50000D01*
X40160Y90583D02*
X40245Y90668D01*
X40414D01*
X40499Y90583D01*
Y90245D01*
X40414Y90160D01*
X40245D01*
X40160Y90245D01*
Y90583D01*
X40668Y90160D02*
Y90245D01*
X40752D01*
Y90160D01*
X40668D01*
X41430Y90668D02*
X41091D01*
Y90414D01*
X41260Y90499D01*
X41345D01*
X41430Y90414D01*
Y90245D01*
X41345Y90160D01*
X41176D01*
X41091Y90245D01*
X40160Y94263D02*
X40245Y94348D01*
X40414D01*
X40499Y94263D01*
Y93925D01*
X40414Y93840D01*
X40245D01*
X40160Y93925D01*
Y94263D01*
X40668Y93840D02*
Y93925D01*
X40752D01*
Y93840D01*
X40668D01*
X41430Y94348D02*
X41091D01*
Y94094D01*
X41260Y94179D01*
X41345D01*
X41430Y94094D01*
Y93925D01*
X41345Y93840D01*
X41176D01*
X41091Y93925D01*
X43840Y94263D02*
X43925Y94348D01*
X44094D01*
X44179Y94263D01*
Y93925D01*
X44094Y93840D01*
X43925D01*
X43840Y93925D01*
Y94263D01*
X44348Y93840D02*
Y93925D01*
X44432D01*
Y93840D01*
X44348D01*
X45110Y94348D02*
X44771D01*
Y94094D01*
X44940Y94179D01*
X45025D01*
X45110Y94094D01*
Y93925D01*
X45025Y93840D01*
X44856D01*
X44771Y93925D01*
X42000Y89823D02*
X42085Y89908D01*
X42254D01*
X42339Y89823D01*
Y89485D01*
X42254Y89400D01*
X42085D01*
X42000Y89485D01*
Y89823D01*
X42508Y89400D02*
Y89485D01*
X42592D01*
Y89400D01*
X42508D01*
X43270Y89908D02*
X42931D01*
Y89654D01*
X43100Y89739D01*
X43185D01*
X43270Y89654D01*
Y89485D01*
X43185Y89400D01*
X43016D01*
X42931Y89485D01*
X39400Y92423D02*
X39485Y92508D01*
X39654D01*
X39739Y92423D01*
Y92085D01*
X39654Y92000D01*
X39485D01*
X39400Y92085D01*
Y92423D01*
X39908Y92000D02*
Y92085D01*
X39992D01*
Y92000D01*
X39908D01*
X40670Y92508D02*
X40331D01*
Y92254D01*
X40500Y92339D01*
X40585D01*
X40670Y92254D01*
Y92085D01*
X40585Y92000D01*
X40416D01*
X40331Y92085D01*
X42000Y95023D02*
X42085Y95108D01*
X42254D01*
X42339Y95023D01*
Y94685D01*
X42254Y94600D01*
X42085D01*
X42000Y94685D01*
Y95023D01*
X42508Y94600D02*
Y94685D01*
X42592D01*
Y94600D01*
X42508D01*
X43270Y95108D02*
X42931D01*
Y94854D01*
X43100Y94939D01*
X43185D01*
X43270Y94854D01*
Y94685D01*
X43185Y94600D01*
X43016D01*
X42931Y94685D01*
X44600Y92423D02*
X44685Y92508D01*
X44854D01*
X44939Y92423D01*
Y92085D01*
X44854Y92000D01*
X44685D01*
X44600Y92085D01*
Y92423D01*
X45108Y92000D02*
Y92085D01*
X45192D01*
Y92000D01*
X45108D01*
X45870Y92508D02*
X45531D01*
Y92254D01*
X45700Y92339D01*
X45785D01*
X45870Y92254D01*
Y92085D01*
X45785Y92000D01*
X45616D01*
X45531Y92085D01*
X42339Y92000D02*
X42000D01*
X42339Y92339D01*
Y92423D01*
X42254Y92508D01*
X42085D01*
X42000Y92423D01*
X42508Y92000D02*
Y92085D01*
X42592D01*
Y92000D01*
X42508D01*
X42931Y92508D02*
X43270D01*
Y92423D01*
X42931Y92085D01*
Y92000D01*
X44432Y89568D02*
X44601D01*
X44517D01*
Y90076D01*
X44432Y89991D01*
X44855Y89568D02*
Y89653D01*
X44940D01*
Y89568D01*
X44855D01*
X45278Y89991D02*
X45363Y90076D01*
X45532D01*
X45617Y89991D01*
Y89907D01*
X45532Y89822D01*
X45448D01*
X45532D01*
X45617Y89737D01*
Y89653D01*
X45532Y89568D01*
X45363D01*
X45278Y89653D01*
M02*
