G04*
G04 #@! TF.GenerationSoftware,Altium Limited,Altium Designer,20.0.14 (345)*
G04*
G04 Layer_Color=16711935*
%FSLAX43Y43*%
%MOMM*%
G71*
G01*
G75*
%ADD11C,0.600*%
%ADD12C,1.000*%
%ADD13C,8.000*%
%ADD14C,2.600*%
D11*
X85400Y57400D02*
D03*
X74600D02*
D03*
X85400Y54600D02*
D03*
X74600D02*
D03*
X84300Y52800D02*
D03*
Y59300D02*
D03*
X82100Y52800D02*
D03*
Y59300D02*
D03*
X77900Y52800D02*
D03*
Y59300D02*
D03*
X75700Y52800D02*
D03*
Y59300D02*
D03*
X71100Y95400D02*
D03*
X60300D02*
D03*
X71100Y92600D02*
D03*
X60300D02*
D03*
X70000Y90800D02*
D03*
Y97300D02*
D03*
X67800Y90800D02*
D03*
Y97300D02*
D03*
X63600Y90800D02*
D03*
Y97300D02*
D03*
X61400Y90800D02*
D03*
Y97300D02*
D03*
X39050Y63800D02*
D03*
X45550D02*
D03*
X39050Y66000D02*
D03*
X45550D02*
D03*
X39050Y70200D02*
D03*
X45550D02*
D03*
X39050Y72400D02*
D03*
X45550D02*
D03*
X43750Y62700D02*
D03*
Y73500D02*
D03*
X40950Y62700D02*
D03*
Y73500D02*
D03*
X96500Y75200D02*
D03*
X105700D02*
D03*
X96250Y77400D02*
D03*
X105700D02*
D03*
X103900Y74100D02*
D03*
Y84900D02*
D03*
X101100Y73500D02*
D03*
Y84900D02*
D03*
X93400Y98100D02*
D03*
X99900D02*
D03*
X93400Y101700D02*
D03*
X99900D02*
D03*
X98500Y97000D02*
D03*
X94900D02*
D03*
X98500Y102800D02*
D03*
X94900D02*
D03*
X106900Y44800D02*
D03*
Y49550D02*
D03*
X103900Y47600D02*
D03*
X108450D02*
D03*
X105900Y44300D02*
D03*
Y49550D02*
D03*
X103900Y43050D02*
D03*
X101450Y44800D02*
D03*
X102900Y43050D02*
D03*
Y46550D02*
D03*
X103250Y86500D02*
D03*
X99250D02*
D03*
X104250Y86750D02*
D03*
X98250D02*
D03*
X98100Y72500D02*
D03*
Y85500D02*
D03*
X96500Y76600D02*
D03*
X100500Y72600D02*
D03*
X109650Y90250D02*
D03*
Y80500D02*
D03*
X110750Y90250D02*
D03*
Y80500D02*
D03*
X110150Y89500D02*
D03*
Y81250D02*
D03*
X106650Y90250D02*
D03*
Y80500D02*
D03*
X107150Y89500D02*
D03*
Y81250D02*
D03*
X106100Y89500D02*
D03*
Y81250D02*
D03*
X96500Y83100D02*
D03*
X112500D02*
D03*
X104500Y85900D02*
D03*
X112500D02*
D03*
X108100Y90250D02*
D03*
Y80500D02*
D03*
X109100Y89500D02*
D03*
Y81250D02*
D03*
D12*
X71160Y114160D02*
D03*
Y117840D02*
D03*
X74840Y114160D02*
D03*
Y117840D02*
D03*
X73000Y113400D02*
D03*
X70400Y116000D02*
D03*
X73000Y118600D02*
D03*
X75600Y116000D02*
D03*
X98160Y48160D02*
D03*
X101840D02*
D03*
Y51840D02*
D03*
X100000Y47400D02*
D03*
X97400Y50000D02*
D03*
X100000Y52600D02*
D03*
X102600Y50000D02*
D03*
X98160Y90160D02*
D03*
Y93840D02*
D03*
X101840Y90160D02*
D03*
Y93840D02*
D03*
X100000Y89400D02*
D03*
X97400Y92000D02*
D03*
X100000Y94600D02*
D03*
X102600Y92000D02*
D03*
X40160Y48160D02*
D03*
Y51840D02*
D03*
X43840Y48160D02*
D03*
Y51840D02*
D03*
X42000Y47400D02*
D03*
X39400Y50000D02*
D03*
X42000Y52600D02*
D03*
X44600Y50000D02*
D03*
X40160Y90160D02*
D03*
Y93840D02*
D03*
X43840D02*
D03*
X42000Y89400D02*
D03*
X39400Y92000D02*
D03*
X42000Y94600D02*
D03*
X44600Y92000D02*
D03*
D13*
X73000Y116000D02*
D03*
X100000Y50000D02*
D03*
Y92000D02*
D03*
X42000Y50000D02*
D03*
Y92000D02*
D03*
D14*
X97568Y52432D02*
D03*
X44432Y89568D02*
D03*
M02*
