G04*
G04 #@! TF.GenerationSoftware,Altium Limited,Altium Designer,20.0.14 (345)*
G04*
G04 Layer_Physical_Order=1*
G04 Layer_Color=255*
%FSLAX43Y43*%
%MOMM*%
G71*
G01*
G75*
%ADD11C,0.600*%
%ADD12C,1.000*%
%ADD13C,8.000*%
%ADD14C,2.600*%
G36*
X77215Y118382D02*
X77215Y111500D01*
X77215Y111500D01*
X77237Y111391D01*
X77299Y111299D01*
X77299Y111299D01*
X78799Y109799D01*
X78799Y109799D01*
X78891Y109737D01*
X78909Y109733D01*
X79000Y109715D01*
X79000Y109715D01*
X91382D01*
X92799Y108299D01*
X92799Y108299D01*
X92891Y108237D01*
X93000Y108215D01*
X93000Y108215D01*
X95500D01*
X95500Y108215D01*
X95609Y108237D01*
X95701Y108299D01*
X97118Y109715D01*
X110382D01*
X111715Y108382D01*
Y97875D01*
X111715Y97875D01*
X111737Y97766D01*
X111799Y97674D01*
X114465Y95007D01*
Y79493D01*
X111799Y76826D01*
X111737Y76734D01*
X111715Y76625D01*
X111715Y76625D01*
Y66118D01*
X111132Y65535D01*
X109750D01*
X109750Y65535D01*
X109641Y65513D01*
X109549Y65451D01*
X109549Y65451D01*
X108799Y64701D01*
X108799Y64701D01*
X108737Y64609D01*
X108715Y64500D01*
X108715Y64500D01*
Y62181D01*
X108132Y61597D01*
X104312D01*
X104203Y61576D01*
X104111Y61514D01*
X104111Y61514D01*
X103049Y60451D01*
X102987Y60359D01*
X102965Y60250D01*
X102965Y60250D01*
Y57750D01*
X102965Y57750D01*
X102987Y57641D01*
X103049Y57549D01*
X108465Y52132D01*
Y51125D01*
X108465Y51125D01*
X108487Y51016D01*
X108549Y50924D01*
X110715Y48757D01*
Y44118D01*
X108882Y42285D01*
X99618D01*
X96201Y45701D01*
X96109Y45763D01*
X96000Y45785D01*
X96000Y45785D01*
X60118D01*
X58701Y47201D01*
X58609Y47263D01*
X58500Y47285D01*
X58500Y47285D01*
X47000D01*
X47000Y47285D01*
X46891Y47263D01*
X46799Y47201D01*
X46799Y47201D01*
X44882Y45285D01*
X39618D01*
X37285Y47618D01*
Y96382D01*
X39118Y98215D01*
X63000D01*
X63000Y98215D01*
X63109Y98237D01*
X63201Y98299D01*
X64701Y99799D01*
X64701Y99799D01*
X64763Y99891D01*
X64785Y100000D01*
Y108382D01*
X66201Y109799D01*
X66201Y109799D01*
X68451Y112049D01*
X68451Y112049D01*
X68513Y112141D01*
X68535Y112250D01*
X68535Y112250D01*
Y118132D01*
X70868Y120465D01*
X73250D01*
X75132Y120465D01*
X77215Y118382D01*
D02*
G37*
%LPC*%
G36*
X89050Y108735D02*
X89050Y108735D01*
X77950D01*
X77950Y108735D01*
X77841Y108713D01*
X77749Y108651D01*
X77749Y108651D01*
X73599Y104501D01*
X73537Y104409D01*
X73515Y104300D01*
X73515Y104300D01*
Y90468D01*
X73082Y90035D01*
X65700D01*
X65591Y90013D01*
X65499Y89951D01*
X65499Y89951D01*
X65349Y89801D01*
X65287Y89709D01*
X65265Y89600D01*
X65265Y89600D01*
Y87268D01*
X65082Y87085D01*
X52700D01*
X52700Y87085D01*
X52591Y87063D01*
X52499Y87001D01*
X52499Y87001D01*
X46399Y80901D01*
X46337Y80809D01*
X46315Y80700D01*
X46315Y80700D01*
Y75050D01*
Y70700D01*
Y63650D01*
X46315Y63650D01*
X46337Y63541D01*
X46399Y63449D01*
X54549Y55299D01*
X54549Y55299D01*
X54641Y55237D01*
X54750Y55215D01*
X54750Y55215D01*
X70900D01*
X70900Y55215D01*
X71009Y55237D01*
X71101Y55299D01*
X75688Y59885D01*
X85212D01*
X86715Y58382D01*
Y55000D01*
X86715Y55000D01*
X86737Y54891D01*
X86799Y54799D01*
X88299Y53299D01*
X88299Y53299D01*
X88391Y53237D01*
X88500Y53215D01*
X94500D01*
X94500Y53215D01*
X94609Y53237D01*
X94701Y53299D01*
X95201Y53799D01*
X95201Y53799D01*
X95263Y53891D01*
X95285Y54000D01*
Y59582D01*
X95601Y59899D01*
X95601Y59899D01*
X95663Y59991D01*
X95685Y60100D01*
Y89540D01*
X95663Y89649D01*
X95601Y89741D01*
X95601Y89741D01*
X95441Y89901D01*
X95349Y89963D01*
X95240Y89985D01*
X95240Y89985D01*
X93518D01*
X92535Y90968D01*
Y105250D01*
X92535Y105250D01*
X92513Y105359D01*
X92451Y105451D01*
X92451Y105451D01*
X89251Y108651D01*
X89159Y108713D01*
X89050Y108735D01*
D02*
G37*
G36*
X99200Y102435D02*
X94200D01*
X94091Y102413D01*
X93999Y102351D01*
X93937Y102259D01*
X93915Y102150D01*
Y97700D01*
X93937Y97591D01*
X93999Y97499D01*
X94091Y97437D01*
X94200Y97415D01*
X99200D01*
X99309Y97437D01*
X99401Y97499D01*
X99463Y97591D01*
X99485Y97700D01*
Y102150D01*
X99463Y102259D01*
X99401Y102351D01*
X99309Y102413D01*
X99200Y102435D01*
D02*
G37*
G36*
X70400Y96785D02*
X61000D01*
X60891Y96763D01*
X60799Y96701D01*
X60737Y96609D01*
X60715Y96500D01*
Y91500D01*
X60737Y91391D01*
X60799Y91299D01*
X60891Y91237D01*
X61000Y91215D01*
X70400D01*
X70509Y91237D01*
X70601Y91299D01*
X70663Y91391D01*
X70685Y91500D01*
Y96500D01*
X70663Y96609D01*
X70601Y96701D01*
X70509Y96763D01*
X70400Y96785D01*
D02*
G37*
G36*
X59250Y97285D02*
X53000D01*
X52891Y97263D01*
X52799Y97201D01*
X52737Y97109D01*
X52715Y97000D01*
Y89000D01*
X52737Y88891D01*
X52799Y88799D01*
X52891Y88737D01*
X53000Y88715D01*
X59250D01*
X59359Y88737D01*
X59451Y88799D01*
X59513Y88891D01*
X59535Y89000D01*
Y97000D01*
X59513Y97109D01*
X59451Y97201D01*
X59359Y97263D01*
X59250Y97285D01*
D02*
G37*
G36*
X102250Y87785D02*
X100000D01*
X99891Y87763D01*
X99799Y87701D01*
X99737Y87609D01*
X99715Y87500D01*
Y85750D01*
X99737Y85641D01*
X99799Y85549D01*
X99891Y85487D01*
X100000Y85465D01*
X102250D01*
X102359Y85487D01*
X102451Y85549D01*
X102513Y85641D01*
X102535Y85750D01*
Y87500D01*
X102513Y87609D01*
X102451Y87701D01*
X102359Y87763D01*
X102250Y87785D01*
D02*
G37*
G36*
X111500Y88785D02*
X105500D01*
X105391Y88763D01*
X105299Y88701D01*
X105237Y88609D01*
X105215Y88500D01*
Y85618D01*
X104082Y84485D01*
X97300D01*
X97300Y84485D01*
X97191Y84463D01*
X97099Y84401D01*
X97099Y84401D01*
X97049Y84351D01*
X96987Y84259D01*
X96965Y84150D01*
X96965Y84150D01*
Y73250D01*
X96987Y73141D01*
X97049Y73049D01*
X97141Y72987D01*
X97250Y72965D01*
X99500D01*
X99500Y72965D01*
X99609Y72987D01*
X99701Y73049D01*
X101118Y74465D01*
X105000D01*
X105109Y74487D01*
X105201Y74549D01*
X105263Y74641D01*
X105285Y74750D01*
Y81632D01*
X105618Y81965D01*
X111500D01*
X111609Y81987D01*
X111701Y82049D01*
X111763Y82141D01*
X111785Y82250D01*
Y88500D01*
X111763Y88609D01*
X111701Y88701D01*
X111609Y88763D01*
X111500Y88785D01*
D02*
G37*
G36*
X44850Y73085D02*
X39850D01*
X39741Y73063D01*
X39649Y73001D01*
X39587Y72909D01*
X39565Y72800D01*
Y63400D01*
X39587Y63291D01*
X39649Y63199D01*
X39741Y63137D01*
X39850Y63115D01*
X44850D01*
X44959Y63137D01*
X45051Y63199D01*
X45113Y63291D01*
X45135Y63400D01*
Y72800D01*
X45113Y72909D01*
X45051Y73001D01*
X44959Y73063D01*
X44850Y73085D01*
D02*
G37*
G36*
X84700Y58785D02*
X75300D01*
X75191Y58763D01*
X75099Y58701D01*
X75037Y58609D01*
X75015Y58500D01*
Y53500D01*
X75037Y53391D01*
X75099Y53299D01*
X75191Y53237D01*
X75300Y53215D01*
X84700D01*
X84809Y53237D01*
X84901Y53299D01*
X84963Y53391D01*
X84985Y53500D01*
Y58500D01*
X84963Y58609D01*
X84901Y58701D01*
X84809Y58763D01*
X84700Y58785D01*
D02*
G37*
G36*
X93000Y51535D02*
X88750D01*
X88641Y51513D01*
X88549Y51451D01*
X88487Y51359D01*
X88465Y51250D01*
Y49000D01*
X88487Y48891D01*
X88549Y48799D01*
X88641Y48737D01*
X88750Y48715D01*
X93000D01*
X93109Y48737D01*
X93201Y48799D01*
X93263Y48891D01*
X93285Y49000D01*
Y51250D01*
X93263Y51359D01*
X93201Y51451D01*
X93109Y51513D01*
X93000Y51535D01*
D02*
G37*
G36*
X107250Y48785D02*
X107250Y48785D01*
X106000D01*
X105891Y48763D01*
X105799Y48701D01*
X105799Y48701D01*
X102049Y44951D01*
X101987Y44859D01*
X101965Y44750D01*
X101965Y44750D01*
Y44250D01*
X101965Y44250D01*
X101987Y44141D01*
X102049Y44049D01*
X102549Y43549D01*
X102549Y43549D01*
X102641Y43487D01*
X102750Y43465D01*
X104250D01*
X104250Y43465D01*
X104359Y43487D01*
X104451Y43549D01*
X107951Y47049D01*
X107951Y47049D01*
X108013Y47141D01*
X108035Y47250D01*
Y48000D01*
X108035Y48000D01*
X108013Y48109D01*
X107951Y48201D01*
X107451Y48701D01*
X107359Y48763D01*
X107250Y48785D01*
D02*
G37*
%LPD*%
D11*
X85400Y57400D02*
D03*
X74600D02*
D03*
X85400Y54600D02*
D03*
X74600D02*
D03*
X84300Y52800D02*
D03*
Y59300D02*
D03*
X82100Y52800D02*
D03*
Y59300D02*
D03*
X77900Y52800D02*
D03*
Y59300D02*
D03*
X75700Y52800D02*
D03*
Y59300D02*
D03*
X71100Y95400D02*
D03*
X60300D02*
D03*
X71100Y92600D02*
D03*
X60300D02*
D03*
X70000Y90800D02*
D03*
Y97300D02*
D03*
X67800Y90800D02*
D03*
Y97300D02*
D03*
X63600Y90800D02*
D03*
Y97300D02*
D03*
X61400Y90800D02*
D03*
Y97300D02*
D03*
X39050Y63800D02*
D03*
X45550D02*
D03*
X39050Y66000D02*
D03*
X45550D02*
D03*
X39050Y70200D02*
D03*
X45550D02*
D03*
X39050Y72400D02*
D03*
X45550D02*
D03*
X43750Y62700D02*
D03*
Y73500D02*
D03*
X40950Y62700D02*
D03*
Y73500D02*
D03*
X96500Y75200D02*
D03*
X105700D02*
D03*
X96250Y77400D02*
D03*
X105700D02*
D03*
X103900Y74100D02*
D03*
Y84900D02*
D03*
X101100Y73500D02*
D03*
Y84900D02*
D03*
X93400Y98100D02*
D03*
X99900D02*
D03*
X93400Y101700D02*
D03*
X99900D02*
D03*
X98500Y97000D02*
D03*
X94900D02*
D03*
X98500Y102800D02*
D03*
X94900D02*
D03*
X106900Y44800D02*
D03*
Y49550D02*
D03*
X103900Y47600D02*
D03*
X108450D02*
D03*
X105900Y44300D02*
D03*
Y49550D02*
D03*
X103900Y43050D02*
D03*
X101450Y44800D02*
D03*
X102900Y43050D02*
D03*
Y46550D02*
D03*
X103250Y86500D02*
D03*
X99250D02*
D03*
X104250Y86750D02*
D03*
X98250D02*
D03*
X98100Y72500D02*
D03*
Y85500D02*
D03*
X96500Y76600D02*
D03*
X100500Y72600D02*
D03*
X109650Y90250D02*
D03*
Y80500D02*
D03*
X110750Y90250D02*
D03*
Y80500D02*
D03*
X110150Y89500D02*
D03*
Y81250D02*
D03*
X106650Y90250D02*
D03*
Y80500D02*
D03*
X107150Y89500D02*
D03*
Y81250D02*
D03*
X106100Y89500D02*
D03*
Y81250D02*
D03*
X96500Y83100D02*
D03*
X112500D02*
D03*
X104500Y85900D02*
D03*
X112500D02*
D03*
X108100Y90250D02*
D03*
Y80500D02*
D03*
X109100Y89500D02*
D03*
Y81250D02*
D03*
D12*
X71160Y114160D02*
D03*
Y117840D02*
D03*
X74840Y114160D02*
D03*
Y117840D02*
D03*
X73000Y113400D02*
D03*
X70400Y116000D02*
D03*
X73000Y118600D02*
D03*
X75600Y116000D02*
D03*
X98160Y48160D02*
D03*
X101840D02*
D03*
Y51840D02*
D03*
X100000Y47400D02*
D03*
X97400Y50000D02*
D03*
X100000Y52600D02*
D03*
X102600Y50000D02*
D03*
X98160Y90160D02*
D03*
Y93840D02*
D03*
X101840Y90160D02*
D03*
Y93840D02*
D03*
X100000Y89400D02*
D03*
X97400Y92000D02*
D03*
X100000Y94600D02*
D03*
X102600Y92000D02*
D03*
X40160Y48160D02*
D03*
Y51840D02*
D03*
X43840Y48160D02*
D03*
Y51840D02*
D03*
X42000Y47400D02*
D03*
X39400Y50000D02*
D03*
X42000Y52600D02*
D03*
X44600Y50000D02*
D03*
X40160Y90160D02*
D03*
Y93840D02*
D03*
X43840D02*
D03*
X42000Y89400D02*
D03*
X39400Y92000D02*
D03*
X42000Y94600D02*
D03*
X44600Y92000D02*
D03*
D13*
X73000Y116000D02*
D03*
X100000Y50000D02*
D03*
Y92000D02*
D03*
X42000Y50000D02*
D03*
Y92000D02*
D03*
D14*
X97568Y52432D02*
D03*
X44432Y89568D02*
D03*
M02*
