G04*
G04 #@! TF.GenerationSoftware,Altium Limited,Altium Designer,20.0.14 (345)*
G04*
G04 Layer_Color=16711935*
%FSLAX43Y43*%
%MOMM*%
G71*
G01*
G75*
%ADD10C,0.254*%
D10*
X101000Y74750D02*
X105000D01*
Y81750D01*
X105500Y82250D01*
X111500D01*
Y88500D01*
X105500D02*
X111500D01*
X105500Y85500D02*
Y88500D01*
X104200Y84200D02*
X105500Y85500D01*
X97300Y84200D02*
X104200D01*
X75300Y53500D02*
X84700D01*
Y58500D01*
X75300D02*
X84700D01*
X75300Y53500D02*
Y58500D01*
X61000Y91500D02*
X70400D01*
Y96500D01*
X61000D02*
X70400D01*
X61000Y91500D02*
Y96500D01*
X39850Y63400D02*
X44850D01*
X39850D02*
Y72800D01*
X44850D01*
Y63400D02*
Y72800D01*
X94200Y97700D02*
X99200D01*
X94200D02*
Y102150D01*
X99200D01*
Y97700D02*
Y102150D01*
X102250Y44250D02*
Y44750D01*
X106000Y48500D01*
X102250Y44250D02*
X102750Y43750D01*
X104250D01*
X107750Y47250D01*
Y48000D01*
X107250Y48500D02*
X107750Y48000D01*
X111000Y44000D02*
Y48875D01*
X108750Y51125D02*
Y52250D01*
Y51125D02*
X111000Y48875D01*
X106000Y48500D02*
X107250D01*
X100000Y85750D02*
Y87500D01*
Y85750D02*
X102250D01*
Y87500D01*
X100000D02*
X102250D01*
X112000Y97875D02*
Y108500D01*
Y97875D02*
X114750Y95125D01*
X112000Y66000D02*
Y76625D01*
X114750Y79375D01*
X99500Y73250D02*
X101000Y74750D01*
X97250Y73250D02*
X99500D01*
X97250D02*
Y84150D01*
X97300Y84200D01*
X73250Y120750D02*
X75250Y120750D01*
X77500Y118500D01*
X70750Y120750D02*
X73250D01*
X68250Y118250D02*
X70750Y120750D01*
X77500Y118500D02*
X77500Y111500D01*
X79000Y110000D01*
X68250Y112250D02*
Y118250D01*
X79000Y110000D02*
X91500D01*
X66000D02*
X68250Y112250D01*
X97000Y110000D02*
X110500D01*
X95500Y108500D02*
X97000Y110000D01*
X91500D02*
X93000Y108500D01*
X53000Y97000D02*
X59250D01*
Y89000D02*
Y97000D01*
X53000Y89000D02*
X59250D01*
X53000D02*
Y97000D01*
X110500Y110000D02*
X112000Y108500D01*
X114750Y79375D02*
Y95125D01*
X93000Y108500D02*
X95500D01*
X64500Y100000D02*
Y108500D01*
X66000Y110000D01*
X37000Y47500D02*
Y96500D01*
X39000Y98500D01*
X63000D01*
X64500Y100000D01*
X111250Y65250D02*
X112000Y66000D01*
X109000Y64500D02*
X109750Y65250D01*
X111250D01*
X109000Y62062D02*
Y64500D01*
X108250Y61312D02*
X109000Y62062D01*
X105312Y61312D02*
X108250D01*
X103250Y60250D02*
X104312Y61312D01*
X105312D01*
X103250Y57750D02*
X108750Y52250D01*
X103250Y57750D02*
Y60250D01*
X73200Y89750D02*
X73800Y90350D01*
X93000Y49000D02*
Y51250D01*
X88750Y49000D02*
X93000D01*
X88750D02*
Y51250D01*
X93000D01*
X87000Y55000D02*
Y58500D01*
Y55000D02*
X88500Y53500D01*
X94500D01*
X95000Y54000D02*
Y59700D01*
X94500Y53500D02*
X95000Y54000D01*
X85250Y60250D02*
X87000Y58500D01*
X75650Y60250D02*
X85250D01*
X95000Y59700D02*
X95400Y60100D01*
X39500Y45000D02*
X45000D01*
X47000Y47000D01*
X58500D01*
X37000Y47500D02*
X39500Y45000D01*
X109000Y42000D02*
X111000Y44000D01*
X99500Y42000D02*
X109000D01*
X96000Y45500D02*
X99500Y42000D01*
X58500Y47000D02*
X60000Y45500D01*
X70900Y55500D02*
X75650Y60250D01*
X54750Y55500D02*
X70900D01*
X46600Y63650D02*
X54750Y55500D01*
X46600Y63650D02*
Y70700D01*
Y75050D01*
Y80700D01*
X52700Y86800D01*
X65200D01*
X65550Y87150D01*
Y89600D01*
X65700Y89750D01*
X73200D01*
X73800Y90350D02*
Y104300D01*
X77950Y108450D01*
X89050D01*
X92250Y105250D01*
Y90850D02*
Y105250D01*
Y90850D02*
X93400Y89700D01*
X95240D01*
X95400Y89540D01*
Y60100D02*
Y89540D01*
X60000Y45500D02*
X96000D01*
M02*
