M48
;Layer_Color=9474304
;FILE_FORMAT=4:3
METRIC,LZ
;TYPE=PLATED
T1F00S00C0.500
T2F00S00C1.300
T3F00S00C2.700
;TYPE=NON_PLATED
T4F00S00C0.300
%
T01
X009816Y004816
X01Y00474
X010184Y004816
X01026Y005
X010184Y005184
X01Y00526
X00974Y005
X00446
X004384Y004816
X0042Y00474
X004016Y004816
Y005184
X0042Y00526
X004384Y005184
X00394Y005
Y0092
X004016Y009016
X0042Y00894
Y00946
X004016Y009384
X004384
X00446Y0092
X007116Y011416
X0073Y01134
X007484Y011416
X00756Y0116
X007484Y011784
X0073Y01186
X007116Y011784
X00704Y0116
X009816Y009384
X00974Y0092
X009816Y009016
X01Y00894
X010184Y009016
X01026Y0092
X010184Y009384
X01Y00946
T02
X0097568Y0052432
X0044432Y0089568
T03
X01Y005
X0042
Y0092
X0073Y0116
X01Y0092
T04
X00821Y00528
X00843
X00854Y00546
Y00574
X00843Y00593
X00821
X00981Y00725
X01005Y00726
X01011Y00735
X01039Y00741
X01057Y00752
Y00774
X009625
X00965Y00766
Y00752
X01039Y00476
X01029Y004655
X010145Y00448
X01029Y004305
X01039
X01059Y00443
X01069Y00448
X010845Y00476
X01069Y004955
X01059
X00779Y00528
X00757
X00746Y00546
Y00574
X00757Y00593
X00779
X004555Y00638
Y0066
Y00702
Y00724
X004375Y00735
X004095
Y00627
X004375
X003905Y00638
Y0066
Y00702
Y00724
X00614Y00908
X00636
X00678
X007
X00711Y00926
Y00954
X007Y00973
X00678
X00636
X00614
X00603Y00954
Y00926
X00934Y00981
X00949Y0097
X00985
X00999Y00981
Y01017
X00985Y01028
X00949
X00934Y01017
X009825Y008675
X009925Y00865
X00981Y00855
X01011Y00849
X01039
X01045Y00859
X010425Y008675
X010325Y00865
X01061Y00895
X010715
X010665Y009025
X01081
X010965
X011075
X011015Y00895
X01091
X01125Y00859
Y00831
X011015Y008125
X01091
X010965Y00805
X011075
X01081
X010665
X010715Y008125
X01061
X00965Y00831
M30
