G04*
G04 #@! TF.GenerationSoftware,Altium Limited,Altium Designer,20.1.7 (139)*
G04*
G04 Layer_Color=32896*
%FSLAX43Y43*%
%MOMM*%
G71*
G04*
G04 #@! TF.SameCoordinates,AD239F26-5203-4AEB-AFEB-DC15D5A8AAEF*
G04*
G04*
G04 #@! TF.FilePolarity,Positive*
G04*
G01*
G75*
%ADD10C,0.254*%
D10*
X-31001Y61774D02*
X-29811Y60823D01*
X-30525Y60743D01*
X-30446Y60029D01*
X-31636Y60981D01*
X-30763Y59633D02*
X-31080Y59236D01*
X-30921Y59434D01*
X-31715Y60069D01*
X-31556Y60267D01*
X-31556Y58641D02*
X-31873Y58245D01*
X-31714Y58443D01*
X-32508Y59077D01*
X-32349Y59276D01*
X-33142Y58284D02*
X-32349Y57650D01*
X-32745Y57967D01*
X-33102Y57927D01*
X-33459Y57887D01*
X-33618Y57689D01*
X-35124Y56618D02*
X-33935Y55667D01*
X-33459Y56262D01*
X-33499Y56618D01*
X-33895Y56936D01*
X-34252Y56896D01*
X-34728Y56301D01*
X-36076Y55428D02*
X-35442Y56222D01*
X-34847Y55746D01*
X-35164Y55349D01*
X-34847Y55746D01*
X-34252Y55270D01*
X-35203Y54080D02*
X-35521Y53684D01*
X-35362Y53882D01*
X-36552Y54833D01*
X-36393Y55032D01*
X-36472Y52494D02*
X-36155Y52890D01*
X-36195Y53247D01*
X-36591Y53564D01*
X-36948Y53525D01*
X-37265Y53128D01*
X-37226Y52771D01*
X-37027Y52613D01*
X-36393Y53406D01*
X-37741Y52533D02*
X-37582Y51106D01*
X-37662Y51819D01*
X-38375Y51740D01*
X-36948Y51899D01*
X-40041Y50471D02*
X-38851Y49519D01*
X-39327Y48924D01*
X-39683Y48885D01*
X-39882Y49043D01*
X-40080Y49202D01*
X-40120Y49559D01*
X-39644Y50154D01*
X-39961Y48131D02*
X-40278Y47735D01*
X-40635Y47695D01*
X-41032Y48012D01*
X-41071Y48369D01*
X-40754Y48765D01*
X-40397Y48805D01*
X-40001Y48488D01*
X-39961Y48131D01*
X-41904Y47734D02*
X-41706Y47576D01*
X-41547Y47774D01*
X-41864Y47377D01*
X-41706Y47576D01*
X-41111Y47100D01*
X-41071Y46743D01*
X-42697Y46743D02*
X-42499Y46584D01*
X-42340Y46782D01*
X-42657Y46386D01*
X-42499Y46584D01*
X-41904Y46108D01*
X-41864Y45751D01*
X-42498Y44958D02*
X-42816Y44562D01*
X-43172Y44522D01*
X-43569Y44839D01*
X-43609Y45196D01*
X-43292Y45593D01*
X-42935Y45632D01*
X-42538Y45315D01*
X-42498Y44958D01*
X-43291Y43967D02*
X-44084Y44601D01*
X-44243Y44403D01*
X-44203Y44046D01*
X-43608Y43570D01*
X-44203Y44046D01*
X-44560Y44006D01*
X-44521Y43649D01*
X-43926Y43174D01*
X-28859Y59736D02*
X-29176Y59339D01*
X-29137Y58983D01*
X-28542Y58507D01*
X-28066Y59102D01*
X-28106Y59459D01*
X-28463Y59419D01*
X-28938Y58824D01*
X-28859Y58110D02*
X-29176Y57714D01*
X-29018Y57912D01*
X-30207Y58863D01*
X-30049Y59062D01*
X-29652Y57119D02*
X-29969Y56722D01*
X-29811Y56920D01*
X-30604Y57555D01*
X-30445Y57753D01*
X-30365Y55413D02*
X-30524Y55215D01*
X-30881Y55175D01*
X-31872Y55968D01*
X-31397Y56563D01*
X-31040Y56603D01*
X-30643Y56286D01*
X-30603Y55929D01*
X-31079Y55334D01*
X-31396Y54937D02*
X-32190Y55572D01*
X-32665Y54977D01*
X-32626Y54620D01*
X-32031Y54144D01*
X-32348Y53748D02*
X-33141Y54382D01*
X-33300Y54184D01*
X-33260Y53827D01*
X-32665Y53351D01*
X-33260Y53827D01*
X-33617Y53787D01*
X-33577Y53430D01*
X-32982Y52954D01*
X-33775Y51963D02*
X-33458Y52359D01*
X-33498Y52716D01*
X-33894Y53033D01*
X-34251Y52994D01*
X-34568Y52597D01*
X-34529Y52240D01*
X-34330Y52082D01*
X-33696Y52875D01*
X-34251Y51368D02*
X-35044Y52002D01*
X-35520Y51407D01*
X-35480Y51050D01*
X-34885Y50575D01*
X-36353Y50773D02*
X-36154Y50614D01*
X-35996Y50812D01*
X-36313Y50416D01*
X-36154Y50614D01*
X-35559Y50138D01*
X-35520Y49781D01*
X-38097Y48591D02*
X-37899Y48433D01*
X-37740Y48631D01*
X-38057Y48234D01*
X-37899Y48433D01*
X-37304Y47957D01*
X-37264Y47600D01*
X-38216Y46410D02*
X-37898Y46807D01*
X-37938Y47164D01*
X-38335Y47481D01*
X-38692Y47441D01*
X-39009Y47045D01*
X-38969Y46688D01*
X-38771Y46529D01*
X-38137Y47322D01*
X-38691Y45815D02*
X-39167Y45220D01*
X-39524Y45181D01*
X-39564Y45538D01*
X-39247Y45934D01*
X-39286Y46291D01*
X-39643Y46251D01*
X-40119Y45656D01*
X-40793Y45220D02*
X-40595Y45062D01*
X-40436Y45260D01*
X-40753Y44863D01*
X-40595Y45062D01*
X-40000Y44586D01*
X-39960Y44229D01*
X-26400Y58095D02*
X-25607Y57460D01*
X-26004Y57777D01*
X-26361Y57738D01*
X-26717Y57698D01*
X-26876Y57500D01*
X-27034Y55676D02*
X-26717Y56072D01*
X-26757Y56429D01*
X-27153Y56746D01*
X-27510Y56707D01*
X-27828Y56310D01*
X-27788Y55953D01*
X-27589Y55794D01*
X-26955Y56588D01*
X-28303Y55715D02*
X-27827Y54684D01*
X-28938Y54922D01*
X-29453Y54684D02*
X-29810Y54644D01*
X-30127Y54247D01*
X-30087Y53891D01*
X-29294Y53256D01*
X-28937Y53296D01*
X-28620Y53693D01*
X-28660Y54049D01*
X-29453Y54684D01*
M02*
