G04*
G04 #@! TF.GenerationSoftware,Altium Limited,Altium Designer,20.1.7 (139)*
G04*
G04 Layer_Color=16711935*
%FSLAX43Y43*%
%MOMM*%
G71*
G04*
G04 #@! TF.SameCoordinates,AD239F26-5203-4AEB-AFEB-DC15D5A8AAEF*
G04*
G04*
G04 #@! TF.FilePolarity,Negative*
G04*
G01*
G75*
%ADD11C,0.858*%
%ADD12C,0.808*%
%ADD13C,0.703*%
%ADD14C,0.908*%
%ADD15C,1.203*%
%ADD16C,8.203*%
%ADD17C,2.803*%
%ADD18C,0.503*%
%ADD19C,0.908*%
D11*
X-22500Y11900D02*
D03*
Y12900D02*
D03*
Y10900D02*
D03*
D12*
X-23500Y11900D02*
D03*
Y12900D02*
D03*
Y10900D02*
D03*
D13*
X-22000Y8500D02*
D03*
X-23000D02*
D03*
X-19500Y10900D02*
D03*
Y12900D02*
D03*
Y13900D02*
D03*
Y11900D02*
D03*
X-20500Y12900D02*
D03*
X-24500Y9900D02*
D03*
Y11900D02*
D03*
Y12900D02*
D03*
X-21500Y13950D02*
D03*
X-1900Y15850D02*
D03*
X-3500Y16950D02*
D03*
X-2700D02*
D03*
X-3500Y15850D02*
D03*
X-2700D02*
D03*
X-4500Y17850D02*
D03*
X-1950Y19150D02*
D03*
X-1150D02*
D03*
X-3550D02*
D03*
X-2750D02*
D03*
X-3500Y17950D02*
D03*
X-31350Y-5500D02*
D03*
X-25100Y-9100D02*
D03*
X-8150D02*
D03*
X-12350Y-10700D02*
D03*
X-20100Y-11300D02*
D03*
X-27350Y-9900D02*
D03*
X-7500Y-10650D02*
D03*
X-7300Y4400D02*
D03*
X-12550Y12900D02*
D03*
X-2900Y25900D02*
D03*
X-3750D02*
D03*
D14*
X-21500Y10900D02*
D03*
Y12900D02*
D03*
Y11900D02*
D03*
X5400Y27750D02*
D03*
X-7500Y25000D02*
D03*
X-3100Y24000D02*
D03*
X-9500Y22950D02*
D03*
X-8500Y24950D02*
D03*
Y25950D02*
D03*
X-9500D02*
D03*
Y24950D02*
D03*
Y26950D02*
D03*
X-850Y24900D02*
D03*
D15*
X-1500Y14000D02*
D03*
Y12000D02*
D03*
X1500Y14000D02*
D03*
X3500D02*
D03*
X1500Y12000D02*
D03*
X3500D02*
D03*
X-3500Y14000D02*
D03*
Y12000D02*
D03*
X1500Y9000D02*
D03*
X3500D02*
D03*
X1500Y7000D02*
D03*
X3500D02*
D03*
X3000Y0D02*
D03*
X0Y3000D02*
D03*
X2121Y2121D02*
D03*
Y-2121D02*
D03*
X-2121D02*
D03*
X-3000Y0D02*
D03*
X0Y-3000D02*
D03*
X-61000Y0D02*
D03*
X-58000Y-3000D02*
D03*
X-60121Y-2121D02*
D03*
Y2121D02*
D03*
X-55879D02*
D03*
X-55000Y0D02*
D03*
X-58000Y3000D02*
D03*
X-3000Y42000D02*
D03*
X0Y39000D02*
D03*
X-2121Y39879D02*
D03*
Y44121D02*
D03*
X2121D02*
D03*
X3000Y42000D02*
D03*
X0Y45000D02*
D03*
X-30000Y66000D02*
D03*
X-27000Y63000D02*
D03*
X-29121Y63879D02*
D03*
Y68121D02*
D03*
X-24879D02*
D03*
X-24000Y66000D02*
D03*
X-27000Y69000D02*
D03*
X-55879Y-2121D02*
D03*
X2121Y39879D02*
D03*
X-24879Y63879D02*
D03*
D16*
X-58000Y0D02*
D03*
X0Y42000D02*
D03*
Y0D02*
D03*
X-27000Y66000D02*
D03*
D17*
X-2432Y2432D02*
D03*
D18*
X-600Y18250D02*
D03*
Y17200D02*
D03*
Y17750D02*
D03*
X3400Y18250D02*
D03*
Y17750D02*
D03*
Y17200D02*
D03*
X-600Y18800D02*
D03*
X3400D02*
D03*
X1000Y15750D02*
D03*
Y20500D02*
D03*
X-5000Y650D02*
D03*
X-22500D02*
D03*
X-24000Y-1350D02*
D03*
X-5000D02*
D03*
X-32950Y-1000D02*
D03*
Y-13000D02*
D03*
X-28000Y-8500D02*
D03*
Y-7250D02*
D03*
X-53000D02*
D03*
Y-8500D02*
D03*
X2100Y33500D02*
D03*
Y25500D02*
D03*
X4250Y27550D02*
D03*
X700D02*
D03*
X4600Y28750D02*
D03*
X700D02*
D03*
X4775Y29800D02*
D03*
X4525Y30350D02*
D03*
X500D02*
D03*
X4775Y30850D02*
D03*
X2050Y26000D02*
D03*
Y33000D02*
D03*
X4525Y31400D02*
D03*
X500D02*
D03*
X700Y29800D02*
D03*
Y30850D02*
D03*
X-22500Y3150D02*
D03*
X-5000D02*
D03*
X-22500Y3650D02*
D03*
X-5000D02*
D03*
X-8000Y5500D02*
D03*
Y-8000D02*
D03*
D19*
X-6500Y30900D02*
D03*
Y28900D02*
D03*
X-7500Y27900D02*
D03*
X-8500Y28900D02*
D03*
X-9500D02*
D03*
X-8500Y27900D02*
D03*
X-7500Y28900D02*
D03*
X-7500Y30900D02*
D03*
X-6500Y35900D02*
D03*
X-8500Y31900D02*
D03*
Y33900D02*
D03*
Y32900D02*
D03*
Y34900D02*
D03*
X-7500Y31900D02*
D03*
Y34900D02*
D03*
X-2900Y31100D02*
D03*
Y31950D02*
D03*
X-3700Y31500D02*
D03*
X-2900Y33500D02*
D03*
X-3700Y33100D02*
D03*
X-2900Y30350D02*
D03*
X-3700Y30700D02*
D03*
X-2900Y32750D02*
D03*
X-3700Y32300D02*
D03*
X-4900Y30900D02*
D03*
X-7500Y32900D02*
D03*
Y33900D02*
D03*
M02*
