G04*
G04 #@! TF.GenerationSoftware,Altium Limited,Altium Designer,21.0.8 (223)*
G04*
G04 Layer_Color=32896*
%FSLAX44Y44*%
%MOMM*%
G71*
G04*
G04 #@! TF.SameCoordinates,AAD5EB2A-8552-457D-BF93-D3A1E0B867CA*
G04*
G04*
G04 #@! TF.FilePolarity,Positive*
G04*
G01*
G75*
%ADD54C,0.1000*%
D54*
X-445000Y397500D02*
X-345000D01*
X-445000Y297500D02*
Y397500D01*
Y297500D02*
X-345000D01*
Y397500D01*
X114500Y645700D02*
Y680700D01*
X-10500Y645700D02*
X114500D01*
X-10500D02*
Y680700D01*
X114500D01*
X-481250Y686450D02*
Y686450D01*
Y686450D02*
X-475750Y680950D01*
X-263000Y682700D02*
X-256500Y689200D01*
X-263000Y682700D02*
Y682700D01*
X-268500Y680700D02*
X-265500Y677700D01*
X-473000Y680700D02*
X-268500D01*
X-475500Y678200D02*
X-473000Y680700D01*
X-475500Y630700D02*
Y678200D01*
Y630700D02*
X-265500D01*
Y677700D01*
X-233750Y397500D02*
X-230417Y387500D01*
X-237083D02*
X-233750Y397500D01*
X-237083Y307500D02*
X-233750Y297500D01*
X-230417Y307500D01*
X-233750Y369160D02*
Y397500D01*
Y297500D02*
Y321840D01*
X-340000Y397500D02*
X-232750D01*
X-340000Y297500D02*
X-232750D01*
X-445000Y410000D02*
X-435000Y413333D01*
X-445000Y410000D02*
X-435000Y406667D01*
X-355000D02*
X-345000Y410000D01*
X-355000Y413333D02*
X-345000Y410000D01*
X-445000D02*
X-420660D01*
X-373340D02*
X-345000D01*
X-445000Y402500D02*
Y411000D01*
X-345000Y400000D02*
Y411000D01*
X-10500Y692950D02*
X-500Y696283D01*
X-10500Y692950D02*
X-500Y689617D01*
X104500D02*
X114500Y692950D01*
X104500Y696283D02*
X114500Y692950D01*
X-10500D02*
X26340D01*
X73660D02*
X114500D01*
X-10500Y683200D02*
Y693950D01*
X114500Y683200D02*
Y693950D01*
X224250Y645700D02*
X227583Y635700D01*
X220917D02*
X224250Y645700D01*
X220917Y690700D02*
X224250Y680700D01*
X227583Y690700D01*
X224250Y625700D02*
Y645700D01*
Y680700D02*
Y700700D01*
X117000Y680700D02*
X225250D01*
X117000Y645700D02*
X225250D01*
X-156000Y630700D02*
X-152667Y620700D01*
X-159333D02*
X-156000Y630700D01*
X-159333Y690700D02*
X-156000Y680700D01*
X-152667Y690700D01*
X-156000Y610700D02*
Y630700D01*
Y680700D02*
Y700700D01*
X-263500Y680700D02*
X-155000D01*
X-260500Y630700D02*
X-155000D01*
X-475000Y693200D02*
X-465000Y696533D01*
X-475000Y693200D02*
X-465000Y689867D01*
X-275000D02*
X-265000Y693200D01*
X-275000Y696533D02*
X-265000Y693200D01*
X-475000D02*
X-395660D01*
X-348340D02*
X-265000D01*
X-475000Y683200D02*
Y694200D01*
X-265000Y683200D02*
Y694200D01*
X-339250Y362602D02*
X-334585D01*
X-336917D01*
Y355604D01*
X-327587Y362602D02*
X-332252D01*
Y355604D01*
X-327587D01*
X-332252Y359103D02*
X-329920D01*
X-320589Y361436D02*
X-321756Y362602D01*
X-324088D01*
X-325254Y361436D01*
Y360270D01*
X-324088Y359103D01*
X-321756D01*
X-320589Y357937D01*
Y356771D01*
X-321756Y355604D01*
X-324088D01*
X-325254Y356771D01*
X-318257Y355604D02*
Y360270D01*
X-315924Y362602D01*
X-313591Y360270D01*
Y355604D01*
Y359103D01*
X-318257D01*
X-304261Y361436D02*
X-303095Y362602D01*
X-300762D01*
X-299596Y361436D01*
Y360270D01*
X-300762Y359103D01*
X-299596Y357937D01*
Y356771D01*
X-300762Y355604D01*
X-303095D01*
X-304261Y356771D01*
Y357937D01*
X-303095Y359103D01*
X-304261Y360270D01*
Y361436D01*
X-303095Y359103D02*
X-300762D01*
X-297263Y361436D02*
X-296097Y362602D01*
X-293765D01*
X-292598Y361436D01*
Y360270D01*
X-293765Y359103D01*
X-292598Y357937D01*
Y356771D01*
X-293765Y355604D01*
X-296097D01*
X-297263Y356771D01*
Y357937D01*
X-296097Y359103D01*
X-297263Y360270D01*
Y361436D01*
X-296097Y359103D02*
X-293765D01*
X-285600Y362602D02*
X-290266D01*
Y359103D01*
X-287933Y360270D01*
X-286767D01*
X-285600Y359103D01*
Y356771D01*
X-286767Y355604D01*
X-289099D01*
X-290266Y356771D01*
X-283268Y361436D02*
X-282102Y362602D01*
X-279769D01*
X-278603Y361436D01*
Y360270D01*
X-279769Y359103D01*
X-280935D01*
X-279769D01*
X-278603Y357937D01*
Y356771D01*
X-279769Y355604D01*
X-282102D01*
X-283268Y356771D01*
X-338084Y349472D02*
X-335751D01*
X-334585Y348306D01*
Y344807D01*
X-338084D01*
X-339250Y345973D01*
X-338084Y347140D01*
X-334585D01*
X-327587Y351805D02*
Y344807D01*
X-331086D01*
X-332252Y345973D01*
Y348306D01*
X-331086Y349472D01*
X-327587D01*
X-325254Y351805D02*
Y344807D01*
Y348306D01*
X-324088Y349472D01*
X-321756D01*
X-320589Y348306D01*
Y344807D01*
X-314758D02*
X-317090D01*
X-318257Y345973D01*
Y348306D01*
X-317090Y349472D01*
X-314758D01*
X-313591Y348306D01*
Y347140D01*
X-318257D01*
X-311259Y344807D02*
X-307760D01*
X-306594Y345973D01*
X-307760Y347140D01*
X-310093D01*
X-311259Y348306D01*
X-310093Y349472D01*
X-306594D01*
X-304261Y344807D02*
X-301929D01*
X-303095D01*
Y349472D01*
X-304261D01*
X-298430D02*
X-296097Y344807D01*
X-293765Y349472D01*
X-287933Y344807D02*
X-290266D01*
X-291432Y345973D01*
Y348306D01*
X-290266Y349472D01*
X-287933D01*
X-286767Y348306D01*
Y347140D01*
X-291432D01*
X-338084Y338675D02*
X-335751D01*
X-334585Y337509D01*
Y334010D01*
X-338084D01*
X-339250Y335176D01*
X-338084Y336342D01*
X-334585D01*
X-332252Y331677D02*
Y338675D01*
X-328753D01*
X-327587Y337509D01*
Y335176D01*
X-328753Y334010D01*
X-332252D01*
X-325254Y331677D02*
Y338675D01*
X-321756D01*
X-320589Y337509D01*
Y335176D01*
X-321756Y334010D01*
X-325254D01*
X-318257D02*
X-315924D01*
X-317090D01*
Y341007D01*
X-318257D01*
X-312425Y334010D02*
X-310093D01*
X-311259D01*
Y338675D01*
X-312425D01*
X-303095Y334010D02*
X-305427D01*
X-306594Y335176D01*
Y337509D01*
X-305427Y338675D01*
X-303095D01*
X-301929Y337509D01*
Y336342D01*
X-306594D01*
X-294931Y341007D02*
Y334010D01*
X-298430D01*
X-299596Y335176D01*
Y337509D01*
X-298430Y338675D01*
X-294931D01*
X-284434Y339841D02*
Y338675D01*
X-285600D01*
X-283268D01*
X-284434D01*
Y335176D01*
X-283268Y334010D01*
X-278603D02*
X-276270D01*
X-275104Y335176D01*
Y337509D01*
X-276270Y338675D01*
X-278603D01*
X-279769Y337509D01*
Y335176D01*
X-278603Y334010D01*
X-339250Y327878D02*
Y320880D01*
X-335751D01*
X-334585Y322046D01*
Y323213D01*
Y324379D01*
X-335751Y325545D01*
X-339250D01*
X-331086Y320880D02*
X-328753D01*
X-327587Y322046D01*
Y324379D01*
X-328753Y325545D01*
X-331086D01*
X-332252Y324379D01*
Y322046D01*
X-331086Y320880D01*
X-324088Y326711D02*
Y325545D01*
X-325254D01*
X-322922D01*
X-324088D01*
Y322046D01*
X-322922Y320880D01*
X-318257Y326711D02*
Y325545D01*
X-319423D01*
X-317090D01*
X-318257D01*
Y322046D01*
X-317090Y320880D01*
X-312425D02*
X-310093D01*
X-308926Y322046D01*
Y324379D01*
X-310093Y325545D01*
X-312425D01*
X-313591Y324379D01*
Y322046D01*
X-312425Y320880D01*
X-306594D02*
Y325545D01*
X-305427D01*
X-304261Y324379D01*
Y320880D01*
Y324379D01*
X-303095Y325545D01*
X-301929Y324379D01*
Y320880D01*
X-299596Y324379D02*
X-294931D01*
X-292598Y320880D02*
X-289099D01*
X-287933Y322046D01*
X-289099Y323213D01*
X-291432D01*
X-292598Y324379D01*
X-291432Y325545D01*
X-287933D01*
X-285600Y320880D02*
X-283268D01*
X-284434D01*
Y325545D01*
X-285600D01*
X-275104Y327878D02*
Y320880D01*
X-278603D01*
X-279769Y322046D01*
Y324379D01*
X-278603Y325545D01*
X-275104D01*
X-269272Y320880D02*
X-271605D01*
X-272771Y322046D01*
Y324379D01*
X-271605Y325545D01*
X-269272D01*
X-268106Y324379D01*
Y323213D01*
X-272771D01*
X-334585Y314748D02*
X-338084D01*
X-339250Y313582D01*
Y311249D01*
X-338084Y310083D01*
X-334585D01*
X-331086D02*
X-328753D01*
X-327587Y311249D01*
Y313582D01*
X-328753Y314748D01*
X-331086D01*
X-332252Y313582D01*
Y311249D01*
X-331086Y310083D01*
X-325254Y314748D02*
X-322922Y310083D01*
X-320589Y314748D01*
X-314758Y310083D02*
X-317090D01*
X-318257Y311249D01*
Y313582D01*
X-317090Y314748D01*
X-314758D01*
X-313591Y313582D01*
Y312415D01*
X-318257D01*
X-311259Y314748D02*
Y310083D01*
Y312415D01*
X-310093Y313582D01*
X-308926Y314748D01*
X-307760D01*
X-304261Y310083D02*
X-301929D01*
X-303095D01*
Y317080D01*
X-304261D01*
X-297263Y314748D02*
X-294931D01*
X-293765Y313582D01*
Y310083D01*
X-297263D01*
X-298430Y311249D01*
X-297263Y312415D01*
X-293765D01*
X-291432Y314748D02*
Y311249D01*
X-290266Y310083D01*
X-286767D01*
Y308916D01*
X-287933Y307750D01*
X-289099D01*
X-286767Y310083D02*
Y314748D01*
X-256835Y672329D02*
X-258001Y673495D01*
X-260334D01*
X-261500Y672329D01*
Y671162D01*
X-260334Y669996D01*
X-258001D01*
X-256835Y668830D01*
Y667664D01*
X-258001Y666497D01*
X-260334D01*
X-261500Y667664D01*
X-253336Y672329D02*
Y671162D01*
X-254502D01*
X-252170D01*
X-253336D01*
Y667664D01*
X-252170Y666497D01*
X-248671D02*
X-246338D01*
X-247505D01*
Y671162D01*
X-248671D01*
X-241673Y666497D02*
Y672329D01*
Y669996D01*
X-242839D01*
X-240507D01*
X-241673D01*
Y672329D01*
X-240507Y673495D01*
X-235842Y666497D02*
Y672329D01*
Y669996D01*
X-237008D01*
X-234675D01*
X-235842D01*
Y672329D01*
X-234675Y673495D01*
X-227677Y666497D02*
X-230010D01*
X-231176Y667664D01*
Y669996D01*
X-230010Y671162D01*
X-227677D01*
X-226511Y669996D01*
Y668830D01*
X-231176D01*
X-224179Y666497D02*
Y671162D01*
X-220680D01*
X-219513Y669996D01*
Y666497D01*
X-213682D02*
X-216015D01*
X-217181Y667664D01*
Y669996D01*
X-216015Y671162D01*
X-213682D01*
X-212516Y669996D01*
Y668830D01*
X-217181D01*
X-210183Y671162D02*
Y666497D01*
Y668830D01*
X-209017Y669996D01*
X-207851Y671162D01*
X-206684D01*
X-196188Y673495D02*
Y666497D01*
X-192689D01*
X-191523Y667664D01*
Y668830D01*
X-192689Y669996D01*
X-196188D01*
X-192689D01*
X-191523Y671162D01*
Y672329D01*
X-192689Y673495D01*
X-196188D01*
X-185691D02*
X-188024D01*
X-189190Y672329D01*
Y667664D01*
X-188024Y666497D01*
X-185691D01*
X-184525Y667664D01*
Y672329D01*
X-185691Y673495D01*
X-182192D02*
X-177527D01*
X-179860D01*
Y666497D01*
X-261500Y655700D02*
Y662698D01*
X-258001D01*
X-256835Y661531D01*
Y659199D01*
X-258001Y658033D01*
X-261500D01*
X-254502Y662698D02*
X-252170D01*
X-253336D01*
Y655700D01*
X-254502D01*
X-252170D01*
X-241673Y661531D02*
X-240507Y662698D01*
X-238174D01*
X-237008Y661531D01*
Y656866D01*
X-238174Y655700D01*
X-240507D01*
X-241673Y656866D01*
Y661531D01*
X-234675Y655700D02*
Y656866D01*
X-233509D01*
Y655700D01*
X-234675D01*
X-224179D02*
X-228844D01*
X-224179Y660365D01*
Y661531D01*
X-225345Y662698D01*
X-227677D01*
X-228844Y661531D01*
X-221846Y655700D02*
Y660365D01*
X-220680D01*
X-219513Y659199D01*
Y655700D01*
Y659199D01*
X-218347Y660365D01*
X-217181Y659199D01*
Y655700D01*
X-214848D02*
Y660365D01*
X-213682D01*
X-212516Y659199D01*
Y655700D01*
Y659199D01*
X-211350Y660365D01*
X-210183Y659199D01*
Y655700D01*
X123415Y672079D02*
X122249Y673245D01*
X119916D01*
X118750Y672079D01*
Y670912D01*
X119916Y669746D01*
X122249D01*
X123415Y668580D01*
Y667414D01*
X122249Y666247D01*
X119916D01*
X118750Y667414D01*
X126914Y672079D02*
Y670912D01*
X125748D01*
X128080D01*
X126914D01*
Y667414D01*
X128080Y666247D01*
X131579D02*
X133912D01*
X132746D01*
Y670912D01*
X131579D01*
X138577Y666247D02*
Y672079D01*
Y669746D01*
X137411D01*
X139743D01*
X138577D01*
Y672079D01*
X139743Y673245D01*
X144408Y666247D02*
Y672079D01*
Y669746D01*
X143242D01*
X145575D01*
X144408D01*
Y672079D01*
X145575Y673245D01*
X152572Y666247D02*
X150240D01*
X149074Y667414D01*
Y669746D01*
X150240Y670912D01*
X152572D01*
X153739Y669746D01*
Y668580D01*
X149074D01*
X156071Y666247D02*
Y670912D01*
X159570D01*
X160737Y669746D01*
Y666247D01*
X166568D02*
X164235D01*
X163069Y667414D01*
Y669746D01*
X164235Y670912D01*
X166568D01*
X167734Y669746D01*
Y668580D01*
X163069D01*
X170067Y670912D02*
Y666247D01*
Y668580D01*
X171233Y669746D01*
X172399Y670912D01*
X173566D01*
X184062Y673245D02*
Y666247D01*
X187561D01*
X188727Y667414D01*
Y668580D01*
X187561Y669746D01*
X184062D01*
X187561D01*
X188727Y670912D01*
Y672079D01*
X187561Y673245D01*
X184062D01*
X194559D02*
X192226D01*
X191060Y672079D01*
Y667414D01*
X192226Y666247D01*
X194559D01*
X195725Y667414D01*
Y672079D01*
X194559Y673245D01*
X198058D02*
X202723D01*
X200390D01*
Y666247D01*
X118750Y655450D02*
Y662448D01*
X122249D01*
X123415Y661282D01*
Y658949D01*
X122249Y657783D01*
X118750D01*
X125748Y662448D02*
X128080D01*
X126914D01*
Y655450D01*
X125748D01*
X128080D01*
X138577Y661282D02*
X139743Y662448D01*
X142076D01*
X143242Y661282D01*
Y656616D01*
X142076Y655450D01*
X139743D01*
X138577Y656616D01*
Y661282D01*
X145575Y655450D02*
Y656616D01*
X146741D01*
Y655450D01*
X145575D01*
X156071D02*
X151406D01*
X156071Y660115D01*
Y661282D01*
X154905Y662448D01*
X152572D01*
X151406Y661282D01*
X158404Y655450D02*
Y660115D01*
X159570D01*
X160737Y658949D01*
Y655450D01*
Y658949D01*
X161903Y660115D01*
X163069Y658949D01*
Y655450D01*
X165402D02*
Y660115D01*
X166568D01*
X167734Y658949D01*
Y655450D01*
Y658949D01*
X168901Y660115D01*
X170067Y658949D01*
Y655450D01*
X-496168Y691365D02*
X-497001Y692198D01*
X-498667D01*
X-499500Y691365D01*
Y688033D01*
X-498667Y687200D01*
X-497001D01*
X-496168Y688033D01*
X-494502Y691365D02*
X-493669Y692198D01*
X-492002D01*
X-491169Y691365D01*
Y688033D01*
X-492002Y687200D01*
X-493669D01*
X-494502Y688033D01*
Y691365D01*
X-489503Y687200D02*
Y688033D01*
X-488670D01*
Y687200D01*
X-489503D01*
X-485338Y691365D02*
X-484505Y692198D01*
X-482839D01*
X-482006Y691365D01*
Y690532D01*
X-482839Y689699D01*
X-483672D01*
X-482839D01*
X-482006Y688866D01*
Y688033D01*
X-482839Y687200D01*
X-484505D01*
X-485338Y688033D01*
X-252168Y694365D02*
X-253001Y695198D01*
X-254667D01*
X-255500Y694365D01*
Y691033D01*
X-254667Y690200D01*
X-253001D01*
X-252168Y691033D01*
X-250502Y694365D02*
X-249669Y695198D01*
X-248002D01*
X-247169Y694365D01*
Y691033D01*
X-248002Y690200D01*
X-249669D01*
X-250502Y691033D01*
Y694365D01*
X-245503Y690200D02*
Y691033D01*
X-244670D01*
Y690200D01*
X-245503D01*
X-241338Y694365D02*
X-240505Y695198D01*
X-238839D01*
X-238006Y694365D01*
Y693532D01*
X-238839Y692699D01*
X-239672D01*
X-238839D01*
X-238006Y691866D01*
Y691033D01*
X-238839Y690200D01*
X-240505D01*
X-241338Y691033D01*
X-227752Y323840D02*
Y327173D01*
Y325507D01*
X-237748D01*
X-236082Y323840D01*
Y332171D02*
X-237748Y333837D01*
Y337169D01*
X-236082Y338835D01*
X-229418D01*
X-227752Y337169D01*
Y333837D01*
X-229418Y332171D01*
X-236082D01*
X-227752Y342168D02*
X-229418D01*
Y343834D01*
X-227752D01*
Y342168D01*
X-236082Y350498D02*
X-237748Y352164D01*
Y355497D01*
X-236082Y357163D01*
X-229418D01*
X-227752Y355497D01*
Y352164D01*
X-229418Y350498D01*
X-236082D01*
Y360495D02*
X-237748Y362161D01*
Y365494D01*
X-236082Y367160D01*
X-229418D01*
X-227752Y365494D01*
Y362161D01*
X-229418Y360495D01*
X-236082D01*
X-418660Y404002D02*
X-415327D01*
X-416993D01*
Y413998D01*
X-418660Y412332D01*
X-410329D02*
X-408663Y413998D01*
X-405331D01*
X-403665Y412332D01*
Y405668D01*
X-405331Y404002D01*
X-408663D01*
X-410329Y405668D01*
Y412332D01*
X-400332Y404002D02*
Y405668D01*
X-398666D01*
Y404002D01*
X-400332D01*
X-392002Y412332D02*
X-390336Y413998D01*
X-387003D01*
X-385337Y412332D01*
Y405668D01*
X-387003Y404002D01*
X-390336D01*
X-392002Y405668D01*
Y412332D01*
X-382005D02*
X-380339Y413998D01*
X-377006D01*
X-375340Y412332D01*
Y405668D01*
X-377006Y404002D01*
X-380339D01*
X-382005Y405668D01*
Y412332D01*
X28340Y686952D02*
X31673D01*
X30006D01*
Y696948D01*
X28340Y695282D01*
X43335Y686952D02*
X36671D01*
X43335Y693616D01*
Y695282D01*
X41669Y696948D01*
X38337D01*
X36671Y695282D01*
X46668Y686952D02*
Y688618D01*
X48334D01*
Y686952D01*
X46668D01*
X61663Y696948D02*
X54998D01*
Y691950D01*
X58331Y693616D01*
X59997D01*
X61663Y691950D01*
Y688618D01*
X59997Y686952D01*
X56665D01*
X54998Y688618D01*
X64995Y695282D02*
X66661Y696948D01*
X69994D01*
X71660Y695282D01*
Y688618D01*
X69994Y686952D01*
X66661D01*
X64995Y688618D01*
Y695282D01*
X239913Y643706D02*
X238247Y645372D01*
Y648704D01*
X239913Y650370D01*
X241579D01*
X243245Y648704D01*
Y647038D01*
Y648704D01*
X244911Y650370D01*
X246577D01*
X248244Y648704D01*
Y645372D01*
X246577Y643706D01*
X248244Y653702D02*
X246577D01*
Y655368D01*
X248244D01*
Y653702D01*
X238247Y668698D02*
Y662033D01*
X243245D01*
X241579Y665365D01*
Y667031D01*
X243245Y668698D01*
X246577D01*
X248244Y667031D01*
Y663699D01*
X246577Y662033D01*
X239913Y672030D02*
X238247Y673696D01*
Y677028D01*
X239913Y678694D01*
X246577D01*
X248244Y677028D01*
Y673696D01*
X246577Y672030D01*
X239913D01*
X-142003Y642870D02*
Y636206D01*
X-137005D01*
X-138671Y639538D01*
Y641204D01*
X-137005Y642870D01*
X-133673D01*
X-132007Y641204D01*
Y637872D01*
X-133673Y636206D01*
X-132007Y646202D02*
X-133673D01*
Y647869D01*
X-132007D01*
Y646202D01*
X-140337Y654533D02*
X-142003Y656199D01*
Y659531D01*
X-140337Y661198D01*
X-133673D01*
X-132007Y659531D01*
Y656199D01*
X-133673Y654533D01*
X-140337D01*
Y664530D02*
X-142003Y666196D01*
Y669528D01*
X-140337Y671194D01*
X-133673D01*
X-132007Y669528D01*
Y666196D01*
X-133673Y664530D01*
X-140337D01*
X-386995Y687202D02*
X-393660D01*
X-386995Y693866D01*
Y695532D01*
X-388661Y697198D01*
X-391994D01*
X-393660Y695532D01*
X-383663Y687202D02*
X-380331D01*
X-381997D01*
Y697198D01*
X-383663Y695532D01*
X-375332Y687202D02*
Y688868D01*
X-373666D01*
Y687202D01*
X-375332D01*
X-367002Y695532D02*
X-365336Y697198D01*
X-362003D01*
X-360337Y695532D01*
Y688868D01*
X-362003Y687202D01*
X-365336D01*
X-367002Y688868D01*
Y695532D01*
X-357005D02*
X-355339Y697198D01*
X-352006D01*
X-350340Y695532D01*
Y688868D01*
X-352006Y687202D01*
X-355339D01*
X-357005Y688868D01*
Y695532D01*
M02*
