G04*
G04 #@! TF.GenerationSoftware,Altium Limited,Altium Designer,21.0.8 (223)*
G04*
G04 Layer_Color=65535*
%FSLAX44Y44*%
%MOMM*%
G71*
G04*
G04 #@! TF.SameCoordinates,AAD5EB2A-8552-457D-BF93-D3A1E0B867CA*
G04*
G04*
G04 #@! TF.FilePolarity,Positive*
G04*
G01*
G75*
%ADD10C,0.2500*%
%ADD11C,0.2000*%
%ADD12C,0.1600*%
D10*
X-354000Y336200D02*
G03*
X-354000Y336200I-1250J0D01*
G01*
D11*
X-389000Y317200D02*
X-380750D01*
X-389000D02*
Y327200D01*
X-366250Y317200D02*
X-358000D01*
Y327200D01*
D12*
X-594827Y234100D02*
X-591494D01*
X-593161D01*
Y244097D01*
X-594827Y242431D01*
X-586496Y234100D02*
Y235766D01*
X-584830D01*
Y234100D01*
X-586496D01*
X-578165D02*
X-574833D01*
X-576499D01*
Y244097D01*
X-578165Y242431D01*
X-563170Y244097D02*
X-569835D01*
Y239098D01*
X-566502Y240765D01*
X-564836D01*
X-563170Y239098D01*
Y235766D01*
X-564836Y234100D01*
X-568168D01*
X-569835Y235766D01*
X-559838Y244097D02*
Y237432D01*
X-556506Y234100D01*
X-553173Y237432D01*
Y244097D01*
X-29994Y329931D02*
X-28328Y331597D01*
X-24996D01*
X-23330Y329931D01*
Y328265D01*
X-24996Y326598D01*
X-26662D01*
X-24996D01*
X-23330Y324932D01*
Y323266D01*
X-24996Y321600D01*
X-28328D01*
X-29994Y323266D01*
X-19998Y321600D02*
Y323266D01*
X-18331D01*
Y321600D01*
X-19998D01*
X-11667Y329931D02*
X-10001Y331597D01*
X-6668D01*
X-5002Y329931D01*
Y328265D01*
X-6668Y326598D01*
X-8335D01*
X-6668D01*
X-5002Y324932D01*
Y323266D01*
X-6668Y321600D01*
X-10001D01*
X-11667Y323266D01*
X-1670Y331597D02*
Y324932D01*
X1662Y321600D01*
X4994Y324932D01*
Y331597D01*
X-99161Y595600D02*
X-95829D01*
X-97495D01*
Y605597D01*
X-99161Y603931D01*
X-90831Y595600D02*
Y597266D01*
X-89164D01*
Y595600D01*
X-90831D01*
X-82500Y603931D02*
X-80834Y605597D01*
X-77502D01*
X-75835Y603931D01*
Y602265D01*
X-77502Y600598D01*
X-75835Y598932D01*
Y597266D01*
X-77502Y595600D01*
X-80834D01*
X-82500Y597266D01*
Y598932D01*
X-80834Y600598D01*
X-82500Y602265D01*
Y603931D01*
X-80834Y600598D02*
X-77502D01*
X-72503Y605597D02*
Y598932D01*
X-69171Y595600D01*
X-65839Y598932D01*
Y605597D01*
X-326661Y409100D02*
X-323329D01*
X-324995D01*
Y419097D01*
X-326661Y417431D01*
X-318331Y409100D02*
Y410766D01*
X-316665D01*
Y409100D01*
X-318331D01*
X-310000Y417431D02*
X-308334Y419097D01*
X-305002D01*
X-303335Y417431D01*
Y410766D01*
X-305002Y409100D01*
X-308334D01*
X-310000Y410766D01*
Y417431D01*
X-300003Y419097D02*
Y412432D01*
X-296671Y409100D01*
X-293339Y412432D01*
Y419097D01*
M02*
