G04*
G04 #@! TF.GenerationSoftware,Altium Limited,Altium Designer,21.0.8 (223)*
G04*
G04 Layer_Color=8388736*
%FSLAX44Y44*%
%MOMM*%
G71*
G04*
G04 #@! TF.SameCoordinates,AAD5EB2A-8552-457D-BF93-D3A1E0B867CA*
G04*
G04*
G04 #@! TF.FilePolarity,Negative*
G04*
G01*
G75*
%ADD13R,0.3500X3.5000*%
%ADD24R,12.5000X3.5000*%
%ADD25R,3.2000X0.4500*%
%ADD26R,21.0000X3.2000*%
G04:AMPARAMS|DCode=27|XSize=0.7532mm|YSize=0.7032mm|CornerRadius=0mm|HoleSize=0mm|Usage=FLASHONLY|Rotation=315.000|XOffset=0mm|YOffset=0mm|HoleType=Round|Shape=Rectangle|*
%AMROTATEDRECTD27*
4,1,4,-0.5149,0.0177,-0.0177,0.5149,0.5149,-0.0177,0.0177,-0.5149,-0.5149,0.0177,0.0*
%
%ADD27ROTATEDRECTD27*%

G04:AMPARAMS|DCode=28|XSize=0.7032mm|YSize=0.7032mm|CornerRadius=0.1516mm|HoleSize=0mm|Usage=FLASHONLY|Rotation=0.000|XOffset=0mm|YOffset=0mm|HoleType=Round|Shape=RoundedRectangle|*
%AMROUNDEDRECTD28*
21,1,0.7032,0.4000,0,0,0.0*
21,1,0.4000,0.7032,0,0,0.0*
1,1,0.3032,0.2000,-0.2000*
1,1,0.3032,-0.2000,-0.2000*
1,1,0.3032,-0.2000,0.2000*
1,1,0.3032,0.2000,0.2000*
%
%ADD28ROUNDEDRECTD28*%
G04:AMPARAMS|DCode=29|XSize=2.3532mm|YSize=2.9032mm|CornerRadius=0.3166mm|HoleSize=0mm|Usage=FLASHONLY|Rotation=90.000|XOffset=0mm|YOffset=0mm|HoleType=Round|Shape=RoundedRectangle|*
%AMROUNDEDRECTD29*
21,1,2.3532,2.2700,0,0,90.0*
21,1,1.7200,2.9032,0,0,90.0*
1,1,0.6332,1.1350,0.8600*
1,1,0.6332,1.1350,-0.8600*
1,1,0.6332,-1.1350,-0.8600*
1,1,0.6332,-1.1350,0.8600*
%
%ADD29ROUNDEDRECTD29*%
G04:AMPARAMS|DCode=30|XSize=2.3532mm|YSize=2.9032mm|CornerRadius=0.3166mm|HoleSize=0mm|Usage=FLASHONLY|Rotation=0.000|XOffset=0mm|YOffset=0mm|HoleType=Round|Shape=RoundedRectangle|*
%AMROUNDEDRECTD30*
21,1,2.3532,2.2700,0,0,0.0*
21,1,1.7200,2.9032,0,0,0.0*
1,1,0.6332,0.8600,-1.1350*
1,1,0.6332,-0.8600,-1.1350*
1,1,0.6332,-0.8600,1.1350*
1,1,0.6332,0.8600,1.1350*
%
%ADD30ROUNDEDRECTD30*%
%ADD31R,0.9032X3.2032*%
%ADD32R,0.8532X1.2032*%
%ADD33R,0.8232X0.7832*%
%ADD34R,0.7832X0.8232*%
%ADD35C,1.0032*%
G04:AMPARAMS|DCode=36|XSize=0.8532mm|YSize=0.8532mm|CornerRadius=0.2641mm|HoleSize=0mm|Usage=FLASHONLY|Rotation=0.000|XOffset=0mm|YOffset=0mm|HoleType=Round|Shape=RoundedRectangle|*
%AMROUNDEDRECTD36*
21,1,0.8532,0.3250,0,0,0.0*
21,1,0.3250,0.8532,0,0,0.0*
1,1,0.5282,0.1625,-0.1625*
1,1,0.5282,-0.1625,-0.1625*
1,1,0.5282,-0.1625,0.1625*
1,1,0.5282,0.1625,0.1625*
%
%ADD36ROUNDEDRECTD36*%
%ADD37C,1.2032*%
%ADD38C,2.8032*%
%ADD39C,8.2032*%
%ADD40C,1.0532*%
G36*
X57750Y332000D02*
X57750Y342750D01*
X57750Y342899D01*
X57864Y343175D01*
X58075Y343386D01*
X58351Y343500D01*
X58500Y343500D01*
X58500Y343500D01*
X110500Y343500D01*
X110649D01*
X110925Y343386D01*
X111136Y343175D01*
X111250Y342899D01*
X111250Y342750D01*
X111250Y342750D01*
X111250Y332000D01*
X57750D01*
D02*
G37*
D13*
X109500Y663200D02*
D03*
X104500D02*
D03*
X99500D02*
D03*
X94500D02*
D03*
X89500D02*
D03*
X84500D02*
D03*
X79500D02*
D03*
X74500D02*
D03*
X69500D02*
D03*
X64500D02*
D03*
X59500D02*
D03*
X54500D02*
D03*
X49500D02*
D03*
X44500D02*
D03*
X39500D02*
D03*
X34500D02*
D03*
X29500D02*
D03*
X24500D02*
D03*
X19500D02*
D03*
X14500D02*
D03*
X9500D02*
D03*
X4500D02*
D03*
X-500D02*
D03*
X-5500D02*
D03*
D24*
X52000Y663200D02*
D03*
D25*
X500Y381250D02*
D03*
D26*
X-370500Y665701D02*
D03*
D27*
X87717Y365717D02*
D03*
X94434Y372434D02*
D03*
D28*
X47000Y370000D02*
D03*
Y363000D02*
D03*
D29*
X25000Y327000D02*
D03*
Y262500D02*
D03*
X-576500Y213000D02*
D03*
Y149000D02*
D03*
D30*
X-375000Y440000D02*
D03*
X-311000D02*
D03*
X-83500Y626500D02*
D03*
X-148000D02*
D03*
D31*
X-285500Y665700D02*
D03*
X-305500D02*
D03*
X-325500D02*
D03*
X-345500D02*
D03*
X-365500D02*
D03*
X-385500D02*
D03*
X-405500D02*
D03*
X-425500D02*
D03*
X-445500D02*
D03*
X-465500D02*
D03*
X-275500D02*
D03*
X-295500D02*
D03*
X-315500D02*
D03*
X-335500D02*
D03*
X-355500D02*
D03*
X-375500D02*
D03*
X-395500D02*
D03*
X-415500D02*
D03*
X-435500D02*
D03*
X-455500D02*
D03*
D32*
X-373500Y312200D02*
D03*
X-383000Y336200D02*
D03*
X-364000D02*
D03*
D33*
X-397500Y319400D02*
D03*
Y329000D02*
D03*
D34*
X-373300Y350200D02*
D03*
X-363700D02*
D03*
X-373300Y361700D02*
D03*
X-363700D02*
D03*
D35*
X-19000Y250000D02*
D03*
D36*
X81000Y359000D02*
D03*
D37*
X30000Y0D02*
D03*
X0Y30000D02*
D03*
X21213Y21213D02*
D03*
Y-21213D02*
D03*
X-21213D02*
D03*
X-30000Y0D02*
D03*
X0Y-30000D02*
D03*
X-610000Y420000D02*
D03*
X-580000Y390000D02*
D03*
X-601213Y398787D02*
D03*
Y441213D02*
D03*
X-558787D02*
D03*
X-550000Y420000D02*
D03*
X-580000Y450000D02*
D03*
X-30000Y420000D02*
D03*
X0Y390000D02*
D03*
X-21213Y398787D02*
D03*
Y441213D02*
D03*
X21213D02*
D03*
X30000Y420000D02*
D03*
X0Y450000D02*
D03*
X21213Y398787D02*
D03*
D38*
X-555680Y395680D02*
D03*
X-24325Y24325D02*
D03*
D39*
X-580000Y420000D02*
D03*
X0D02*
D03*
Y0D02*
D03*
D40*
X59500Y-24500D02*
D03*
X69500D02*
D03*
X29500Y-52500D02*
D03*
X39500D02*
D03*
M02*
