G04*
G04 #@! TF.GenerationSoftware,Altium Limited,Altium Designer,21.0.8 (223)*
G04*
G04 Layer_Physical_Order=1*
G04 Layer_Color=255*
%FSLAX44Y44*%
%MOMM*%
G71*
G04*
G04 #@! TF.SameCoordinates,AAD5EB2A-8552-457D-BF93-D3A1E0B867CA*
G04*
G04*
G04 #@! TF.FilePolarity,Positive*
G04*
G01*
G75*
%ADD11C,0.2000*%
%ADD13R,0.3500X3.5000*%
G04:AMPARAMS|DCode=14|XSize=0.55mm|YSize=0.5mm|CornerRadius=0mm|HoleSize=0mm|Usage=FLASHONLY|Rotation=315.000|XOffset=0mm|YOffset=0mm|HoleType=Round|Shape=Rectangle|*
%AMROTATEDRECTD14*
4,1,4,-0.3712,0.0177,-0.0177,0.3712,0.3712,-0.0177,0.0177,-0.3712,-0.3712,0.0177,0.0*
%
%ADD14ROTATEDRECTD14*%

G04:AMPARAMS|DCode=15|XSize=0.5mm|YSize=0.5mm|CornerRadius=0.05mm|HoleSize=0mm|Usage=FLASHONLY|Rotation=0.000|XOffset=0mm|YOffset=0mm|HoleType=Round|Shape=RoundedRectangle|*
%AMROUNDEDRECTD15*
21,1,0.5000,0.4000,0,0,0.0*
21,1,0.4000,0.5000,0,0,0.0*
1,1,0.1000,0.2000,-0.2000*
1,1,0.1000,-0.2000,-0.2000*
1,1,0.1000,-0.2000,0.2000*
1,1,0.1000,0.2000,0.2000*
%
%ADD15ROUNDEDRECTD15*%
G04:AMPARAMS|DCode=16|XSize=0.475mm|YSize=0.7mm|CornerRadius=0.1188mm|HoleSize=0mm|Usage=FLASHONLY|Rotation=0.000|XOffset=0mm|YOffset=0mm|HoleType=Round|Shape=RoundedRectangle|*
%AMROUNDEDRECTD16*
21,1,0.4750,0.4625,0,0,0.0*
21,1,0.2375,0.7000,0,0,0.0*
1,1,0.2375,0.1188,-0.2313*
1,1,0.2375,-0.1188,-0.2313*
1,1,0.2375,-0.1188,0.2313*
1,1,0.2375,0.1188,0.2313*
%
%ADD16ROUNDEDRECTD16*%
G04:AMPARAMS|DCode=17|XSize=0.35mm|YSize=0.7mm|CornerRadius=0.0875mm|HoleSize=0mm|Usage=FLASHONLY|Rotation=0.000|XOffset=0mm|YOffset=0mm|HoleType=Round|Shape=RoundedRectangle|*
%AMROUNDEDRECTD17*
21,1,0.3500,0.5250,0,0,0.0*
21,1,0.1750,0.7000,0,0,0.0*
1,1,0.1750,0.0875,-0.2625*
1,1,0.1750,-0.0875,-0.2625*
1,1,0.1750,-0.0875,0.2625*
1,1,0.1750,0.0875,0.2625*
%
%ADD17ROUNDEDRECTD17*%
G04:AMPARAMS|DCode=18|XSize=2.15mm|YSize=2.7mm|CornerRadius=0.215mm|HoleSize=0mm|Usage=FLASHONLY|Rotation=90.000|XOffset=0mm|YOffset=0mm|HoleType=Round|Shape=RoundedRectangle|*
%AMROUNDEDRECTD18*
21,1,2.1500,2.2700,0,0,90.0*
21,1,1.7200,2.7000,0,0,90.0*
1,1,0.4300,1.1350,0.8600*
1,1,0.4300,1.1350,-0.8600*
1,1,0.4300,-1.1350,-0.8600*
1,1,0.4300,-1.1350,0.8600*
%
%ADD18ROUNDEDRECTD18*%
G04:AMPARAMS|DCode=19|XSize=2.15mm|YSize=2.7mm|CornerRadius=0.215mm|HoleSize=0mm|Usage=FLASHONLY|Rotation=0.000|XOffset=0mm|YOffset=0mm|HoleType=Round|Shape=RoundedRectangle|*
%AMROUNDEDRECTD19*
21,1,2.1500,2.2700,0,0,0.0*
21,1,1.7200,2.7000,0,0,0.0*
1,1,0.4300,0.8600,-1.1350*
1,1,0.4300,-0.8600,-1.1350*
1,1,0.4300,-0.8600,1.1350*
1,1,0.4300,0.8600,1.1350*
%
%ADD19ROUNDEDRECTD19*%
%ADD20R,0.7000X3.0000*%
%ADD21R,0.6500X1.0000*%
%ADD22R,0.6200X0.5800*%
%ADD23R,0.5800X0.6200*%
%ADD41C,0.1500*%
%ADD42C,0.2000*%
%ADD43C,0.3500*%
%ADD44C,0.7000*%
%ADD45C,0.8000*%
G04:AMPARAMS|DCode=46|XSize=0.65mm|YSize=0.65mm|CornerRadius=0.1625mm|HoleSize=0mm|Usage=FLASHONLY|Rotation=0.000|XOffset=0mm|YOffset=0mm|HoleType=Round|Shape=RoundedRectangle|*
%AMROUNDEDRECTD46*
21,1,0.6500,0.3250,0,0,0.0*
21,1,0.3250,0.6500,0,0,0.0*
1,1,0.3250,0.1625,-0.1625*
1,1,0.3250,-0.1625,-0.1625*
1,1,0.3250,-0.1625,0.1625*
1,1,0.3250,0.1625,0.1625*
%
%ADD46ROUNDEDRECTD46*%
%ADD47C,1.0000*%
%ADD48C,2.6000*%
%ADD49C,8.0000*%
%ADD50C,0.8500*%
%ADD51C,0.7000*%
G36*
X-404378Y650749D02*
X-404456Y650711D01*
X-404525Y650649D01*
X-404585Y650563D01*
X-404635Y650451D01*
X-404677Y650315D01*
X-404709Y650154D01*
X-404732Y649968D01*
X-404745Y649757D01*
X-404750Y649522D01*
X-406250D01*
X-406255Y649757D01*
X-406291Y650154D01*
X-406323Y650315D01*
X-406365Y650451D01*
X-406415Y650563D01*
X-406475Y650649D01*
X-406544Y650711D01*
X-406622Y650749D01*
X-406709Y650761D01*
X-404291D01*
X-404378Y650749D01*
D02*
G37*
G36*
X-322111Y655611D02*
X-322134Y655311D01*
X-322132Y654942D01*
X-322103Y654502D01*
X-321967Y653412D01*
X-321566Y651254D01*
X-321381Y650394D01*
X-322750Y649393D01*
X-322862Y649866D01*
X-323074Y650589D01*
X-323175Y650838D01*
X-323272Y651012D01*
X-323365Y651112D01*
X-323455Y651136D01*
X-323540Y651086D01*
X-323623Y650961D01*
X-323701Y650761D01*
X-322061Y655841D01*
X-322111Y655611D01*
D02*
G37*
G36*
X-414142Y650746D02*
X-414270Y650700D01*
X-414383Y650623D01*
X-414480Y650516D01*
X-414562Y650378D01*
X-414630Y650210D01*
X-414683Y650011D01*
X-414720Y649781D01*
X-414743Y649521D01*
X-414750Y649230D01*
X-416250D01*
X-416258Y649521D01*
X-416280Y649781D01*
X-416317Y650011D01*
X-416370Y650210D01*
X-416437Y650378D01*
X-416520Y650516D01*
X-416618Y650623D01*
X-416730Y650700D01*
X-416857Y650746D01*
X-417000Y650761D01*
X-414000D01*
X-414142Y650746D01*
D02*
G37*
G36*
X-317535Y650747D02*
X-317667Y650710D01*
X-317782Y650651D01*
X-317883Y650570D01*
X-317967Y650467D01*
X-318036Y650341D01*
X-318090Y650192D01*
X-318128Y650022D01*
X-318150Y649829D01*
X-318156Y649613D01*
X-318994Y649200D01*
X-318969Y650731D01*
X-317388Y650761D01*
X-317535Y650747D01*
D02*
G37*
G36*
X-442000Y651700D02*
Y648700D01*
X-441971Y648407D01*
X-441747Y647867D01*
X-441333Y647453D01*
X-440793Y647229D01*
X-440500Y647200D01*
X-440207Y647229D01*
X-439667Y647453D01*
X-439253Y647867D01*
X-439029Y648407D01*
X-439000Y648700D01*
Y651700D01*
X-432000Y651700D01*
Y645699D01*
X-431875Y644431D01*
X-430905Y642088D01*
X-429112Y640295D01*
X-426769Y639325D01*
X-425501Y639200D01*
X-425501Y639200D01*
X-417501Y639200D01*
X-417003Y639200D01*
X-416084Y638819D01*
X-415381Y638116D01*
X-415269Y637844D01*
X-415001Y636701D01*
Y636700D01*
X-415001Y636700D01*
X-415000Y636699D01*
X-415000Y597000D01*
X-415000Y302500D01*
X-415000Y301406D01*
X-415837Y299384D01*
X-417385Y297837D01*
X-419256Y297062D01*
X-420500Y297000D01*
X-421770Y297000D01*
X-521000Y297000D01*
X-522029Y296949D01*
X-524048Y296548D01*
X-525950Y295760D01*
X-527662Y294617D01*
X-529117Y293161D01*
X-530261Y291450D01*
X-531048Y289548D01*
X-531409Y287732D01*
X-531450Y287529D01*
X-531500Y286500D01*
X-531500D01*
X-531500Y286500D01*
X-531500Y107000D01*
X-531500Y106261D01*
X-531788Y104812D01*
X-532354Y103447D01*
X-533174Y102219D01*
X-534219Y101174D01*
X-535448Y100353D01*
X-536812Y99788D01*
X-537771Y99598D01*
X-539000Y99500D01*
Y99500D01*
X-616500Y99500D01*
X-617534Y99500D01*
X-619563Y99903D01*
X-621474Y100695D01*
X-623193Y101844D01*
X-624656Y103307D01*
X-625805Y105026D01*
X-626597Y106937D01*
X-627000Y108966D01*
X-627000Y110000D01*
X-627000Y110000D01*
X-627000Y372500D01*
X-627000Y373395D01*
X-626315Y375049D01*
X-625049Y376315D01*
X-623396Y377000D01*
X-622500Y377000D01*
X-622500Y377000D01*
X-562400Y377000D01*
X-559911Y377122D01*
X-555027Y378094D01*
X-550427Y379999D01*
X-546287Y382765D01*
X-542766Y386286D01*
X-540000Y390426D01*
X-538094Y395026D01*
X-537123Y399910D01*
X-537000Y402399D01*
X-537000Y402400D01*
X-537000Y462500D01*
X-537000Y463395D01*
X-536315Y465049D01*
X-535050Y466315D01*
X-533396Y467000D01*
X-532501Y467000D01*
X-532501Y467000D01*
X-499500Y467000D01*
X-497734Y467058D01*
X-494233Y467519D01*
X-490821Y468433D01*
X-487558Y469784D01*
X-484500Y471550D01*
X-481698Y473700D01*
X-479201Y476198D01*
X-477051Y478999D01*
X-475285Y482058D01*
X-473933Y485321D01*
X-473019Y488732D01*
X-472558Y492234D01*
X-472500Y494000D01*
X-472500Y494000D01*
X-472500Y597000D01*
Y636700D01*
X-472500Y637197D01*
X-472120Y638116D01*
X-471416Y638819D01*
X-470498Y639200D01*
X-470000Y639200D01*
X-470000Y639200D01*
X-465500Y639200D01*
X-464232Y639325D01*
X-461889Y640295D01*
X-460096Y642088D01*
X-459125Y644432D01*
X-459000Y645699D01*
X-459000Y645700D01*
X-459000Y651700D01*
X-452000D01*
Y648699D01*
X-451971Y648407D01*
X-451748Y647866D01*
X-451334Y647453D01*
X-450794Y647229D01*
X-450501Y647200D01*
X-450208Y647229D01*
X-449668Y647452D01*
X-449254Y647866D01*
X-449030Y648407D01*
X-449001Y648699D01*
X-449001Y648699D01*
X-449000Y651700D01*
X-442000Y651700D01*
D02*
G37*
G36*
X-342000Y645699D02*
X-341875Y644431D01*
X-340905Y642088D01*
X-339112Y640295D01*
X-336769Y639325D01*
X-335501Y639200D01*
X-335300D01*
X-334071Y639321D01*
X-331800Y640261D01*
X-330062Y641999D01*
X-329122Y644270D01*
X-329001Y645499D01*
X-329000Y645500D01*
X-329000Y646001D01*
X-328528Y646884D01*
X-327695Y647440D01*
X-326699Y647539D01*
X-326236Y647347D01*
X-326235Y647347D01*
X-323867Y646367D01*
X-322000Y644500D01*
X-321413Y643961D01*
X-320110Y643046D01*
X-318669Y642367D01*
X-317133Y641946D01*
X-316344Y641837D01*
X-316344D01*
X-313806Y639813D01*
X-313088Y638999D01*
X-312874Y638867D01*
X-312639Y638561D01*
X-310548Y636956D01*
X-310063Y636756D01*
X-309391Y636306D01*
X-308154Y635794D01*
X-306841Y635533D01*
X-306172Y635500D01*
X-305304D01*
X-304069Y634989D01*
X-304038Y634958D01*
X-303143Y634057D01*
X-302934Y633744D01*
X-302500Y632696D01*
Y632000D01*
X-302500Y486793D01*
X-302380Y484253D01*
X-301423Y479263D01*
X-299544Y474542D01*
X-296810Y470260D01*
X-295152Y468332D01*
X-272454Y444337D01*
X-271272Y443087D01*
X-269420Y440187D01*
X-268148Y436991D01*
X-267500Y433612D01*
X-267500Y431892D01*
X-267500D01*
X-267500Y426021D01*
X-267378Y423531D01*
X-266406Y418648D01*
X-264501Y414047D01*
X-261735Y409907D01*
X-260061Y408060D01*
X-260061Y408060D01*
X-256707Y404707D01*
X-256000Y403000D01*
Y402204D01*
X-256609Y400734D01*
X-257734Y399609D01*
X-259204Y399000D01*
X-260000D01*
X-395800Y399000D01*
X-396953Y399000D01*
X-399213Y399450D01*
X-401342Y400331D01*
X-403259Y401612D01*
X-404888Y403241D01*
X-406169Y405158D01*
X-407051Y407287D01*
X-407500Y409547D01*
X-407500Y410700D01*
Y470500D01*
X-407500Y470700D01*
Y636200D01*
X-404500Y639200D01*
X-395500D01*
X-394232Y639325D01*
X-391889Y640295D01*
X-390096Y642088D01*
X-389125Y644432D01*
X-389000Y645700D01*
X-389000Y645700D01*
X-389000Y651700D01*
X-382000D01*
Y648700D01*
X-381971Y648407D01*
X-381747Y647867D01*
X-381334Y647453D01*
X-381333Y647453D01*
X-380793Y647229D01*
X-380500Y647200D01*
X-380208Y647229D01*
X-379668Y647452D01*
X-379667Y647453D01*
X-379254Y647866D01*
X-379030Y648407D01*
X-379001Y648699D01*
X-379000Y648700D01*
X-379000Y651700D01*
X-372000D01*
Y645700D01*
X-371875Y644432D01*
X-370905Y642089D01*
X-369112Y640295D01*
X-366769Y639325D01*
X-365501Y639200D01*
X-365500D01*
X-364232Y639325D01*
X-361889Y640295D01*
X-360096Y642088D01*
X-359126Y644431D01*
X-359001Y645699D01*
X-359000Y645700D01*
X-359000Y651700D01*
X-352000D01*
Y648700D01*
X-351971Y648407D01*
X-351747Y647867D01*
X-351333Y647453D01*
X-350793Y647229D01*
X-350500Y647200D01*
X-350207Y647229D01*
X-349667Y647453D01*
X-349253Y647867D01*
X-349029Y648407D01*
X-349000Y648700D01*
X-349000Y648700D01*
X-349000Y651700D01*
X-342000D01*
Y645699D01*
D02*
G37*
G36*
X105857Y645715D02*
X105730Y645670D01*
X105618Y645595D01*
X105520Y645490D01*
X105437Y645356D01*
X105370Y645191D01*
X105317Y644995D01*
X105280Y644771D01*
X105258Y644516D01*
X105250Y644230D01*
X103750D01*
X103743Y644516D01*
X103720Y644771D01*
X103682Y644995D01*
X103630Y645191D01*
X103562Y645356D01*
X103480Y645490D01*
X103383Y645595D01*
X103270Y645670D01*
X103142Y645715D01*
X103000Y645731D01*
X106000D01*
X105857Y645715D01*
D02*
G37*
G36*
X95857D02*
X95730Y645670D01*
X95618Y645595D01*
X95520Y645490D01*
X95437Y645356D01*
X95370Y645191D01*
X95317Y644995D01*
X95280Y644771D01*
X95258Y644516D01*
X95250Y644230D01*
X93750D01*
X93743Y644516D01*
X93720Y644771D01*
X93682Y644995D01*
X93630Y645191D01*
X93562Y645356D01*
X93480Y645490D01*
X93383Y645595D01*
X93270Y645670D01*
X93142Y645715D01*
X93000Y645731D01*
X96000D01*
X95857Y645715D01*
D02*
G37*
G36*
X85857D02*
X85730Y645670D01*
X85618Y645595D01*
X85520Y645490D01*
X85437Y645356D01*
X85370Y645191D01*
X85317Y644995D01*
X85280Y644771D01*
X85258Y644516D01*
X85250Y644230D01*
X83750D01*
X83743Y644516D01*
X83720Y644771D01*
X83682Y644995D01*
X83630Y645191D01*
X83562Y645356D01*
X83480Y645490D01*
X83383Y645595D01*
X83270Y645670D01*
X83142Y645715D01*
X83000Y645731D01*
X86000D01*
X85857Y645715D01*
D02*
G37*
G36*
X80857D02*
X80730Y645670D01*
X80617Y645595D01*
X80520Y645490D01*
X80437Y645356D01*
X80370Y645191D01*
X80317Y644995D01*
X80280Y644771D01*
X80257Y644516D01*
X80250Y644230D01*
X78750D01*
X78742Y644516D01*
X78720Y644771D01*
X78682Y644995D01*
X78630Y645191D01*
X78562Y645356D01*
X78480Y645490D01*
X78382Y645595D01*
X78270Y645670D01*
X78142Y645715D01*
X78000Y645731D01*
X81000D01*
X80857Y645715D01*
D02*
G37*
G36*
X70858D02*
X70730Y645670D01*
X70617Y645595D01*
X70520Y645490D01*
X70437Y645356D01*
X70370Y645191D01*
X70318Y644995D01*
X70280Y644771D01*
X70258Y644516D01*
X70250Y644230D01*
X68750D01*
X68742Y644516D01*
X68720Y644771D01*
X68682Y644995D01*
X68630Y645191D01*
X68562Y645356D01*
X68480Y645490D01*
X68383Y645595D01*
X68270Y645670D01*
X68142Y645715D01*
X68000Y645731D01*
X71000D01*
X70858Y645715D01*
D02*
G37*
G36*
X60858D02*
X60730Y645670D01*
X60617Y645595D01*
X60520Y645490D01*
X60437Y645356D01*
X60370Y645191D01*
X60318Y644995D01*
X60280Y644771D01*
X60258Y644516D01*
X60250Y644230D01*
X58750D01*
X58742Y644516D01*
X58720Y644771D01*
X58682Y644995D01*
X58630Y645191D01*
X58562Y645356D01*
X58480Y645490D01*
X58383Y645595D01*
X58270Y645670D01*
X58142Y645715D01*
X58000Y645731D01*
X61000D01*
X60858Y645715D01*
D02*
G37*
G36*
X50858D02*
X50730Y645670D01*
X50617Y645595D01*
X50520Y645490D01*
X50437Y645356D01*
X50370Y645191D01*
X50318Y644995D01*
X50280Y644771D01*
X50258Y644516D01*
X50250Y644230D01*
X48750D01*
X48742Y644516D01*
X48720Y644771D01*
X48682Y644995D01*
X48630Y645191D01*
X48562Y645356D01*
X48480Y645490D01*
X48383Y645595D01*
X48270Y645670D01*
X48142Y645715D01*
X48000Y645731D01*
X51000D01*
X50858Y645715D01*
D02*
G37*
G36*
X40857D02*
X40730Y645670D01*
X40617Y645595D01*
X40520Y645490D01*
X40437Y645356D01*
X40370Y645191D01*
X40317Y644995D01*
X40280Y644771D01*
X40258Y644516D01*
X40250Y644230D01*
X38750D01*
X38742Y644516D01*
X38720Y644771D01*
X38682Y644995D01*
X38630Y645191D01*
X38562Y645356D01*
X38480Y645490D01*
X38382Y645595D01*
X38270Y645670D01*
X38142Y645715D01*
X38000Y645731D01*
X41000D01*
X40857Y645715D01*
D02*
G37*
G36*
X29857D02*
X29730Y645670D01*
X29618Y645595D01*
X29520Y645490D01*
X29437Y645356D01*
X29370Y645191D01*
X29318Y644995D01*
X29280Y644771D01*
X29258Y644516D01*
X29250Y644230D01*
X27750D01*
X27780Y645731D01*
X30000D01*
X29857Y645715D01*
D02*
G37*
G36*
X26225D02*
X26230Y645670D01*
X26235Y645595D01*
X26250Y644230D01*
X24750D01*
X24743Y644516D01*
X24720Y644771D01*
X24683Y644995D01*
X24630Y645191D01*
X24562Y645356D01*
X24480Y645490D01*
X24383Y645595D01*
X24270Y645670D01*
X24142Y645715D01*
X24000Y645731D01*
X26219D01*
X26225Y645715D01*
D02*
G37*
G36*
X15857D02*
X15730Y645670D01*
X15618Y645595D01*
X15520Y645490D01*
X15438Y645356D01*
X15370Y645191D01*
X15317Y644995D01*
X15280Y644771D01*
X15258Y644516D01*
X15250Y644230D01*
X13750D01*
X13743Y644516D01*
X13720Y644771D01*
X13683Y644995D01*
X13630Y645191D01*
X13563Y645356D01*
X13480Y645490D01*
X13383Y645595D01*
X13270Y645670D01*
X13142Y645715D01*
X13000Y645731D01*
X16000D01*
X15857Y645715D01*
D02*
G37*
G36*
X9858D02*
X9730Y645670D01*
X9617Y645595D01*
X9520Y645490D01*
X9437Y645356D01*
X9370Y645191D01*
X9317Y644995D01*
X9280Y644771D01*
X9258Y644516D01*
X9250Y644230D01*
X7750D01*
X7781Y645731D01*
X10000D01*
X9858Y645715D01*
D02*
G37*
G36*
X6225D02*
X6230Y645670D01*
X6235Y645595D01*
X6250Y644230D01*
X4750D01*
X4742Y644516D01*
X4720Y644771D01*
X4683Y644995D01*
X4630Y645191D01*
X4563Y645356D01*
X4480Y645490D01*
X4383Y645595D01*
X4270Y645670D01*
X4142Y645715D01*
X4000Y645731D01*
X6219D01*
X6225Y645715D01*
D02*
G37*
G36*
X111049Y645711D02*
X110897Y645650D01*
X110763Y645551D01*
X110646Y645411D01*
X110548Y645230D01*
X110467Y645011D01*
X110405Y644751D01*
X110360Y644451D01*
X110333Y644110D01*
X110324Y643730D01*
X108324D01*
X108319Y644110D01*
X108275Y644751D01*
X108237Y645011D01*
X108188Y645230D01*
X108128Y645411D01*
X108058Y645551D01*
X107976Y645650D01*
X107884Y645711D01*
X107781Y645731D01*
X111220D01*
X111049Y645711D01*
D02*
G37*
G36*
X101083D02*
X100960Y645650D01*
X100852Y645551D01*
X100759Y645411D01*
X100680Y645230D01*
X100615Y645011D01*
X100565Y644751D01*
X100529Y644451D01*
X100507Y644110D01*
X100500Y643730D01*
X98500D01*
X98493Y644110D01*
X98435Y644751D01*
X98385Y645011D01*
X98320Y645230D01*
X98241Y645411D01*
X98147Y645551D01*
X98040Y645650D01*
X97917Y645711D01*
X97780Y645731D01*
X101220D01*
X101083Y645711D01*
D02*
G37*
G36*
X91083D02*
X90960Y645650D01*
X90852Y645551D01*
X90759Y645411D01*
X90680Y645230D01*
X90615Y645011D01*
X90565Y644751D01*
X90529Y644451D01*
X90507Y644110D01*
X90500Y643730D01*
X88500D01*
X88493Y644110D01*
X88435Y644751D01*
X88385Y645011D01*
X88320Y645230D01*
X88241Y645411D01*
X88147Y645551D01*
X88040Y645650D01*
X87917Y645711D01*
X87780Y645731D01*
X91220D01*
X91083Y645711D01*
D02*
G37*
G36*
X76083D02*
X75960Y645650D01*
X75852Y645551D01*
X75759Y645411D01*
X75680Y645230D01*
X75615Y645011D01*
X75565Y644751D01*
X75529Y644451D01*
X75507Y644110D01*
X75500Y643730D01*
X73500D01*
X73493Y644110D01*
X73435Y644751D01*
X73385Y645011D01*
X73320Y645230D01*
X73241Y645411D01*
X73147Y645551D01*
X73039Y645650D01*
X72917Y645711D01*
X72780Y645731D01*
X76220D01*
X76083Y645711D01*
D02*
G37*
G36*
X66083D02*
X65960Y645650D01*
X65852Y645551D01*
X65759Y645411D01*
X65680Y645230D01*
X65615Y645011D01*
X65565Y644751D01*
X65529Y644451D01*
X65507Y644110D01*
X65500Y643730D01*
X63500D01*
X63493Y644110D01*
X63435Y644751D01*
X63385Y645011D01*
X63320Y645230D01*
X63241Y645411D01*
X63147Y645551D01*
X63039Y645650D01*
X62917Y645711D01*
X62780Y645731D01*
X66220D01*
X66083Y645711D01*
D02*
G37*
G36*
X56083D02*
X55960Y645650D01*
X55852Y645551D01*
X55759Y645411D01*
X55680Y645230D01*
X55615Y645011D01*
X55565Y644751D01*
X55529Y644451D01*
X55507Y644110D01*
X55500Y643730D01*
X53500D01*
X53493Y644110D01*
X53435Y644751D01*
X53385Y645011D01*
X53320Y645230D01*
X53241Y645411D01*
X53147Y645551D01*
X53039Y645650D01*
X52917Y645711D01*
X52780Y645731D01*
X56220D01*
X56083Y645711D01*
D02*
G37*
G36*
X46083D02*
X45960Y645650D01*
X45852Y645551D01*
X45759Y645411D01*
X45680Y645230D01*
X45615Y645011D01*
X45565Y644751D01*
X45529Y644451D01*
X45507Y644110D01*
X45500Y643730D01*
X43500D01*
X43493Y644110D01*
X43435Y644751D01*
X43385Y645011D01*
X43320Y645230D01*
X43241Y645411D01*
X43147Y645551D01*
X43039Y645650D01*
X42917Y645711D01*
X42780Y645731D01*
X46220D01*
X46083Y645711D01*
D02*
G37*
G36*
X36083D02*
X35960Y645650D01*
X35852Y645551D01*
X35759Y645411D01*
X35680Y645230D01*
X35615Y645011D01*
X35565Y644751D01*
X35529Y644451D01*
X35507Y644110D01*
X35500Y643730D01*
X33500D01*
X33493Y644110D01*
X33435Y644751D01*
X33385Y645011D01*
X33320Y645230D01*
X33241Y645411D01*
X33147Y645551D01*
X33040Y645650D01*
X32917Y645711D01*
X32780Y645731D01*
X36219D01*
X36083Y645711D01*
D02*
G37*
G36*
X-272000Y648700D02*
X-270939Y646139D01*
X-270500Y645700D01*
X-270500Y645700D01*
X-270025Y645225D01*
X-269277Y644107D01*
X-268763Y642865D01*
X-268500Y641546D01*
Y640873D01*
X-268500Y640872D01*
X-268500Y612734D01*
X-268500D01*
X-268500Y534700D01*
X-268461Y533916D01*
X-268156Y532378D01*
X-267555Y530929D01*
X-266684Y529625D01*
X-265575Y528516D01*
X-264271Y527645D01*
X-262822Y527044D01*
X-261284Y526739D01*
X-260500Y526700D01*
X-259667Y526741D01*
X-258033Y527066D01*
X-256493Y527704D01*
X-255108Y528629D01*
X-253930Y529808D01*
X-253004Y531193D01*
X-252366Y532732D01*
X-252041Y534367D01*
X-252000Y535200D01*
X-252000Y580283D01*
X-252000Y581479D01*
X-252000Y581479D01*
X-252000Y581479D01*
X-252000Y581479D01*
X-252000Y583981D01*
X-251024Y588888D01*
X-249109Y593510D01*
X-246330Y597670D01*
X-244561Y599439D01*
X-207000Y637000D01*
X-207000Y637000D01*
Y637000D01*
X-205811Y638189D01*
X-203015Y640057D01*
X-199908Y641344D01*
X-196610Y642000D01*
X-194929Y642000D01*
X-158853Y642000D01*
X-158682Y641775D01*
X-158871Y640121D01*
X-159567Y639079D01*
X-159812Y637850D01*
Y615150D01*
X-159567Y613921D01*
X-158871Y612879D01*
X-157829Y612183D01*
X-156600Y611938D01*
X-155133D01*
X-155000Y611912D01*
X-154867Y611938D01*
X-141133D01*
X-141000Y611912D01*
X-140867Y611938D01*
X-139400D01*
X-138171Y612183D01*
X-137129Y612879D01*
X-136433Y613921D01*
X-136188Y615150D01*
Y637850D01*
X-136433Y639079D01*
X-137129Y640121D01*
X-137318Y641775D01*
X-137148Y642000D01*
X-76500Y642000D01*
X-75000D01*
Y642000D01*
X-74261Y642000D01*
X-72812Y641712D01*
X-71447Y641146D01*
X-70219Y640326D01*
X-69174Y639281D01*
X-68354Y638053D01*
X-67788Y636688D01*
X-67500Y635239D01*
X-67500Y634500D01*
X-67500Y590000D01*
X-67500D01*
Y588906D01*
X-68337Y586884D01*
X-69885Y585337D01*
X-71906Y584500D01*
X-73000Y584500D01*
X-210500Y584500D01*
Y584500D01*
X-211676Y584442D01*
X-213983Y583983D01*
X-216157Y583083D01*
X-218113Y581776D01*
X-219776Y580113D01*
X-221083Y578157D01*
X-221983Y575983D01*
X-222442Y573676D01*
X-222500Y572500D01*
X-222500Y518000D01*
X-222500D01*
Y517005D01*
X-223261Y515168D01*
X-224668Y513761D01*
X-226506Y513000D01*
X-260000Y513000D01*
X-262167Y513000D01*
X-266417Y513845D01*
X-270421Y515504D01*
X-274024Y517911D01*
X-277089Y520976D01*
X-279496Y524579D01*
X-281155Y528583D01*
X-282000Y532833D01*
X-282000Y535000D01*
X-282000Y612734D01*
X-282000Y640993D01*
X-281522Y642146D01*
X-281000Y643200D01*
X-281000D01*
X-281000Y643200D01*
X-280550Y643696D01*
X-280243Y644156D01*
X-279806Y644809D01*
X-279294Y646046D01*
X-279033Y647358D01*
X-279000Y648028D01*
X-279000Y652200D01*
X-272000D01*
Y648700D01*
D02*
G37*
G36*
X100518Y583941D02*
X100572Y583608D01*
X100662Y583272D01*
X100788Y582933D01*
X100950Y582593D01*
X101148Y582250D01*
X101382Y581905D01*
X101652Y581558D01*
X101958Y581208D01*
X102300Y580857D01*
X96700D01*
X97042Y581208D01*
X97618Y581905D01*
X97852Y582250D01*
X98050Y582593D01*
X98212Y582933D01*
X98338Y583272D01*
X98428Y583608D01*
X98482Y583941D01*
X98500Y584273D01*
X100500D01*
X100518Y583941D01*
D02*
G37*
G36*
X75518D02*
X75572Y583608D01*
X75662Y583272D01*
X75788Y582933D01*
X75950Y582593D01*
X76148Y582250D01*
X76382Y581905D01*
X76652Y581558D01*
X76958Y581208D01*
X77300Y580857D01*
X71700D01*
X72042Y581208D01*
X72618Y581905D01*
X72852Y582250D01*
X73050Y582593D01*
X73212Y582933D01*
X73338Y583272D01*
X73428Y583608D01*
X73482Y583941D01*
X73500Y584273D01*
X75500D01*
X75518Y583941D01*
D02*
G37*
G36*
X55518D02*
X55572Y583608D01*
X55662Y583272D01*
X55788Y582933D01*
X55950Y582593D01*
X56148Y582250D01*
X56382Y581905D01*
X56652Y581558D01*
X56958Y581208D01*
X57300Y580857D01*
X51700D01*
X52042Y581208D01*
X52618Y581905D01*
X52852Y582250D01*
X53050Y582593D01*
X53212Y582933D01*
X53338Y583272D01*
X53428Y583608D01*
X53482Y583941D01*
X53500Y584273D01*
X55500D01*
X55518Y583941D01*
D02*
G37*
G36*
X35518D02*
X35572Y583608D01*
X35662Y583272D01*
X35788Y582933D01*
X35950Y582593D01*
X36148Y582250D01*
X36382Y581905D01*
X36652Y581558D01*
X36958Y581208D01*
X37300Y580857D01*
X31700D01*
X32042Y581208D01*
X32618Y581905D01*
X32852Y582250D01*
X33050Y582593D01*
X33212Y582933D01*
X33338Y583272D01*
X33428Y583608D01*
X33482Y583941D01*
X33500Y584273D01*
X35500D01*
X35518Y583941D01*
D02*
G37*
G36*
X-59563Y635962D02*
X-58990Y635389D01*
X-23879Y600279D01*
X-23879Y600278D01*
X-23053Y599529D01*
X-22994Y599491D01*
X-21200Y598292D01*
X-19142Y597439D01*
X-16957Y597005D01*
X-16231Y596969D01*
X-15843Y596950D01*
X-15059Y596950D01*
X-15050Y596950D01*
X-15050Y596950D01*
X-15050Y596950D01*
X-15049D01*
X-13882Y596836D01*
X-12501Y596265D01*
X-11235Y594999D01*
X-10550Y593345D01*
X-10550Y592450D01*
X-10550Y503450D01*
X-10550Y503450D01*
Y502356D01*
X-11388Y500334D01*
X-12935Y498787D01*
X-14956Y497950D01*
X-16050D01*
X-102050Y497950D01*
X-103144Y497950D01*
X-105166Y498787D01*
X-106713Y500334D01*
X-107550Y502356D01*
X-107550Y503450D01*
X-107550Y574950D01*
X-107550Y574950D01*
X-107488Y576194D01*
X-106713Y578065D01*
X-105166Y579613D01*
X-103144Y580450D01*
X-102050Y580450D01*
X-63550Y580450D01*
X-63550Y633500D01*
X-63310Y634671D01*
X-62650Y635658D01*
X-61152Y636279D01*
X-59563Y635962D01*
D02*
G37*
G36*
X65518Y574441D02*
X65572Y574108D01*
X65662Y573772D01*
X65788Y573433D01*
X65950Y573093D01*
X66148Y572750D01*
X66382Y572405D01*
X66652Y572058D01*
X66958Y571708D01*
X67300Y571357D01*
X61700D01*
X62042Y571708D01*
X62618Y572405D01*
X62852Y572750D01*
X63050Y573093D01*
X63212Y573433D01*
X63338Y573772D01*
X63428Y574108D01*
X63482Y574441D01*
X63500Y574773D01*
X65500D01*
X65518Y574441D01*
D02*
G37*
G36*
X45518D02*
X45572Y574108D01*
X45662Y573772D01*
X45788Y573433D01*
X45950Y573093D01*
X46148Y572750D01*
X46382Y572405D01*
X46652Y572058D01*
X46958Y571708D01*
X47300Y571357D01*
X41700D01*
X42042Y571708D01*
X42618Y572405D01*
X42852Y572750D01*
X43050Y573093D01*
X43212Y573433D01*
X43338Y573772D01*
X43428Y574108D01*
X43482Y574441D01*
X43500Y574773D01*
X45500D01*
X45518Y574441D01*
D02*
G37*
G36*
X90518D02*
X90572Y574108D01*
X90662Y573772D01*
X90788Y573433D01*
X90950Y573093D01*
X91148Y572750D01*
X91382Y572405D01*
X91652Y572058D01*
X91958Y571708D01*
X92300Y571357D01*
X86700Y571357D01*
X87042Y571708D01*
X87618Y572405D01*
X87852Y572750D01*
X88050Y573093D01*
X88212Y573433D01*
X88338Y573772D01*
X88428Y574108D01*
X88482Y574441D01*
X88500Y574773D01*
X90500Y574773D01*
X90518Y574441D01*
D02*
G37*
G36*
X110236Y566136D02*
X110167Y565799D01*
X110129Y565472D01*
X110122Y565156D01*
X110145Y564849D01*
X110200Y564552D01*
X110285Y564265D01*
X110402Y563988D01*
X110549Y563722D01*
X110726Y563465D01*
X110935Y563218D01*
X106334Y564137D01*
X106628Y564287D01*
X106899Y564459D01*
X107149Y564652D01*
X107378Y564867D01*
X107584Y565104D01*
X107769Y565363D01*
X107933Y565643D01*
X108075Y565945D01*
X108195Y566269D01*
X108294Y566614D01*
X110236Y566136D01*
D02*
G37*
G36*
X21760Y543586D02*
X21792Y543196D01*
X21844Y542828D01*
X21918Y542481D01*
X22013Y542156D01*
X22128Y541853D01*
X22264Y541572D01*
X22422Y541311D01*
X22601Y541073D01*
X22800Y540857D01*
X17200D01*
X17399Y541073D01*
X17578Y541311D01*
X17736Y541572D01*
X17872Y541853D01*
X17988Y542156D01*
X18082Y542481D01*
X18155Y542828D01*
X18208Y543196D01*
X18240Y543586D01*
X18250Y543997D01*
X21750D01*
X21760Y543586D01*
D02*
G37*
G36*
X1369Y506838D02*
X1432Y506700D01*
X1523Y506570D01*
X1639Y506449D01*
X1783Y506336D01*
X1953Y506232D01*
X2149Y506136D01*
X2372Y506048D01*
X2622Y505969D01*
X2898Y505898D01*
X-1879Y502976D01*
X-1821Y503225D01*
X-1737Y503692D01*
X-1712Y503911D01*
X-1696Y504318D01*
X-1704Y504506D01*
X-1723Y504685D01*
X-1754Y504853D01*
X-1795Y505011D01*
X1332Y506984D01*
X1369Y506838D01*
D02*
G37*
G36*
X-543000Y467000D02*
X-542105Y467000D01*
X-540451Y466315D01*
X-539185Y465049D01*
X-538500Y463395D01*
X-538500Y462500D01*
X-538500D01*
X-538500Y462500D01*
X-538500Y402200D01*
X-538500Y399885D01*
X-539403Y395345D01*
X-541174Y391068D01*
X-543746Y387219D01*
X-547020Y383946D01*
X-550868Y381374D01*
X-555145Y379603D01*
X-559686Y378700D01*
X-562000Y378700D01*
X-562000Y378700D01*
X-562000Y378700D01*
X-622700Y378700D01*
X-623555Y378700D01*
X-625136Y379354D01*
X-626345Y380564D01*
X-627000Y382144D01*
X-627000Y382999D01*
X-627000Y420000D01*
X-627000Y423080D01*
X-626196Y429189D01*
X-624601Y435140D01*
X-622244Y440832D01*
X-619163Y446168D01*
X-615412Y451056D01*
X-611056Y455412D01*
X-606168Y459163D01*
X-600832Y462243D01*
X-595140Y464601D01*
X-589189Y466196D01*
X-583081Y467000D01*
X-580000Y467000D01*
X-580000Y467000D01*
X-543000Y467000D01*
D02*
G37*
G36*
X97365Y375065D02*
X97217Y374812D01*
X97096Y374574D01*
X97002Y374351D01*
X96934Y374144D01*
X96894Y373952D01*
X96880Y373776D01*
X96892Y373615D01*
X96932Y373470D01*
X96999Y373340D01*
X97092Y373226D01*
X94913Y375405D01*
X95023Y375315D01*
X95139Y375262D01*
X95260Y375246D01*
X95387Y375267D01*
X95518Y375324D01*
X95655Y375418D01*
X95797Y375549D01*
X95944Y375717D01*
X96096Y375922D01*
X96254Y376163D01*
X97365Y375065D01*
D02*
G37*
G36*
X48183Y373985D02*
X48141Y373698D01*
X48120Y373442D01*
X48120Y373216D01*
X48140Y373020D01*
X48180Y372854D01*
X48240Y372719D01*
X48321Y372613D01*
X48422Y372538D01*
X48543Y372493D01*
X48685Y372478D01*
X45642D01*
X45787Y372493D01*
X45923Y372538D01*
X46048Y372614D01*
X46164Y372719D01*
X46269Y372855D01*
X46365Y373021D01*
X46451Y373218D01*
X46528Y373444D01*
X46594Y373701D01*
X46650Y373988D01*
X48183Y373985D01*
D02*
G37*
G36*
X-363242Y365979D02*
X-363220Y365718D01*
X-363182Y365489D01*
X-363130Y365290D01*
X-363063Y365122D01*
X-362980Y364984D01*
X-362882Y364877D01*
X-362770Y364800D01*
X-362643Y364754D01*
X-362500Y364739D01*
X-365500D01*
X-365358Y364754D01*
X-365230Y364800D01*
X-365117Y364877D01*
X-365020Y364984D01*
X-364938Y365122D01*
X-364870Y365290D01*
X-364818Y365489D01*
X-364780Y365718D01*
X-364757Y365979D01*
X-364750Y366269D01*
X-363250D01*
X-363242Y365979D01*
D02*
G37*
G36*
X87031Y362910D02*
X86920Y363000D01*
X86798Y363058D01*
X86665Y363085D01*
X86522Y363079D01*
X86368Y363042D01*
X86204Y362973D01*
X86029Y362873D01*
X85843Y362740D01*
X85647Y362576D01*
X85440Y362379D01*
X84379Y363440D01*
X84576Y363647D01*
X84740Y363843D01*
X84873Y364029D01*
X84973Y364204D01*
X85042Y364368D01*
X85079Y364522D01*
X85085Y364665D01*
X85058Y364798D01*
X85000Y364920D01*
X84910Y365031D01*
X87031Y362910D01*
D02*
G37*
G36*
X85218Y362157D02*
X84938Y361867D01*
X84502Y361346D01*
X84344Y361114D01*
X84227Y360901D01*
X84151Y360708D01*
X84115Y360535D01*
X84120Y360380D01*
X84165Y360245D01*
X84251Y360130D01*
X82129Y362251D01*
X82245Y362165D01*
X82380Y362120D01*
X82535Y362115D01*
X82708Y362151D01*
X82901Y362227D01*
X83114Y362344D01*
X83346Y362502D01*
X83597Y362700D01*
X83867Y362938D01*
X84157Y363218D01*
X85218Y362157D01*
D02*
G37*
G36*
X49491Y364437D02*
X49532Y364346D01*
X49599Y364275D01*
X49694Y364225D01*
X49815Y364196D01*
X49964Y364188D01*
X50139Y364200D01*
X50342Y364233D01*
X50572Y364286D01*
X50828Y364361D01*
X50955Y362594D01*
X50674Y362499D01*
X50201Y362297D01*
X50009Y362189D01*
X49847Y362077D01*
X49714Y361961D01*
X49611Y361840D01*
X49537Y361715D01*
X49493Y361586D01*
X49478Y361452D01*
Y364548D01*
X49491Y364437D01*
D02*
G37*
G36*
X-362643Y358646D02*
X-362770Y358600D01*
X-362882Y358523D01*
X-362980Y358416D01*
X-363063Y358278D01*
X-363130Y358110D01*
X-363182Y357911D01*
X-363220Y357681D01*
X-363242Y357421D01*
X-363250Y357131D01*
X-364750D01*
X-364757Y357421D01*
X-364780Y357681D01*
X-364818Y357911D01*
X-364870Y358110D01*
X-364938Y358278D01*
X-365020Y358416D01*
X-365117Y358523D01*
X-365230Y358600D01*
X-365358Y358646D01*
X-365500Y358661D01*
X-362500D01*
X-362643Y358646D01*
D02*
G37*
G36*
X-363242Y354479D02*
X-363220Y354218D01*
X-363182Y353989D01*
X-363130Y353790D01*
X-363063Y353622D01*
X-362980Y353484D01*
X-362882Y353377D01*
X-362770Y353300D01*
X-362643Y353254D01*
X-362500Y353239D01*
X-365500D01*
X-365358Y353254D01*
X-365230Y353300D01*
X-365117Y353377D01*
X-365020Y353484D01*
X-364938Y353622D01*
X-364870Y353790D01*
X-364818Y353989D01*
X-364780Y354218D01*
X-364757Y354479D01*
X-364750Y354770D01*
X-363250D01*
X-363242Y354479D01*
D02*
G37*
G36*
X-362643Y347146D02*
X-362770Y347100D01*
X-362882Y347023D01*
X-362980Y346916D01*
X-363063Y346778D01*
X-363130Y346610D01*
X-363182Y346411D01*
X-363220Y346181D01*
X-363242Y345921D01*
X-363250Y345630D01*
X-364750D01*
X-364757Y345921D01*
X-364780Y346181D01*
X-364818Y346411D01*
X-364870Y346610D01*
X-364938Y346778D01*
X-365020Y346916D01*
X-365117Y347023D01*
X-365230Y347100D01*
X-365358Y347146D01*
X-365500Y347161D01*
X-362500D01*
X-362643Y347146D01*
D02*
G37*
G36*
X108257Y345690D02*
X108280Y345419D01*
X108317Y345180D01*
X108369Y344973D01*
X108436Y344798D01*
X108518Y344655D01*
X108615Y344543D01*
X108726Y344464D01*
X108853Y344416D01*
X108994Y344400D01*
X106006D01*
X106147Y344416D01*
X106274Y344464D01*
X106385Y344543D01*
X106482Y344655D01*
X106564Y344798D01*
X106631Y344973D01*
X106683Y345180D01*
X106720Y345419D01*
X106743Y345690D01*
X106750Y345992D01*
X108250D01*
X108257Y345690D01*
D02*
G37*
G36*
X91757D02*
X91780Y345419D01*
X91817Y345180D01*
X91869Y344973D01*
X91936Y344798D01*
X92018Y344655D01*
X92115Y344543D01*
X92226Y344464D01*
X92353Y344416D01*
X92494Y344400D01*
X89506D01*
X89647Y344416D01*
X89774Y344464D01*
X89885Y344543D01*
X89982Y344655D01*
X90064Y344798D01*
X90131Y344973D01*
X90183Y345180D01*
X90220Y345419D01*
X90243Y345690D01*
X90250Y345992D01*
X91750D01*
X91757Y345690D01*
D02*
G37*
G36*
X61757D02*
X61780Y345419D01*
X61817Y345180D01*
X61869Y344973D01*
X61936Y344798D01*
X62018Y344655D01*
X62115Y344543D01*
X62226Y344464D01*
X62353Y344416D01*
X62494Y344400D01*
X59506D01*
X59647Y344416D01*
X59774Y344464D01*
X59885Y344543D01*
X59982Y344655D01*
X60064Y344798D01*
X60131Y344973D01*
X60183Y345180D01*
X60220Y345419D01*
X60243Y345690D01*
X60250Y345992D01*
X61750D01*
X61757Y345690D01*
D02*
G37*
G36*
X83168Y344556D02*
X82575Y344448D01*
X81059Y344080D01*
X80640Y343942D01*
X79933Y343643D01*
X79646Y343483D01*
X79497Y343272D01*
X79367Y343049D01*
X79279Y342847D01*
X79232Y342666D01*
X79225Y342505D01*
X79260Y342365D01*
X79337Y342246D01*
X77371Y344462D01*
X77479Y344374D01*
X77609Y344329D01*
X77762Y344327D01*
X77936Y344368D01*
X78133Y344451D01*
X78352Y344578D01*
X78363Y344585D01*
X78473Y344815D01*
X78584Y345145D01*
X78663Y345504D01*
X78709Y345894D01*
X78723Y346314D01*
X78705Y346764D01*
X78654Y347244D01*
X78570Y347754D01*
X83168Y344556D01*
D02*
G37*
G36*
X102257Y345741D02*
X102279Y345512D01*
X102316Y345298D01*
X102367Y345100D01*
X102434Y344917D01*
X102514Y344750D01*
X102610Y344598D01*
X102720Y344461D01*
X102844Y344340D01*
X102984Y344234D01*
X100016D01*
X100156Y344340D01*
X100280Y344461D01*
X100390Y344598D01*
X100486Y344750D01*
X100567Y344917D01*
X100633Y345100D01*
X100684Y345298D01*
X100721Y345512D01*
X100743Y345741D01*
X100750Y345986D01*
X102250D01*
X102257Y345741D01*
D02*
G37*
G36*
X97257D02*
X97279Y345512D01*
X97316Y345298D01*
X97367Y345100D01*
X97434Y344917D01*
X97514Y344750D01*
X97610Y344598D01*
X97720Y344461D01*
X97844Y344340D01*
X97984Y344234D01*
X95016D01*
X95156Y344340D01*
X95280Y344461D01*
X95390Y344598D01*
X95486Y344750D01*
X95567Y344917D01*
X95633Y345100D01*
X95684Y345298D01*
X95721Y345512D01*
X95743Y345741D01*
X95750Y345986D01*
X97250D01*
X97257Y345741D01*
D02*
G37*
G36*
X72257D02*
X72279Y345512D01*
X72316Y345298D01*
X72367Y345100D01*
X72434Y344917D01*
X72514Y344750D01*
X72610Y344598D01*
X72720Y344461D01*
X72844Y344340D01*
X72984Y344234D01*
X70016D01*
X70156Y344340D01*
X70280Y344461D01*
X70390Y344598D01*
X70486Y344750D01*
X70567Y344917D01*
X70633Y345100D01*
X70684Y345298D01*
X70721Y345512D01*
X70743Y345741D01*
X70750Y345986D01*
X72250D01*
X72257Y345741D01*
D02*
G37*
G36*
X67257D02*
X67279Y345512D01*
X67316Y345298D01*
X67367Y345100D01*
X67433Y344917D01*
X67514Y344750D01*
X67610Y344598D01*
X67720Y344461D01*
X67844Y344340D01*
X67984Y344234D01*
X65016D01*
X65156Y344340D01*
X65280Y344461D01*
X65390Y344598D01*
X65486Y344750D01*
X65567Y344917D01*
X65633Y345100D01*
X65684Y345298D01*
X65721Y345512D01*
X65743Y345741D01*
X65750Y345986D01*
X67250D01*
X67257Y345741D01*
D02*
G37*
G36*
X-363242Y342379D02*
X-363220Y342118D01*
X-363182Y341889D01*
X-363130Y341690D01*
X-363063Y341522D01*
X-362980Y341384D01*
X-362882Y341277D01*
X-362770Y341200D01*
X-362643Y341154D01*
X-362500Y341139D01*
X-365500D01*
X-365358Y341154D01*
X-365230Y341200D01*
X-365117Y341277D01*
X-365020Y341384D01*
X-364938Y341522D01*
X-364870Y341690D01*
X-364818Y341889D01*
X-364780Y342118D01*
X-364757Y342379D01*
X-364750Y342669D01*
X-363250D01*
X-363242Y342379D01*
D02*
G37*
G36*
X-382243D02*
X-382220Y342118D01*
X-382183Y341889D01*
X-382130Y341690D01*
X-382062Y341522D01*
X-381980Y341384D01*
X-381883Y341277D01*
X-381770Y341200D01*
X-381642Y341154D01*
X-381500Y341139D01*
X-384500D01*
X-384357Y341154D01*
X-384230Y341200D01*
X-384118Y341277D01*
X-384020Y341384D01*
X-383937Y341522D01*
X-383870Y341690D01*
X-383817Y341889D01*
X-383780Y342118D01*
X-383758Y342379D01*
X-383750Y342669D01*
X-382250D01*
X-382243Y342379D01*
D02*
G37*
G36*
X-386189Y335200D02*
X-386204Y335342D01*
X-386250Y335470D01*
X-386327Y335583D01*
X-386434Y335680D01*
X-386572Y335762D01*
X-386740Y335830D01*
X-386939Y335882D01*
X-387169Y335920D01*
X-387429Y335942D01*
X-387719Y335950D01*
Y337450D01*
X-387429Y337458D01*
X-387169Y337480D01*
X-386939Y337518D01*
X-386740Y337570D01*
X-386572Y337637D01*
X-386434Y337720D01*
X-386327Y337817D01*
X-386250Y337930D01*
X-386204Y338058D01*
X-386189Y338200D01*
Y335200D01*
D02*
G37*
G36*
X-396743Y333084D02*
X-396720Y332830D01*
X-396683Y332604D01*
X-396630Y332410D01*
X-396563Y332244D01*
X-396480Y332109D01*
X-396382Y332005D01*
X-396270Y331930D01*
X-396143Y331884D01*
X-396000Y331870D01*
X-399000D01*
X-398857Y331884D01*
X-398730Y331930D01*
X-398618Y332005D01*
X-398520Y332109D01*
X-398438Y332244D01*
X-398370Y332410D01*
X-398317Y332604D01*
X-398280Y332830D01*
X-398257Y333084D01*
X-398250Y333369D01*
X-396750D01*
X-396743Y333084D01*
D02*
G37*
G36*
X-349185Y395906D02*
X-346794Y393515D01*
X-345754Y391004D01*
X-345500Y388700D01*
Y388700D01*
X-345500Y388700D01*
X-345500Y388700D01*
Y302500D01*
X-345500Y301346D01*
X-346383Y299214D01*
X-348015Y297583D01*
X-348997Y297176D01*
X-351300Y296700D01*
X-351300Y296700D01*
X-351300Y296700D01*
X-375500Y296700D01*
X-408000Y296700D01*
X-408995Y296700D01*
X-410832Y297461D01*
X-412239Y298867D01*
X-413000Y300705D01*
X-413000Y301700D01*
X-413000Y388700D01*
X-413000Y390391D01*
X-411706Y393515D01*
X-409315Y395906D01*
X-408382Y396292D01*
X-405600Y394157D01*
X-401355Y392399D01*
X-396800Y391799D01*
Y391806D01*
X-392500D01*
X-392416Y391841D01*
X-389570Y391274D01*
X-387086Y389614D01*
X-385426Y387130D01*
X-384860Y384284D01*
X-384894Y384200D01*
Y342200D01*
X-387250D01*
Y338594D01*
X-394500D01*
X-394738Y338496D01*
X-396353Y338174D01*
X-397925Y337124D01*
X-398974Y335553D01*
X-399296Y333937D01*
X-399394Y333700D01*
Y332900D01*
X-401600D01*
Y325100D01*
X-393400D01*
Y332900D01*
X-391965Y334806D01*
X-387250D01*
Y330200D01*
X-378750D01*
Y342200D01*
X-381106D01*
Y384200D01*
X-381030D01*
X-381903Y388590D01*
X-384389Y392311D01*
X-383623Y394806D01*
X-369500D01*
Y394779D01*
X-368130Y394506D01*
X-366969Y393731D01*
X-366194Y392570D01*
X-365921Y391200D01*
X-365894D01*
Y365800D01*
X-367600D01*
Y357600D01*
X-365894D01*
Y354300D01*
X-367600D01*
Y346100D01*
X-365894D01*
Y342200D01*
X-368250D01*
Y330200D01*
X-359750D01*
Y342200D01*
X-362106D01*
Y346100D01*
X-359800D01*
Y354300D01*
X-362106D01*
Y357600D01*
X-359800D01*
Y365800D01*
X-362106D01*
Y391200D01*
X-362110Y391210D01*
X-362671Y394029D01*
X-363119Y394700D01*
X-361783Y397200D01*
X-352309D01*
X-349185Y395906D01*
D02*
G37*
G36*
X-292000Y646614D02*
X-291000Y644200D01*
X-284793Y637993D01*
X-283082Y633863D01*
X-283083Y612734D01*
X-283083Y535000D01*
X-283083Y532833D01*
X-283040Y532731D01*
X-283062Y532622D01*
X-282216Y528372D01*
X-282155Y528279D01*
Y528169D01*
X-280496Y524165D01*
X-280418Y524086D01*
X-280396Y523978D01*
X-277989Y520374D01*
X-277896Y520313D01*
X-277854Y520210D01*
X-274790Y517146D01*
X-274687Y517104D01*
X-274626Y517011D01*
X-271022Y514604D01*
X-270914Y514582D01*
X-270835Y514504D01*
X-266831Y512845D01*
X-266721D01*
X-266628Y512784D01*
X-262378Y511938D01*
X-262269Y511960D01*
X-262167Y511918D01*
X-260000Y511918D01*
X-226506Y511918D01*
X-226307Y512000D01*
X-226230Y512000D01*
X-226091D01*
X-226091Y512000D01*
X-225703Y512001D01*
X-224233Y511392D01*
X-223107Y510266D01*
X-222499Y508796D01*
X-222500Y508000D01*
X-222500Y442000D01*
X-222442Y440824D01*
X-221984Y438516D01*
X-221084Y436343D01*
X-219777Y434387D01*
X-218114Y432723D01*
X-216157Y431416D01*
X-213984Y430516D01*
X-211677Y430057D01*
X-210500Y430000D01*
X-119499D01*
X-119499Y430000D01*
X-119499Y430000D01*
X-118322Y430057D01*
X-118318Y430058D01*
X-116015Y430515D01*
X-113841Y431415D01*
X-111885Y432722D01*
X-110221Y434386D01*
X-108915Y436342D01*
X-108015Y438516D01*
X-107557Y440824D01*
X-107500Y442000D01*
X-107500Y488700D01*
X-107500Y488700D01*
X-107443Y489947D01*
X-106658Y491844D01*
X-105097Y493405D01*
X-103057Y494248D01*
X-101953Y494247D01*
X-11247Y494246D01*
X-11247Y494246D01*
X-11247Y494246D01*
X-7577Y494246D01*
X-270Y493542D01*
X6934Y492138D01*
X13971Y490050D01*
X20775Y487295D01*
X27282Y483899D01*
X33433Y479893D01*
X39171Y475316D01*
X44443Y470209D01*
X49200Y464619D01*
X53398Y458597D01*
X56999Y452201D01*
X59968Y445488D01*
X62279Y438521D01*
X63910Y431364D01*
X64845Y424084D01*
X64962Y420416D01*
X65209Y410271D01*
X65209Y410271D01*
X65268Y407827D01*
X64402Y403016D01*
X62586Y398476D01*
X59895Y394395D01*
X58166Y392666D01*
X48202Y382702D01*
X48202Y382701D01*
X47063Y381446D01*
X45180Y378632D01*
X43880Y375505D01*
X43213Y372185D01*
X43126Y370492D01*
X42992Y317985D01*
X42991Y317984D01*
X42990Y317266D01*
X42706Y315858D01*
X42154Y314532D01*
X41354Y313339D01*
X40338Y312325D01*
X39143Y311528D01*
X37816Y310980D01*
X36407Y310700D01*
X-28501D01*
X-29309Y310700D01*
X-30893Y311015D01*
X-32385Y311633D01*
X-33728Y312530D01*
X-34871Y313673D01*
X-35768Y315016D01*
X-36386Y316508D01*
X-36700Y318092D01*
X-36700Y318900D01*
X-36700Y387400D01*
X-36700Y387400D01*
X-36702Y387401D01*
X-36774Y388879D01*
X-37351Y391783D01*
X-38483Y394518D01*
X-39862Y396582D01*
X-40005Y396851D01*
X-42099Y399401D01*
X-44649Y401494D01*
X-47559Y403050D01*
X-50716Y404008D01*
X-54000Y404331D01*
Y404284D01*
X-237102D01*
X-237164Y404272D01*
X-241615Y404710D01*
X-245954Y406026D01*
X-249954Y408164D01*
X-253459Y411041D01*
X-255752Y413835D01*
X-256770Y415359D01*
X-257344Y416433D01*
X-259025Y420491D01*
X-260000Y425398D01*
X-260000Y427900D01*
Y435757D01*
X-260000Y435757D01*
X-260001Y435758D01*
X-260108Y437944D01*
X-260961Y442234D01*
X-262635Y446276D01*
X-265065Y449913D01*
X-266536Y451535D01*
X-287464Y472464D01*
X-287465Y472464D01*
X-289256Y474256D01*
X-292072Y478470D01*
X-294011Y483152D01*
X-295000Y488123D01*
X-295000Y490657D01*
X-295000Y539200D01*
X-295000Y633670D01*
X-295000Y633670D01*
X-295000Y633670D01*
X-295001Y633672D01*
X-295040Y634506D01*
X-295110Y634860D01*
X-295365Y636147D01*
X-296006Y637691D01*
X-296937Y639081D01*
X-297500Y639700D01*
X-299000Y643321D01*
Y651700D01*
X-292000D01*
Y646614D01*
D02*
G37*
G36*
X-18230Y256031D02*
X-18168Y255722D01*
X-18066Y255402D01*
X-17922Y255071D01*
X-17737Y254729D01*
X-17512Y254377D01*
X-17246Y254013D01*
X-16938Y253638D01*
X-16200Y252857D01*
X-21800D01*
X-21411Y253253D01*
X-20754Y254013D01*
X-20488Y254377D01*
X-20262Y254729D01*
X-20078Y255071D01*
X-19935Y255402D01*
X-19832Y255722D01*
X-19770Y256031D01*
X-19750Y256329D01*
X-18250D01*
X-18230Y256031D01*
D02*
G37*
G36*
X67076Y-19389D02*
X67196Y-19495D01*
X67372Y-19600D01*
X67604Y-19704D01*
X67893Y-19807D01*
X68238Y-19908D01*
X69096Y-20109D01*
X70180Y-20305D01*
X65319Y-23736D01*
X65428Y-23129D01*
X65765Y-20275D01*
X65741Y-20169D01*
X67013Y-19282D01*
X67076Y-19389D01*
D02*
G37*
G36*
X63259Y-20169D02*
X63235Y-20275D01*
X63225Y-20437D01*
X63231Y-20654D01*
X63285Y-21256D01*
X63478Y-22577D01*
X63681Y-23736D01*
X58820Y-20305D01*
X59390Y-20207D01*
X61107Y-19807D01*
X61396Y-19704D01*
X61628Y-19600D01*
X61804Y-19495D01*
X61924Y-19389D01*
X61988Y-19282D01*
X63259Y-20169D01*
D02*
G37*
G36*
X37103Y-46470D02*
X37256Y-46742D01*
X37463Y-46998D01*
X37725Y-47238D01*
X38041Y-47463D01*
X38412Y-47673D01*
X38837Y-47867D01*
X39317Y-48045D01*
X39851Y-48208D01*
X40440Y-48355D01*
X35375Y-51477D01*
X35510Y-50900D01*
X35774Y-49339D01*
X35815Y-48876D01*
X35827Y-48037D01*
X35797Y-47660D01*
X35744Y-47313D01*
X35668Y-46994D01*
X37004Y-46184D01*
X37103Y-46470D01*
D02*
G37*
G36*
X33332Y-46994D02*
X33256Y-47313D01*
X33203Y-47660D01*
X33173Y-48037D01*
X33167Y-48442D01*
X33185Y-48876D01*
X33291Y-49830D01*
X33379Y-50351D01*
X33625Y-51477D01*
X28560Y-48355D01*
X29149Y-48208D01*
X30163Y-47867D01*
X30588Y-47673D01*
X30959Y-47463D01*
X31275Y-47238D01*
X31537Y-46998D01*
X31744Y-46742D01*
X31897Y-46470D01*
X31996Y-46184D01*
X33332Y-46994D01*
D02*
G37*
%LPC*%
G36*
X-565150Y160812D02*
X-587850D01*
X-589079Y160567D01*
X-590121Y159871D01*
X-590817Y158829D01*
X-591062Y157600D01*
Y156133D01*
X-591088Y156000D01*
X-591062Y155867D01*
Y142133D01*
X-591088Y142000D01*
X-591062Y141867D01*
Y140400D01*
X-590817Y139171D01*
X-590121Y138129D01*
X-589079Y137433D01*
X-587850Y137188D01*
X-565150D01*
X-563921Y137433D01*
X-562879Y138129D01*
X-562183Y139171D01*
X-561938Y140400D01*
Y141867D01*
X-561912Y142000D01*
X-561938Y142133D01*
Y155867D01*
X-561912Y156000D01*
X-561938Y156133D01*
Y157600D01*
X-562183Y158829D01*
X-562879Y159871D01*
X-563921Y160567D01*
X-565150Y160812D01*
D02*
G37*
G36*
X-368000Y454588D02*
X-368133Y454562D01*
X-381867D01*
X-382000Y454588D01*
X-382133Y454562D01*
X-383600D01*
X-384829Y454317D01*
X-385871Y453621D01*
X-386567Y452579D01*
X-386812Y451350D01*
Y428650D01*
X-386567Y427421D01*
X-385871Y426379D01*
X-384829Y425683D01*
X-383600Y425438D01*
X-382133D01*
X-382000Y425412D01*
X-381867Y425438D01*
X-368133D01*
X-368000Y425412D01*
X-367867Y425438D01*
X-366400D01*
X-365171Y425683D01*
X-364129Y426379D01*
X-363433Y427421D01*
X-363188Y428650D01*
Y451350D01*
X-363433Y452579D01*
X-364129Y453621D01*
X-365171Y454317D01*
X-366400Y454562D01*
X-367867D01*
X-368000Y454588D01*
D02*
G37*
G36*
X0Y461127D02*
X-6434Y460620D01*
X-12709Y459114D01*
X-18671Y456644D01*
X-24174Y453272D01*
X-29081Y449081D01*
X-33272Y444174D01*
X-36644Y438671D01*
X-39114Y432709D01*
X-40620Y426434D01*
X-41127Y420000D01*
X-40620Y413566D01*
X-39114Y407291D01*
X-36644Y401329D01*
X-33272Y395826D01*
X-29081Y390919D01*
X-24174Y386728D01*
X-18671Y383356D01*
X-13835Y381352D01*
X-14087Y380082D01*
X-16500D01*
X-17296Y380082D01*
X-17495Y380000D01*
X-17710D01*
X-19180Y379391D01*
X-19332Y379239D01*
X-19531Y379156D01*
X-20656Y378031D01*
X-20739Y377832D01*
X-20891Y377680D01*
X-21500Y376210D01*
Y375995D01*
X-21582Y375796D01*
X-21582Y375000D01*
X-21582Y358000D01*
X-21582Y357204D01*
X-21500Y357006D01*
Y356790D01*
X-20891Y355320D01*
X-20739Y355168D01*
X-20656Y354969D01*
X-19531Y353844D01*
X-19332Y353761D01*
X-19180Y353609D01*
X-17710Y353000D01*
X-17495D01*
X-17296Y352918D01*
X-16500Y352918D01*
X-16500Y352918D01*
X17296D01*
X17494Y353000D01*
X17710D01*
X19180Y353609D01*
X19332Y353761D01*
X19531Y353844D01*
X20656Y354969D01*
X20739Y355168D01*
X20891Y355320D01*
X21500Y356790D01*
Y357005D01*
X21582Y357204D01*
X21582Y358000D01*
X21582Y358000D01*
X21582Y375000D01*
X21582Y375796D01*
X21500Y375995D01*
Y376210D01*
X20891Y377680D01*
X20739Y377832D01*
X20656Y378031D01*
X19531Y379156D01*
X19332Y379239D01*
X19180Y379391D01*
X17710Y380000D01*
X17494D01*
X17295Y380082D01*
X16501Y380082D01*
X16500Y380082D01*
X14087D01*
X13835Y381352D01*
X18671Y383356D01*
X24174Y386728D01*
X29081Y390919D01*
X33272Y395826D01*
X36644Y401329D01*
X39114Y407291D01*
X40620Y413566D01*
X41127Y420000D01*
X40620Y426434D01*
X39114Y432709D01*
X36644Y438671D01*
X33272Y444174D01*
X29081Y449081D01*
X24174Y453272D01*
X18671Y456644D01*
X12709Y459114D01*
X6434Y460620D01*
X0Y461127D01*
D02*
G37*
%LPD*%
D11*
X109264Y566375D02*
G03*
X109324Y566869I-1940J484D01*
G01*
X108000Y560500D02*
G03*
X108116Y561181I-1884J671D01*
G01*
X108174Y561948D02*
G03*
X108116Y561470I1942J-478D01*
G01*
X109458Y663100D02*
G03*
X109324Y662380I1866J-721D01*
G01*
X108000Y560500D02*
X108000Y560500D01*
X108116Y561181D02*
Y561470D01*
X108174Y561948D02*
X108291Y562423D01*
X109264Y566375D01*
X109324Y566869D02*
Y662380D01*
X109458Y663100D02*
X109495Y663195D01*
X109500Y663200D01*
X34500Y578000D02*
Y663200D01*
X89500Y568500D02*
Y663200D01*
X99500Y578000D02*
Y663200D01*
X74500Y578000D02*
Y663200D01*
X64500Y568500D02*
Y663200D01*
X54500Y578000D02*
Y663200D01*
X44500Y568500D02*
Y663200D01*
D13*
X109500D02*
D03*
X104500D02*
D03*
X99500D02*
D03*
X94500D02*
D03*
X89500D02*
D03*
X84500D02*
D03*
X79500D02*
D03*
X74500D02*
D03*
X69500D02*
D03*
X64500D02*
D03*
X59500D02*
D03*
X54500D02*
D03*
X49500D02*
D03*
X44500D02*
D03*
X39500D02*
D03*
X34500D02*
D03*
X29500D02*
D03*
X24500D02*
D03*
X19500D02*
D03*
X14500D02*
D03*
X9500D02*
D03*
X4500D02*
D03*
X-500D02*
D03*
X-5500D02*
D03*
D14*
X87717Y365717D02*
D03*
X94434Y372434D02*
D03*
D15*
X47000Y370000D02*
D03*
Y363000D02*
D03*
D16*
X77000Y341000D02*
D03*
X61000D02*
D03*
X107500D02*
D03*
X91000D02*
D03*
D17*
X101500D02*
D03*
X96500D02*
D03*
X66500D02*
D03*
X71500D02*
D03*
D18*
X25000Y327000D02*
D03*
Y262500D02*
D03*
X-576500Y213000D02*
D03*
Y149000D02*
D03*
D19*
X-375000Y440000D02*
D03*
X-311000D02*
D03*
X-83500Y626500D02*
D03*
X-148000D02*
D03*
D20*
X-285500Y665700D02*
D03*
X-305500D02*
D03*
X-325500D02*
D03*
X-345500D02*
D03*
X-365500D02*
D03*
X-385500D02*
D03*
X-405500D02*
D03*
X-425500D02*
D03*
X-445500D02*
D03*
X-465500D02*
D03*
X-275500D02*
D03*
X-295500D02*
D03*
X-315500D02*
D03*
X-335500D02*
D03*
X-355500D02*
D03*
X-375500D02*
D03*
X-395500D02*
D03*
X-415500D02*
D03*
X-435500D02*
D03*
X-455500D02*
D03*
D21*
X-373500Y312200D02*
D03*
X-383000Y336200D02*
D03*
X-364000D02*
D03*
D22*
X-397500Y319400D02*
D03*
Y329000D02*
D03*
D23*
X-373300Y350200D02*
D03*
X-363700D02*
D03*
X-373300Y361700D02*
D03*
X-363700D02*
D03*
D41*
X-313321Y643043D02*
G03*
X-304779Y637472I7821J2657D01*
G01*
X-319919Y646005D02*
G03*
X-314958Y643950I4960J4960D01*
G01*
X-313321Y643043D02*
G03*
X-314180Y643948I-1419J-487D01*
G01*
X-303591Y637034D02*
G03*
X-304779Y637472I-1064J-1057D01*
G01*
X-303575Y637018D02*
G03*
X-303591Y637034I-1067J-1055D01*
G01*
X-300000Y630786D02*
G03*
X-301879Y635321I-6414J0D01*
G01*
X11738Y541629D02*
G03*
X25880Y501951I64382J588D01*
G01*
X13500Y547500D02*
G03*
X11738Y543246I4254J-4254D01*
G01*
X13500Y547500D02*
G03*
X14500Y549914I-2414J2414D01*
G01*
X73492Y424669D02*
G03*
X73835Y423726I1500J12D01*
G01*
X76000Y419379D02*
G03*
X74500Y423000I-5121J0D01*
G01*
X73843Y423717D02*
G03*
X74500Y423000I8561J7187D01*
G01*
X68771Y449293D02*
G03*
X52035Y475208I-68529J-25895D01*
G01*
X73492Y424669D02*
G03*
X68781Y449267I-71256J-898D01*
G01*
X70500Y387000D02*
G03*
X76000Y400278I-13278J13278D01*
G01*
X52000Y358500D02*
G03*
X56500Y369364I-10864J10864D01*
G01*
X41181Y486062D02*
G03*
X41201Y486042I1081J1041D01*
G01*
X52000Y358500D02*
G03*
X46000Y344015I14485J-14485D01*
G01*
X34500Y307500D02*
G03*
X46000Y319000I0J11500D01*
G01*
X1000Y307500D02*
G03*
X-19000Y287500I0J-20000D01*
G01*
X38000Y544565D02*
G03*
X62775Y484725I84654J-0D01*
G01*
X63761Y483724D02*
G03*
X62793Y484707I-65436J-63490D01*
G01*
X64281Y483184D02*
G03*
X63761Y483724I-65956J-62950D01*
G01*
X67581Y478436D02*
G03*
X72609Y477987I2702J1878D01*
G01*
X77262Y477987D02*
G03*
X72609Y477987I-2326J-2326D01*
G01*
X77262Y473335D02*
G03*
X77262Y477987I-2326J2326D01*
G01*
X75587Y471660D02*
G03*
X75212Y467456I2326J-2326D01*
G01*
X80663Y459391D02*
G03*
X80319Y460107I-82338J-39157D01*
G01*
X86797Y442272D02*
G03*
X80663Y459391I-88471J-22038D01*
G01*
X89500Y420246D02*
G03*
X86797Y442272I-91175J-12D01*
G01*
X74560Y560990D02*
G03*
X74362Y561720I-36201J-9463D01*
G01*
X73364Y551549D02*
G03*
X75368Y554983I-1261J3038D01*
G01*
X69397Y549903D02*
G03*
X67620Y545602I1261J-3038D01*
G01*
X67620Y545602D02*
G03*
X71920Y543825I3038J1262D01*
G01*
X79174Y543254D02*
G03*
X74866Y545049I-3046J-1244D01*
G01*
X94248Y518442D02*
G03*
X93987Y519145I-66124J-24092D01*
G01*
X74362Y561720D02*
G03*
X73412Y564618I-36002J-10193D01*
G01*
X94710Y517133D02*
G03*
X94248Y518442I-66586J-22784D01*
G01*
X98481Y496004D02*
G03*
X94710Y517133I-70356J-1654D01*
G01*
X73412Y564618D02*
G03*
X73401Y564649I-35053J-13091D01*
G01*
X102000Y491401D02*
G03*
X91707Y543183I-135724J-65D01*
G01*
D02*
G03*
X88449Y548051I-13772J-5694D01*
G01*
X79500Y569719D02*
G03*
X88449Y548051I30706J0D01*
G01*
X92521Y549404D02*
G03*
X87500Y555500I-34267J-23108D01*
G01*
X100915Y528310D02*
G03*
X99126Y533097I-73984J-24923D01*
G01*
X86383Y556748D02*
G03*
X87500Y555500I12346J9933D01*
G01*
X84500Y564271D02*
G03*
X86296Y556904I16009J-0D01*
G01*
X92521Y549404D02*
G03*
X93206Y547496I21812J6752D01*
G01*
X86296Y556904D02*
G03*
X86320Y556858I1332J690D01*
G01*
X105000Y496490D02*
G03*
X100928Y528259I-126264J-37D01*
G01*
X84258Y571903D02*
G03*
X84500Y572729I-1258J817D01*
G01*
X84258Y571903D02*
G03*
X84258Y565096I5242J-3404D01*
G01*
X84500Y564271D02*
G03*
X84258Y565096I-1500J9D01*
G01*
X69019Y574995D02*
G03*
X69258Y574596I5480J3005D01*
G01*
X69500Y573771D02*
G03*
X69258Y574596I-1500J9D01*
G01*
X69500Y572720D02*
G03*
X69742Y571904I1500J-0D01*
G01*
X73401Y564649D02*
G03*
X69742Y571903I-35041J-13122D01*
G01*
X98500Y494365D02*
G03*
X98481Y496004I-70376J-15D01*
G01*
X69258Y581404D02*
G03*
X69019Y574995I5242J-3404D01*
G01*
X44095Y538464D02*
G03*
X49461Y537397I3040J1259D01*
G01*
X54113Y537397D02*
G03*
X49461Y537397I-2326J-2326D01*
G01*
X54113Y532744D02*
G03*
X54113Y537397I-2326J2326D01*
G01*
X48184Y526815D02*
G03*
X48184Y522162I2326J-2326D01*
G01*
X48184Y522162D02*
G03*
X52837Y522162I2326J2326D01*
G01*
X68445Y533118D02*
G03*
X63793Y533118I-2326J-2326D01*
G01*
X68446Y528465D02*
G03*
X68446Y533118I-2326J2326D01*
G01*
X53039Y513058D02*
G03*
X53039Y508405I2326J-2326D01*
G01*
X53039Y508405D02*
G03*
X57691Y508405I2326J2326D01*
G01*
X76363Y522425D02*
G03*
X71711Y522425I-2326J-2326D01*
G01*
X76363Y517772D02*
G03*
X76363Y522425I-2326J2326D01*
G01*
X62344Y503753D02*
G03*
X62344Y499100I2326J-2326D01*
G01*
X62344Y499100D02*
G03*
X66997Y499100I2326J2326D01*
G01*
X82633Y510084D02*
G03*
X77981Y510084I-2326J-2326D01*
G01*
X82634Y505431D02*
G03*
X82634Y510084I-2326J2326D01*
G01*
X71650Y494447D02*
G03*
X71650Y489794I2326J-2326D01*
G01*
X71650Y489794D02*
G03*
X76302Y489794I2326J2326D01*
G01*
X87292Y496131D02*
G03*
X82639Y496131I-2326J-2326D01*
G01*
X87292Y491478D02*
G03*
X87292Y496131I-2326J2326D01*
G01*
X80955Y485142D02*
G03*
X80955Y480489I2326J-2326D01*
G01*
X80955Y480489D02*
G03*
X85608Y480489I2326J2326D01*
G01*
X90970Y480064D02*
G03*
X85821Y480701I-2823J-1689D01*
G01*
X91651Y478492D02*
G03*
X91417Y479318I-24551J-6513D01*
G01*
X83500Y415215D02*
G03*
X55372Y483129I-96083J-14D01*
G01*
X26176Y536677D02*
G03*
X53077Y481335I93486J11232D01*
G01*
X80500Y415157D02*
G03*
X53077Y481335I-93582J-8D01*
G01*
X28500Y547989D02*
G03*
X55334Y483166I91712J-0D01*
G01*
X25500Y547971D02*
G03*
X25794Y540514I94668J-0D01*
G01*
X26169Y536753D02*
G03*
X26176Y536677I1496J103D01*
G01*
X26228Y537480D02*
G03*
X25813Y540297I-6228J520D01*
G01*
X25794Y540514D02*
G03*
X25795Y540503I1495J118D01*
G01*
X5500Y542849D02*
G03*
X26407Y492351I71441J-0D01*
G01*
X67500Y423350D02*
G03*
X47758Y471000I-67375J-0D01*
G01*
X8500Y542868D02*
G03*
X28541Y494459I68485J-0D01*
G01*
X70500Y423399D02*
G03*
X49913Y473087I-70258J-0D01*
G01*
X92452Y473541D02*
G03*
X91651Y478492I-25352J-1562D01*
G01*
X44725Y560080D02*
G03*
X42000Y553500I6580J-6580D01*
G01*
X58381Y567227D02*
G03*
X58586Y566477I6119J1273D01*
G01*
X59500Y563075D02*
G03*
X62790Y559785I3290J0D01*
G01*
X70858Y556495D02*
G03*
X67568Y559785I-3290J0D01*
G01*
Y553205D02*
G03*
X70858Y556495I0J3290D01*
G01*
X55516Y553205D02*
G03*
X52226Y549915I0J-3290D01*
G01*
Y549915D02*
G03*
X55516Y546625I3290J0D01*
G01*
X63752Y544352D02*
G03*
X60623Y546625I-3129J-1017D01*
G01*
X64082Y543335D02*
G03*
X64650Y542584I19401J14100D01*
G01*
D02*
G03*
X66517Y540483I18833J14849D01*
G01*
X59258Y571903D02*
G03*
X58381Y567227I5242J-3404D01*
G01*
X92500Y470573D02*
G03*
X92452Y473540I-95975J-70D01*
G01*
X48015Y563332D02*
G03*
X49742Y565096I-3515J5168D01*
G01*
X48015Y563332D02*
G03*
X47798Y563153I844J-1240D01*
G01*
X92108Y389349D02*
G03*
X92500Y393521I-22008J4172D01*
G01*
X85561Y378060D02*
G03*
X92108Y389349I-17960J17960D01*
G01*
X73939Y366440D02*
G03*
X66500Y348479I17960J-17960D01*
G01*
X49500Y573771D02*
G03*
X49258Y574596I-1500J9D01*
G01*
X49258Y581404D02*
G03*
X49500Y582229I-1258J817D01*
G01*
X49258Y581404D02*
G03*
X49258Y574596I5242J-3404D01*
G01*
X49500Y572720D02*
G03*
X49742Y571904I1500J-0D01*
G01*
X68969Y537942D02*
G03*
X66517Y540483I-72443J-67439D01*
G01*
X75242Y530500D02*
G03*
X68969Y537942I-78717J-59997D01*
G01*
X75286Y530442D02*
G03*
X75242Y530500I-78761J-59939D01*
G01*
X78068Y526599D02*
G03*
X75286Y530442I-81543J-56096D01*
G01*
X28500Y579750D02*
G03*
X28500Y576250I6000J-1750D01*
G01*
X95500Y470517D02*
G03*
X78068Y526599I-98975J-14D01*
G01*
X109000Y361500D02*
G03*
X107500Y357879I3621J-3621D01*
G01*
X104742Y574596D02*
G03*
X104500Y573779I1258J-817D01*
G01*
X104742Y574596D02*
G03*
X104742Y581404I-5242J3404D01*
G01*
X104500Y582220D02*
G03*
X104742Y581404I1500J0D01*
G01*
X111000Y530843D02*
G03*
X107000Y540500I-13657J0D01*
G01*
X101500Y561500D02*
G03*
X101644Y561647I-7243J7243D01*
G01*
X101500Y553778D02*
G03*
X107000Y540500I18778J0D01*
G01*
X101644Y561647D02*
G03*
X102005Y562266I-1078J1043D01*
G01*
X103991Y565555D02*
G03*
X104500Y568743I-9734J3187D01*
G01*
X103619Y564958D02*
G03*
X102005Y562266I4381J-4457D01*
G01*
X103619Y564958D02*
G03*
X103991Y565555I-1051J1070D01*
G01*
X109000Y361500D02*
G03*
X111000Y366328I-4828J4828D01*
G01*
X108000Y503418D02*
G03*
X101910Y534216I-81069J-30D01*
G01*
X94500Y556156D02*
G03*
X95986Y548623I19833J0D01*
G01*
X94742Y565096D02*
G03*
X94500Y564279I1258J-817D01*
G01*
X94742Y565096D02*
G03*
X94742Y571904I-5242J3404D01*
G01*
X94258Y581404D02*
G03*
X94500Y582229I-1258J817D01*
G01*
X94258Y581404D02*
G03*
X94258Y574596I5242J-3404D01*
G01*
X94500Y573771D02*
G03*
X94258Y574596I-1500J9D01*
G01*
X94500Y572720D02*
G03*
X94742Y571904I1500J-0D01*
G01*
X79500Y582220D02*
G03*
X79742Y581404I1500J0D01*
G01*
X79742Y574596D02*
G03*
X79742Y581404I-5242J3404D01*
G01*
X79742Y574596D02*
G03*
X79500Y573779I1258J-817D01*
G01*
X69258Y581404D02*
G03*
X69500Y582229I-1258J817D01*
G01*
X59500Y582220D02*
G03*
X59742Y581404I1500J0D01*
G01*
X59742Y574596D02*
G03*
X59742Y581404I-5242J3404D01*
G01*
X59742Y574596D02*
G03*
X59500Y573779I1258J-817D01*
G01*
X59258Y571903D02*
G03*
X59500Y572729I-1258J817D01*
G01*
X49742Y565096D02*
G03*
X49742Y571904I-5242J3404D01*
G01*
X39500Y582220D02*
G03*
X39742Y581404I1500J0D01*
G01*
X39337Y574042D02*
G03*
X39742Y581404I-4837J3958D01*
G01*
X38000Y572000D02*
G03*
X39112Y573665I-3621J3621D01*
G01*
X39337Y574042D02*
G03*
X39112Y573665I1161J-950D01*
G01*
X9500Y663200D02*
G03*
X8500Y660786I2414J-2414D01*
G01*
X62208Y388965D02*
G03*
X70500Y408984I-20019J20019D01*
G01*
X55531Y382288D02*
G03*
X52000Y373764I8524J-8524D01*
G01*
X49500Y363000D02*
G03*
X52000Y365500I0J2500D01*
G01*
X5500Y660786D02*
G03*
X4500Y663200I-3414J0D01*
G01*
X60061Y391060D02*
G03*
X67500Y409021I-17960J17960D01*
G01*
X25500Y660786D02*
G03*
X24500Y663200I-3414J0D01*
G01*
X73060Y380803D02*
G03*
X80500Y398764I-17960J17960D01*
G01*
X50000Y44380D02*
G03*
X57865Y25393I26852J0D01*
G01*
X63000Y13015D02*
G03*
X57879Y25379I-17485J0D01*
G01*
X60119Y-23002D02*
G03*
X59500Y-24500I1502J-1498D01*
G01*
X29500Y663200D02*
G03*
X28500Y660786I2414J-2414D01*
G01*
X75208Y378708D02*
G03*
X83500Y398727I-20019J20019D01*
G01*
X69500Y-24500D02*
G03*
X68881Y-23002I-2121J0D01*
G01*
X53000Y44399D02*
G03*
X60000Y27500I23899J0D01*
G01*
X66000Y-17646D02*
G03*
X67748Y-21869I5975J0D01*
G01*
X66000Y13061D02*
G03*
X60033Y27467I-20374J0D01*
G01*
X77707Y342707D02*
G03*
X77000Y341000I1707J-1707D01*
G01*
X105500Y363500D02*
G03*
X101500Y353843I9657J-9657D01*
G01*
X105500Y363500D02*
G03*
X108000Y369536I-6036J6036D01*
G01*
X99558Y362952D02*
G03*
X105000Y376090I-13139J13139D01*
G01*
X98395Y361657D02*
G03*
X99558Y362952I-16880J16329D01*
G01*
X98395Y361657D02*
G03*
X98231Y361455I1078J-1043D01*
G01*
D02*
G03*
X96500Y355757I8512J-5698D01*
G01*
X96000Y363500D02*
G03*
X102000Y377985I-14485J14485D01*
G01*
X96000Y363500D02*
G03*
X91000Y351429I12071J-12071D01*
G01*
X74047Y377547D02*
G03*
X53000Y326735I50811J-50811D01*
G01*
X61250Y-21871D02*
G03*
X63000Y-17646I-4225J4225D01*
G01*
X-42000Y173977D02*
G03*
X5360Y59640I161696J-0D01*
G01*
X-39000Y173995D02*
G03*
X7494Y61749I158740J-0D01*
G01*
X41005Y-26995D02*
G03*
X49735Y-5918I-21077J21077D01*
G01*
D02*
G03*
X31756Y37486I-61384J-0D01*
G01*
X38876Y-24882D02*
G03*
X46723Y-5937I-18945J18945D01*
G01*
D02*
G03*
X29600Y35399I-58459J-0D01*
G01*
X41000Y-27000D02*
G03*
X36000Y-39071I12071J-12071D01*
G01*
X38876Y-24882D02*
G03*
X33000Y-39067I14185J-14185D01*
G01*
X36000Y-44050D02*
G03*
X38879Y-51000I9828J0D01*
G01*
X58620Y375120D02*
G03*
X56500Y370000I5123J-5120D01*
G01*
X71899Y379642D02*
G03*
X50000Y326772I52870J-52870D01*
G01*
X94434Y372434D02*
G03*
X98500Y382250I-9816J9816D01*
G01*
X83439Y380182D02*
G03*
X89182Y390023I-15839J15839D01*
G01*
X89182Y390023D02*
G03*
X89500Y393521I-19082J3498D01*
G01*
X62500Y350000D02*
G03*
X61000Y346379I3621J-3621D01*
G01*
X71829Y368572D02*
G03*
X64272Y355054I20071J-20093D01*
G01*
X62500Y350000D02*
G03*
X63486Y351249I-4828J4828D01*
G01*
D02*
G03*
X63702Y351863I-1273J793D01*
G01*
X64272Y355054D02*
G03*
X63702Y351863I27628J-6575D01*
G01*
X88061Y375560D02*
G03*
X95500Y393521I-17960J17960D01*
G01*
X78000Y365500D02*
G03*
X71500Y349808I15692J-15692D01*
G01*
X52657Y383657D02*
G03*
X47000Y370000I13657J-13657D01*
G01*
X-262000Y431285D02*
G03*
X-270284Y451284I-28282J0D01*
G01*
X-297000Y486485D02*
G03*
X-291000Y472000I20485J0D01*
G01*
X-39000Y387500D02*
G03*
X-54000Y402500I-15000J0D01*
G01*
X-262000Y427398D02*
G03*
X-237102Y402500I24898J0D01*
G01*
X-317811Y648139D02*
G03*
X-314939Y646950I2871J2871D01*
G01*
X-318515Y651185D02*
G03*
X-318515Y648844I1170J-1170D01*
G01*
X-297000Y630800D02*
G03*
X-299747Y637433I-9380J0D01*
G01*
X-311247Y645502D02*
G03*
X-303474Y640319I5747J198D01*
G01*
X-265000Y431236D02*
G03*
X-272439Y449197I-25400J0D01*
G01*
X-300000Y486465D02*
G03*
X-293136Y469893I23436J0D01*
G01*
X-42000Y387500D02*
G03*
X-54000Y399500I-12000J0D01*
G01*
X-265000Y427398D02*
G03*
X-237102Y399500I27898J0D01*
G01*
X30121Y-51000D02*
G03*
X33000Y-44050I-6950J6950D01*
G01*
X30121Y-51000D02*
G03*
X29500Y-52500I1500J-1500D01*
G01*
X-322000Y649393D02*
G03*
X-321078Y647164I3155J0D01*
G01*
X-322000Y649393D02*
G03*
X-322924Y651624I-3155J0D01*
G01*
X-325500Y657843D02*
G03*
X-322924Y651624I8794J0D01*
G01*
X39500Y-52500D02*
G03*
X38879Y-51000I-2121J0D01*
G01*
X-408900Y642731D02*
G03*
X-409500Y639700I7349J-3031D01*
G01*
X-406991Y645710D02*
G03*
X-408891Y642752I7309J-6784D01*
G01*
X-412500Y641770D02*
G03*
X-413511Y644211I-3451J0D01*
G01*
X-302180Y639865D02*
G03*
X-303199Y640309I-1065J-1056D01*
G01*
X-301462Y639148D02*
G03*
X-301485Y639170I-3193J-3171D01*
G01*
X-318515Y651185D02*
G03*
X-315500Y658464I-7279J7279D01*
G01*
X-311247Y645502D02*
G03*
X-312754Y646950I-1499J-52D01*
G01*
X-406991Y645710D02*
G03*
X-405500Y649502I-4096J3800D01*
G01*
X-415500Y649028D02*
G03*
X-413511Y644211I6828J0D01*
G01*
X-383000Y384200D02*
G03*
X-392500Y393700I-9500J0D01*
G01*
X-412105Y405900D02*
G03*
X-396800Y393700I15305J3500D01*
G01*
X-412499Y409200D02*
G03*
X-412105Y405900I14000J0D01*
G01*
X-394500Y336700D02*
G03*
X-397500Y333700I0J-3000D01*
G01*
X-364000Y391200D02*
G03*
X-369500Y396700I-5500J0D01*
G01*
X-409500Y409400D02*
G03*
X-396800Y396700I12700J0D01*
G01*
X-302537Y635980D02*
X-301879Y635321D01*
X-314958Y643950D02*
X-314186D01*
X-314180Y643948D01*
X-304779Y637472D02*
X-304779Y637472D01*
X-303576Y637018D02*
X-302537Y635980D01*
X-412500Y640818D02*
Y641770D01*
X11738Y541629D02*
X11738Y541629D01*
X11738Y541629D02*
Y543246D01*
X73835Y423726D02*
X73843Y423717D01*
X68771Y449293D02*
X68781Y449267D01*
X76000Y400278D02*
Y419379D01*
X58620Y375120D02*
X70500Y387000D01*
X46000Y319000D02*
Y344015D01*
X25880Y501951D02*
X25881Y501951D01*
X41181Y486062D01*
X41201Y486042D02*
X52035Y475208D01*
X1000Y307500D02*
X34500D01*
X-19000Y250000D02*
Y287500D01*
X14500Y549914D02*
Y663200D01*
X38000Y544577D02*
Y572000D01*
X38000Y544565D02*
X38000D01*
Y544565D02*
Y544565D01*
X64281Y483184D02*
X67581Y478436D01*
X72609Y477987D02*
X72609Y477987D01*
X77262Y477987D02*
X77262Y477987D01*
X75587Y471660D02*
X77262Y473335D01*
X75212Y467456D02*
X80319Y460107D01*
X62775Y484725D02*
X62793Y484707D01*
X38000Y544565D02*
X38000Y544577D01*
X74560Y560990D02*
X74717Y560368D01*
X75368Y554983D01*
X69397Y549903D02*
X73364Y551549D01*
X67620Y545602D02*
X67620Y545602D01*
X67620D01*
X71920Y543825D02*
X74866Y545049D01*
X79174Y543254D02*
X80154Y540851D01*
X80154Y540851D02*
X80154Y540851D01*
X80154Y540851D02*
X93145Y521276D01*
X93152Y521259D01*
X93987Y519145D01*
X79500Y569719D02*
X79500Y569731D01*
Y573779D01*
X88449Y548051D02*
X88449Y548051D01*
X86296Y556904D02*
X86296Y556904D01*
X100915Y528310D02*
X100928Y528259D01*
X93206Y547496D02*
X99126Y533097D01*
X86320Y556858D02*
X86383Y556748D01*
X84258Y565096D02*
X84258Y565096D01*
X84500Y564271D02*
X84500Y564271D01*
X84258Y571903D02*
X84258D01*
X69500Y572720D02*
X69500Y573771D01*
X69742Y571903D02*
X69742Y571904D01*
X73401Y564649D02*
X73401D01*
X42000Y543521D02*
Y547000D01*
Y543521D02*
X44095Y538464D01*
X44095Y538464D02*
X44095Y538464D01*
X49461Y537397D02*
X49461Y537397D01*
X54113Y537397D02*
X54113Y537397D01*
X48184Y526815D02*
X54113Y532744D01*
X48184Y522162D02*
X48184Y522162D01*
X48184Y522162D02*
X48184Y522162D01*
X52837D02*
X63793Y533118D01*
X68445Y533118D02*
X68446Y533118D01*
X53039Y513058D02*
X68446Y528465D01*
X53039Y513058D02*
Y513058D01*
X53039Y508405D02*
X53039Y508405D01*
X53039Y508405D01*
X53039Y508405D02*
X53039Y508405D01*
X57691D02*
X71711Y522425D01*
Y522425D02*
Y522425D01*
X76363D02*
X76363Y522425D01*
X62344Y503753D02*
X76363Y517772D01*
X62344Y503753D02*
Y503753D01*
X62344Y499100D02*
X62344Y499100D01*
X62344Y499100D01*
X62344Y499100D02*
X62344Y499100D01*
X66997D02*
X77981Y510084D01*
Y510084D02*
Y510084D01*
X82633D02*
X82634Y510084D01*
X71650Y494447D02*
X82634Y505431D01*
X71650Y494447D02*
Y494447D01*
X71650Y489794D02*
X71650Y489794D01*
X71650Y489794D01*
X71650Y489794D02*
X71650Y489794D01*
X76302D02*
X82639Y496131D01*
Y496131D02*
Y496131D01*
X87292D02*
X87292Y496131D01*
X80955Y485142D02*
X87292Y491478D01*
X80955Y485142D02*
Y485142D01*
X80955Y480489D02*
X80955Y480489D01*
X80955Y480489D01*
X80955Y480489D02*
X80955Y480489D01*
X85608D02*
X85821Y480701D01*
X90970Y480064D02*
X90970Y480064D01*
X91417Y479318D01*
X89500Y393521D02*
Y420227D01*
X89500Y420246D02*
X89500Y420227D01*
X55334Y483166D02*
X55372Y483129D01*
X80500Y415157D02*
X80500Y415136D01*
Y398764D02*
Y415136D01*
X83500Y398727D02*
Y415189D01*
X83500Y415215D02*
X83500Y415189D01*
X25795Y540503D02*
X25813Y540297D01*
X25794Y540514D02*
X25794Y540514D01*
X26169Y536753D02*
X26228Y537480D01*
X26407Y492351D02*
X47758Y471000D01*
X28541Y494459D02*
X49913Y473087D01*
X42000Y547000D02*
Y553500D01*
X28500Y548001D02*
Y576250D01*
X28500Y547989D02*
X28500Y548001D01*
X58586Y566477D02*
X59258Y565096D01*
X59258Y565096D02*
X59258Y565096D01*
X59258Y565096D02*
X59500Y564271D01*
Y563075D02*
Y564271D01*
X62790Y559785D02*
X67568D01*
X70858Y556495D02*
Y556495D01*
X55516Y553205D02*
X67568D01*
X52226Y549915D02*
Y549915D01*
X55516Y546625D02*
X60623D01*
X63752Y544352D02*
X63752Y544352D01*
X64082Y543335D01*
X44725Y560080D02*
X45078Y560432D01*
X44725Y560080D02*
Y560080D01*
X45078Y560432D02*
X47798Y563153D01*
X92500Y457815D02*
Y470573D01*
X48015Y563332D02*
X48015D01*
X73939Y366440D02*
X85561Y378060D01*
X66500Y341000D02*
Y348479D01*
X49500Y582229D02*
Y663200D01*
Y582229D02*
Y582229D01*
X49258Y581404D02*
X49258D01*
X49500Y572720D02*
X49500Y573771D01*
X66517Y540483D02*
X66517Y540483D01*
X66517Y540483D02*
X66517Y540483D01*
X66517Y540483D02*
X66517Y540483D01*
X68968Y537942D02*
X68969Y537942D01*
X68968Y537942D02*
X68968Y537942D01*
X68969Y537942D01*
X75286Y530442D02*
X75286Y530442D01*
X75286Y530442D02*
X75286Y530442D01*
X75286D02*
X75286D01*
X25500Y547983D02*
Y660786D01*
X25500Y547971D02*
X25500Y547983D01*
X28500Y579750D02*
Y660786D01*
X102000Y491401D02*
X102000Y491380D01*
Y377985D02*
Y491380D01*
X98500Y382250D02*
Y494346D01*
X98500Y494365D02*
X98500Y494346D01*
X111000Y366328D02*
Y530843D01*
X107500Y341000D02*
Y357879D01*
X104742Y581404D02*
X104742D01*
X104500Y582220D02*
X104500Y663200D01*
X104500Y573779D02*
X104500Y568743D01*
X101500Y553778D02*
Y561500D01*
X95986Y548623D02*
X101910Y534216D01*
X108000Y369536D02*
Y503404D01*
X108000Y503418D02*
X108000Y503404D01*
X94500Y556156D02*
X94500Y556168D01*
Y564279D01*
X105000Y496490D02*
X105000Y496474D01*
Y376090D02*
Y496474D01*
X95500Y393521D02*
Y470498D01*
X95500Y470517D02*
X95500Y470498D01*
X94500Y582229D02*
Y663200D01*
Y582229D02*
Y582229D01*
X94258Y581404D02*
X94258D01*
X94742Y571904D02*
X94742Y571904D01*
X94500Y572720D02*
X94500Y573771D01*
X84500Y572729D02*
Y663200D01*
Y572729D02*
Y572729D01*
X79500Y582220D02*
X79500Y663200D01*
X69500Y582229D02*
Y663200D01*
Y582229D02*
Y582229D01*
X69258Y581404D02*
X69258D01*
X59500Y582220D02*
X59500Y663200D01*
X59500Y573779D02*
Y573779D01*
Y572729D02*
Y573779D01*
X59258Y571903D02*
X59258D01*
X92500Y393521D02*
Y457795D01*
X92500Y457815D02*
X92500Y457795D01*
X39500Y582220D02*
X39500Y663200D01*
X5500Y542862D02*
Y660786D01*
X8500Y542868D02*
X8500Y542880D01*
X5500Y542849D02*
X5500Y542862D01*
X8500Y542880D02*
Y660786D01*
X9500Y663200D02*
X9500Y663200D01*
X70500Y423399D02*
X70500Y423386D01*
X55531Y382288D02*
X62208Y388965D01*
X52000Y365500D02*
Y373764D01*
X47000Y363000D02*
X49500D01*
X67500Y423350D02*
X67500Y423338D01*
X52657Y383657D02*
X60061Y391060D01*
X70500Y408984D02*
Y423386D01*
X67500Y409021D02*
Y423338D01*
X71899Y379642D02*
X73060Y380803D01*
X63000Y-17646D02*
Y13015D01*
X60121Y-23000D02*
X61250Y-21871D01*
X60119Y-23002D02*
X60121Y-23000D01*
X50000Y44380D02*
Y326772D01*
X57865Y25393D02*
X57879Y25379D01*
X29500Y663200D02*
X29500Y663200D01*
X74047Y377547D02*
X75208Y378708D01*
X68879Y-23000D02*
X68881Y-23002D01*
X67750Y-21871D02*
X68879Y-23000D01*
X67748Y-21869D02*
X67750Y-21871D01*
X53000Y44399D02*
Y326735D01*
X60000Y27500D02*
X60033Y27467D01*
X66000Y-17646D02*
Y13061D01*
X82500Y347500D02*
Y348500D01*
X77707Y342707D02*
X82500Y347500D01*
X101500Y341000D02*
Y353834D01*
X101500Y353843D02*
X101500Y353834D01*
X98395Y361657D02*
Y361657D01*
X96500Y341000D02*
Y355757D01*
X91000Y341000D02*
Y351429D01*
X5360Y59640D02*
X29600Y35399D01*
X-42000Y173977D02*
Y387500D01*
X-39000Y173995D02*
Y387500D01*
X7494Y61749D02*
X31756Y37486D01*
X41000Y-27000D02*
X41005Y-26995D01*
X33000Y-44050D02*
Y-39067D01*
X36000Y-44050D02*
Y-39071D01*
X56500Y369364D02*
Y370000D01*
X81000Y359000D02*
X87717Y365717D01*
X71829Y368572D02*
X83439Y380182D01*
X61000Y341000D02*
Y346379D01*
X78000Y365500D02*
X88061Y375560D01*
X71500Y341000D02*
Y349808D01*
X-262000Y427398D02*
Y431285D01*
X-291000Y472000D02*
X-270284Y451284D01*
X-237102Y402500D02*
X-54000D01*
X-297000Y486485D02*
Y630800D01*
X-303474Y640319D02*
X-303474D01*
X-314939Y646950D02*
X-312754D01*
X-318515Y648844D02*
X-317811Y648139D01*
X-300429Y638114D02*
X-299747Y637433D01*
X-303474Y640319D02*
X-303199Y640309D01*
X-265000Y427398D02*
Y431236D01*
X-293136Y469893D02*
X-272439Y449197D01*
X-237102Y399500D02*
X-54000D01*
X-321078Y647164D02*
X-319919Y646005D01*
X-325500Y657843D02*
Y665700D01*
X-300000Y486465D02*
Y630786D01*
X-409500Y639700D02*
X-409500Y596750D01*
X-412499D02*
Y641294D01*
X-315500Y658464D02*
Y665700D01*
X-405500Y649522D02*
Y665700D01*
X-408900Y642731D02*
X-408891Y642752D01*
X-415500Y649028D02*
Y665700D01*
X-302180Y639865D02*
X-301485Y639170D01*
X-301462Y639148D02*
X-300429Y638114D01*
X-405500Y649502D02*
X-405500Y649522D01*
X-409500Y609250D02*
X-409499Y409400D01*
X-412499Y409200D02*
Y609250D01*
X-364000Y336200D02*
Y350200D01*
Y361700D01*
Y391200D01*
X-383000Y336200D02*
Y384200D01*
X-396800Y393700D02*
X-392500D01*
X-394500Y336700D02*
X-383500D01*
X-397500Y329000D02*
Y333700D01*
Y310200D02*
Y319400D01*
X-373300Y350200D02*
Y358507D01*
X-373500Y350000D02*
X-373300Y350200D01*
X-373500Y324700D02*
Y350000D01*
Y312200D02*
Y324700D01*
Y301200D02*
Y312200D01*
X-396800Y396700D02*
X-369500D01*
D42*
X109264Y566375D02*
D03*
D43*
X20000Y556612D02*
G03*
X19952Y557189I-3500J0D01*
G01*
X19500Y560195D02*
G03*
X19547Y559648I3500J22D01*
G01*
X-500Y508036D02*
G03*
X2000Y502000I8536J0D01*
G01*
X19500Y560217D02*
Y561519D01*
X20000Y538000D02*
Y556612D01*
X19500Y560195D02*
X19500Y560217D01*
X19547Y559648D02*
X19952Y557189D01*
X-500Y508036D02*
Y663200D01*
X19500Y561519D02*
Y663200D01*
X-5500Y485700D02*
Y663200D01*
D44*
X-285500Y645700D02*
Y665700D01*
X-305500Y645700D02*
Y665700D01*
X-335500Y645700D02*
Y665700D01*
X-365500Y645700D02*
Y665700D01*
X-395500D02*
X-395500D01*
Y645700D02*
Y665700D01*
X-425500Y645700D02*
Y665700D01*
X-465500Y645700D02*
Y665700D01*
D45*
X-19000Y250000D02*
D03*
X20000Y538000D02*
D03*
X34500Y578000D02*
D03*
X108000Y560500D02*
D03*
X99500Y578000D02*
D03*
X89500Y568500D02*
D03*
X64500D02*
D03*
X44500D02*
D03*
X74500Y578000D02*
D03*
X54500D02*
D03*
X2000Y502000D02*
D03*
X-15000Y592500D02*
D03*
Y502500D02*
D03*
X-102500Y503000D02*
D03*
X-59000Y629000D02*
D03*
X-102500Y575500D02*
D03*
X82500Y348500D02*
D03*
X-407000Y387200D02*
D03*
X-356500Y389700D02*
D03*
X-397500Y310200D02*
D03*
X-373500Y372200D02*
D03*
Y324700D02*
D03*
D46*
X81000Y359000D02*
D03*
D47*
X30000Y0D02*
D03*
X0Y30000D02*
D03*
X21213Y21213D02*
D03*
Y-21213D02*
D03*
X-21213D02*
D03*
X-30000Y0D02*
D03*
X0Y-30000D02*
D03*
X-610000Y420000D02*
D03*
X-580000Y390000D02*
D03*
X-601213Y398787D02*
D03*
Y441213D02*
D03*
X-558787D02*
D03*
X-550000Y420000D02*
D03*
X-580000Y450000D02*
D03*
X-30000Y420000D02*
D03*
X0Y390000D02*
D03*
X-21213Y398787D02*
D03*
Y441213D02*
D03*
X21213D02*
D03*
X30000Y420000D02*
D03*
X0Y450000D02*
D03*
X21213Y398787D02*
D03*
D48*
X-555680Y395680D02*
D03*
X-24325Y24325D02*
D03*
D49*
X-580000Y420000D02*
D03*
X0D02*
D03*
Y0D02*
D03*
D50*
X59500Y-24500D02*
D03*
X69500D02*
D03*
X29500Y-52500D02*
D03*
X39500D02*
D03*
D51*
X15000Y269500D02*
D03*
X20000Y262500D02*
D03*
X15000Y255500D02*
D03*
X25000D02*
D03*
Y269500D02*
D03*
X30000Y262500D02*
D03*
X35000Y255500D02*
D03*
Y269500D02*
D03*
X15000Y334000D02*
D03*
X20000Y327000D02*
D03*
X15000Y320000D02*
D03*
X25000D02*
D03*
Y334000D02*
D03*
X30000Y327000D02*
D03*
X35000Y320000D02*
D03*
Y334000D02*
D03*
X-586500Y220000D02*
D03*
X-581500Y213000D02*
D03*
X-586500Y206000D02*
D03*
X-576500D02*
D03*
Y220000D02*
D03*
X-571500Y213000D02*
D03*
X-566500Y206000D02*
D03*
Y220000D02*
D03*
X-586500Y156000D02*
D03*
X-581500Y149000D02*
D03*
X-586500Y142000D02*
D03*
X-576500D02*
D03*
Y156000D02*
D03*
X-571500Y149000D02*
D03*
X-566500Y142000D02*
D03*
Y156000D02*
D03*
X-368000Y450000D02*
D03*
X-375000Y445000D02*
D03*
X-382000Y450000D02*
D03*
Y440000D02*
D03*
X-368000D02*
D03*
X-375000Y435000D02*
D03*
X-382000Y430000D02*
D03*
X-368000D02*
D03*
X-304000Y450000D02*
D03*
X-311000Y445000D02*
D03*
X-318000Y450000D02*
D03*
Y440000D02*
D03*
X-304000D02*
D03*
X-311000Y435000D02*
D03*
X-318000Y430000D02*
D03*
X-304000D02*
D03*
X-141000Y636500D02*
D03*
X-148000Y631500D02*
D03*
X-155000Y636500D02*
D03*
Y626500D02*
D03*
X-141000D02*
D03*
X-148000Y621500D02*
D03*
X-155000Y616500D02*
D03*
X-141000D02*
D03*
X-76500Y636500D02*
D03*
X-83500Y631500D02*
D03*
X-90500Y636500D02*
D03*
Y626500D02*
D03*
X-76500D02*
D03*
X-83500Y621500D02*
D03*
X-90500Y616500D02*
D03*
X-76500D02*
D03*
X-285500Y645700D02*
D03*
X-305500D02*
D03*
X-335500D02*
D03*
X-365500D02*
D03*
X-395500D02*
D03*
X-425500D02*
D03*
X-465500D02*
D03*
M02*
