M48
;Layer_Color=9474304
;FILE_FORMAT=2:5
INCH,LZ
;TYPE=PLATED
T1F00S00C0.03150
T2F00S00C0.03543
%
T01
X0027835Y0003543
Y0011417
Y0019291
Y0027165
Y0035039
Y0042913
Y0050787
Y0058661
Y0066535
Y007441
X0035709Y0070473
Y0062598
Y0054724
Y004685
Y0038976
Y0031102
Y0023228
Y0015354
Y000748
Y-0000394
T02
X-0028543Y-0062992
Y-0052992
Y-0042992
Y-0032992
Y-0022992
Y-0012992
Y-0002992
Y0007008
Y0017008
Y0027008
Y0037008
Y0047008
Y0057008
Y0067008
Y0077008
Y0087008
Y0097008
Y0107008
Y0117008
Y0127008
M30
