M48
;Layer_Color=9474304
;FILE_FORMAT=4:3
METRIC,LZ
;TYPE=PLATED
T1F00S00C0.300
T2F00S00C0.350
T3F00S00C0.400
T4F00S00C0.500
T5F00S00C1.200
T6F00S00C2.500
;TYPE=NON_PLATED
T7F00S00C0.300
T8F00S00C0.400
T9F00S00C0.500
T10F00S00C1.000
%
T01
X-00235Y00109
Y00119
Y00129
T02
X-00225Y00109
Y00119
Y00129
T03
X-00095Y002295
Y002495
X-00085
Y002595
X-00095
Y002695
X-00085Y00279
X-00075
Y00289
X-00065
X-00085
X-00095
X-00075Y0025
X-00031Y0024
X-000085Y00249
X00054Y002775
X-00029Y003035
Y00311
Y003195
Y003275
Y00335
X-00037Y00331
Y00323
Y00315
Y00307
X-00049Y00309
X-00065
X-00075
X-00075Y00319
X-00085
Y00329
Y00339
Y00349
X-00075
Y00339
Y00329
X-00065Y00359
T04
X-0002121Y-0002121
X-0003Y0
X0003
X0002121Y0002121
X0Y0003
Y-0003
X0002121Y-0002121
X-0055879
X-0058Y-0003
X-0060121Y-0002121
Y0002121
X-0058Y0003
X-0055879Y0002121
X-0055Y0
X-0061
X-0029121Y0063879
X-003Y0066
X-0029121Y0068121
X-0027Y0069
X-0024879Y0068121
X-0024Y0066
X-0024879Y0063879
X-0027Y0063
X-0002121Y0044121
X-0003Y0042
X-0002121Y0039879
X0Y0039
X0002121Y0039879
X0003Y0042
X0002121Y0044121
X0Y0045
T05
X-0002432Y0002432
T06
X0Y0
X-0058
X-0027Y0066
X0Y0042
T07
X-003295Y-0013
X-0008Y-0008
X-0005Y-000135
Y000065
Y000315
Y000365
X-0008Y00055
X-00006Y00172
Y001775
Y001825
Y00188
X0001Y00205
X00034Y00188
Y001825
Y001775
Y00172
X0001Y001575
X00021Y00255
X000205Y0026
X00007Y002755
Y002875
X00046
X000425Y002755
X-00225Y000365
Y000315
Y000065
X-0024Y-000135
X-003295Y-0001
X-0028Y-000725
Y-00085
X-0053
Y-000725
X00007Y00298
X00005Y003035
X00007Y003085
X00005Y00314
X000205Y0033
X00021Y00335
X0004525Y00314
X0004775Y003085
X0004525Y003035
X0004775Y00298
T08
X-00215Y00109
Y00119
Y00129
T09
X-00201Y-00113
X-001235Y-00107
X-00075Y-001065
X-000815Y-00091
X-00073Y00044
X-001255Y00129
X-00195
Y00139
Y00119
Y00109
X-00205Y00129
X-00035Y001585
X-00027
X-00019
X-00027Y001695
X-00035
Y001795
X-00045Y001785
X-000355Y001915
X-000275
X-000195
X-000115
X-00029Y00259
X-000375
X-00215Y001395
X-00245Y00129
Y00119
Y00099
X-0023Y00085
X-0022
X-00251Y-00091
X-002735Y-00099
X-003135Y-00055
T10
X-00035Y0012
X-00015
Y0014
X-00035
X00015
X00035
Y0012
X00015
Y0009
Y0007
X00035
Y0009
M30
