G04*
G04 #@! TF.GenerationSoftware,Altium Limited,Altium Designer,20.1.7 (139)*
G04*
G04 Layer_Physical_Order=1*
G04 Layer_Color=255*
%FSLAX25Y25*%
%MOIN*%
G70*
G04*
G04 #@! TF.SameCoordinates,DE95C88B-E6F4-4D11-AC93-DC71A6A521C9*
G04*
G04*
G04 #@! TF.FilePolarity,Positive*
G04*
G01*
G75*
%ADD12R,0.02756X0.11811*%
%ADD13C,0.02756*%
%ADD14C,0.02000*%
G36*
X5315Y812D02*
X2559D01*
Y15748D01*
X1181D01*
Y18585D01*
X1212Y18428D01*
X1366Y18197D01*
X1598Y18043D01*
X1870Y17989D01*
X2143Y18043D01*
X2374Y18197D01*
X2528Y18428D01*
X2582Y18701D01*
X2528Y18973D01*
X2374Y19204D01*
X2143Y19359D01*
X1870Y19413D01*
X1598Y19359D01*
X1366Y19204D01*
X1212Y18973D01*
X1181Y18817D01*
Y21654D01*
X5315D01*
Y812D01*
D02*
G37*
G36*
X81496Y21654D02*
X81496Y15748D01*
X80118Y15748D01*
Y13583D01*
X77756D01*
X77362Y13976D01*
X77362Y21654D01*
X81496Y21654D01*
D02*
G37*
D12*
X3937Y5906D02*
D03*
X7874D02*
D03*
X11811D02*
D03*
X15748D02*
D03*
X19685D02*
D03*
X23622D02*
D03*
X27559D02*
D03*
X31496D02*
D03*
X35433D02*
D03*
X39370D02*
D03*
X43307D02*
D03*
X47244D02*
D03*
X51181D02*
D03*
X55118D02*
D03*
X59055D02*
D03*
X62992D02*
D03*
X66929D02*
D03*
X70866D02*
D03*
X74803D02*
D03*
X78740D02*
D03*
D13*
X5118Y13583D02*
X7874D01*
X78740Y5906D02*
Y13780D01*
X74803D02*
X78740D01*
X74803Y5906D02*
Y13780D01*
X70866Y5906D02*
Y13780D01*
X66929D02*
X70866D01*
X66929Y9843D02*
Y13780D01*
X62992Y9843D02*
Y13780D01*
X59055D02*
X62992D01*
X59055Y9843D02*
Y13780D01*
X55118Y9843D02*
Y13780D01*
X51181D02*
X55118D01*
X51181Y5906D02*
Y13780D01*
X47244Y9843D02*
Y13780D01*
X43307D02*
X47244D01*
X43307Y5906D02*
Y13780D01*
X39370Y5906D02*
Y13780D01*
X35433D02*
X39370D01*
X35433Y5906D02*
Y13780D01*
X31496Y5906D02*
Y13780D01*
X27559D02*
X31496D01*
X27559Y5906D02*
Y13780D01*
X23622Y9843D02*
Y13780D01*
X19685D02*
X23622D01*
X19685Y5906D02*
Y13780D01*
X15748Y5906D02*
Y13780D01*
X11811D02*
X15748D01*
X11811Y9843D02*
Y13780D01*
X7874Y9843D02*
Y13583D01*
D14*
X1870Y18701D02*
D03*
M02*
